# OpenSCAD obj exporter
v 0 -35.575 8.2
v 0 -35.575 11.2
v 3 -19 11.2
v 3 -20 18.35
v 3 -19 18.2
v 3 -13 11.2
v 3 -13 18.2
v 35.45 -22.5 0
v 35.45 -22.5 8.2
v 63.7469 -19.1193 6
v 62.2139 -17.8511 6
v 62.456 -18.1525 6
v 62.4729 -18.1642 6
v 62.4433 -18.1284 6
v 62.5341 -18.2382 6
v 62.9003 -18.5821 6
v 63.3067 -18.8773 6
v 62.456 -18.1525 8.2
v 61 -19 11.2
v 61 -20 18.35
v 61 -19 18.2
v 61 -19 18.35
v 35.45 -10 3
v 35.4 -9.7 3.25
v 35.45 -10 4.5
v 35.4 -9.7 4.45
v 35.45 -4.82 8.2
v 35.4 -4.56111 8.2
v 63.6974 -16.4635 0
v 63.5904 -16.2362 0
v 63.5128 -15.9974 0
v 63.4658 -15.7507 0
v 63.6974 -16.4635 3
v 63.5904 -16.2362 3
v 63.5128 -15.9974 3
v 63.4658 -15.7507 3
v 63.45 -15.5 0
v 63.4658 -15.2493 0
v 63.5128 -15.0026 0
v 63.5904 -14.7638 0
v 63.6974 -14.5365 0
v 63.45 -15.5 3
v 63.4658 -15.2493 3
v 63.5128 -15.0026 3
v 63.5904 -14.7638 3
v 63.6974 -14.5365 3
v 61.7309 -16.9725 6
v 61.5757 -16.4948 6
v 61.5662 -16.4573 6
v 61.5698 -16.4641 6
v 61.5662 -16.4453 6
v 61.4815 -16.0013 6
v 61.9448 -17.427 6
v 61.5662 -16.4573 8.2
v 61.45 -15.5 6
v 61.4815 -14.9987 6
v 61.5662 -14.5547 6
v 61.5662 -14.5427 6
v 61.5698 -14.5359 6
v 61.5757 -14.5052 6
v 61.7309 -14.0275 6
v 61.9448 -13.573 6
v 61.5662 -14.5427 8.2
v 62.2139 -13.1489 6
v 62.4433 -12.8716 6
v 62.456 -12.8475 6
v 62.4729 -12.8358 6
v 62.5341 -12.7618 6
v 62.9003 -12.4179 6
v 63.3067 -12.1227 6
v 63.7469 -11.8807 6
v 62.456 -12.8475 8.2
v 61 -13 11.2
v 61 -13 18.2
v 61 -13 18.35
v 60 -11.2888 18.35
v 61 -11.2888 18.35
v 60 -10.3715 17.3313
v 60 -7.75 15.4266
v 60 -4.78976 14.1086
v 60 -1.62019 13.4349
v 61 -14.6167 22.1922
v 61 -14.16 22.5456
v 61 -15.6504 25.3734
v 61 -15.1613 25.6274
v 61 -13 19.392
v 61 -12.5398 19.7393
v 61 -16 28.7
v 61 -15.6504 32.0266
v 61 -15.5 28.85
v 61 -15.1613 32.0726
v 61 -14.6167 35.2078
v 61 -14.16 35.1544
v 3 -20 53.35
v 17.1287 -18.0701 58.35
v 18.2749 -18.4031 58.35
v 19.4398 -18.6635 58.35
v 21.807 -18.9625 58.35
v 20.6187 -18.8502 58.35
v 23 -19 58.35
v 17.1287 -18.0701 60.85
v 17.1596 -17.975 60.85
v 18.2749 -18.4031 60.85
v 18.5862 -18.4385 60.85
v 19.4398 -18.6635 60.85
v 21.807 -18.9625 60.85
v 20.6187 -18.8502 60.85
v 23 -19 60.85
v 23 -18.9 60.85
v 24.193 -18.9625 58.35
v 25.3813 -18.8502 58.35
v 26.5602 -18.6635 58.35
v 27.7251 -18.4031 58.35
v 28.8713 -18.0701 58.35
v 24.193 -18.9625 60.85
v 24.5 -18.9 60.85
v 25.3813 -18.8502 60.85
v 26.5602 -18.6635 60.85
v 27.7251 -18.4031 60.85
v 28.8713 -18.0701 60.85
v 28.8404 -17.975 60.85
v 17.1287 -18.0701 65.85
v 17.1596 -17.975 65.85
v 18.2749 -18.4031 65.85
v 18.5862 -18.4385 65.85
v 19.4398 -18.6635 65.85
v 17.1287 -18.0701 68.35
v 18.2749 -18.4031 68.35
v 19.4398 -18.6635 68.35
v 21.807 -18.9625 65.85
v 20.6187 -18.8502 65.85
v 23 -19 65.85
v 23 -18.9 65.85
v 21.807 -18.9625 68.35
v 20.6187 -18.8502 68.35
v 23 -19 68.35
v 24.193 -18.9625 65.85
v 24.5 -18.9 65.85
v 25.3813 -18.8502 65.85
v 26.5602 -18.6635 65.85
v 27.7251 -18.4031 65.85
v 24.193 -18.9625 68.35
v 25.3813 -18.8502 68.35
v 26.5602 -18.6635 68.35
v 27.7251 -18.4031 68.35
v 28.8713 -18.0701 65.85
v 28.8404 -17.975 65.85
v 28.8713 -18.0701 68.35
v 19.6418 -0.986064 53.35
v 20.708 -2.64512 53.35
v 22.5019 -3.46438 53.35
v 24.454 -3.18371 53.35
v 25.9444 -1.89224 53.35
v 7.62868 -11.1679 58.35
v 6.95777 -10.1807 58.35
v 6.35017 -9.15332 58.35
v 7.62868 -11.1679 60.85
v 6.95777 -10.1807 60.85
v 7.70958 -11.1091 60.85
v 6.35017 -9.15332 60.85
v 10.8889 -14.6398 58.35
v 11.8321 -15.3713 58.35
v 9.9936 -13.8504 58.35
v 12.8193 -16.0422 58.35
v 13.8467 -16.6498 58.35
v 14.9102 -17.1917 58.35
v 10.8889 -14.6398 60.85
v 11.8321 -15.3713 60.85
v 11.8909 -15.2904 60.85
v 9.9936 -13.8504 60.85
v 12.8193 -16.0422 60.85
v 13.1044 -16.1721 60.85
v 13.8467 -16.6498 60.85
v 14.9102 -17.1917 60.85
v 14.491 -14.2636 62.0167
v 12.7951 -14.0458 63.35
v 13.2774 -13.382 64.6833
v 14.0087 -14.9275 63.35
v 9.1496 -13.0064 58.35
v 8.36025 -12.1111 58.35
v 8.59126 -12.3227 60.85
v 9.1496 -13.0064 60.85
v 8.36025 -12.1111 60.85
v 9.8359 -11.4184 63.35
v 10.4997 -10.9361 62.0167
v 11.8131 -9.98189 60.85
v 8.95422 -10.2049 63.35
v 9.61803 -9.72257 64.6833
v 11.8131 -9.98189 63.3357
v 13.4386 -11.5577 60.85
v 15.7737 -13.1446 60.85
v 15.4452 -12.9503 60.85
v 14.1832 -12.1353 60.85
v 15.4452 -12.9503 63.3357
v 12.7318 -10.9345 60.85
v 12.0655 -10.2682 60.85
v 7.62868 -11.1679 65.85
v 7.62868 -11.1679 68.35
v 6.95777 -10.1807 65.85
v 7.70958 -11.1091 65.85
v 6.35017 -9.15332 65.85
v 6.95777 -10.1807 68.35
v 6.35017 -9.15332 68.35
v 10.8889 -14.6398 65.85
v 11.8321 -15.3713 65.85
v 11.8909 -15.2904 65.85
v 9.9936 -13.8504 65.85
v 10.8889 -14.6398 68.35
v 11.8321 -15.3713 68.35
v 9.9936 -13.8504 68.35
v 12.8193 -16.0422 65.85
v 13.1044 -16.1721 65.85
v 13.8467 -16.6498 65.85
v 14.9102 -17.1917 65.85
v 12.8193 -16.0422 68.35
v 13.8467 -16.6498 68.35
v 14.9102 -17.1917 68.35
v 8.59126 -12.3227 65.85
v 9.1496 -13.0064 65.85
v 8.36025 -12.1111 65.85
v 9.1496 -13.0064 68.35
v 8.36025 -12.1111 68.35
v 11.8131 -9.98189 65.85
v 13.4386 -11.5577 65.85
v 15.7737 -13.1446 65.85
v 15.4452 -12.9503 65.85
v 14.1832 -12.1353 65.7789
v 14.1832 -12.1353 65.85
v 12.7318 -10.9345 65.85
v 12.0655 -10.2682 65.85
v 5.80829 -8.08981 58.35
v 5.33425 -6.99437 58.35
v 4.92993 -5.87132 58.35
v 4.59692 -4.72511 58.35
v 5.80829 -8.08981 60.85
v 5.48856 -7.26701 60.85
v 5.33425 -6.99437 60.85
v 6.95172 -6.7916 63.35
v 4.92993 -5.87132 60.85
v 5.02503 -5.84042 60.85
v 4.59692 -4.72511 60.85
v 7.73208 -6.53804 62.0167
v 6.4882 -5.36501 63.35
v 7.26855 -5.11146 64.6833
v 4.33654 -3.56024 58.35
v 4.14982 -2.38133 58.35
v 4.03749 -1.19302 58.35
v 4.33654 -3.56024 60.85
v 4.14982 -2.38133 60.85
v 4.1 -1.5 60.85
v 4.03749 -1.19302 60.85
v 6.45897 -1.5 62.0167
v 5.63846 -1.5 63.35
v 9.8554 -7.22631 60.85
v 10.8647 -8.81678 60.85
v 10.3351 -8.0374 60.85
v 9.42759 -6.38669 60.85
v 9.27601 -6.03639 60.85
v 8.73415 -4.63525 60.85
v 9.27601 -6.03639 63.3357
v 8.47125 -3.73035 60.85
v 8.26569 -2.81072 60.85
v 8.11828 -1.88 60.85
v 8.08236 -1.5 60.85
v 8.08236 -1.5 63.3357
v 5.80829 -8.08981 65.85
v 5.48856 -7.26701 65.85
v 5.33425 -6.99437 65.85
v 5.80829 -8.08981 68.35
v 5.33425 -6.99437 68.35
v 4.92993 -5.87132 65.85
v 5.02503 -5.84042 65.85
v 4.59692 -4.72511 65.85
v 4.92993 -5.87132 68.35
v 4.59692 -4.72511 68.35
v 4.33654 -3.56024 65.85
v 4.14982 -2.38133 65.85
v 4.33654 -3.56024 68.35
v 4.14982 -2.38133 68.35
v 4.1 -1.5 65.85
v 4.03749 -1.19302 65.85
v 4.03749 -1.19302 68.35
v 9.8554 -7.22631 65.85
v 10.8647 -8.81678 65.7789
v 10.8647 -8.81678 65.85
v 10.3351 -8.0374 65.85
v 9.42759 -6.38669 65.85
v 9.27601 -6.03639 65.85
v 8.73415 -4.63525 65.7789
v 8.73415 -4.63525 65.85
v 8.47125 -3.73035 65.85
v 8.26569 -2.81072 65.85
v 8.11828 -1.88 65.85
v 8.08236 -1.5 65.85
v 16.0056 -17.6658 58.35
v 16.0056 -17.6658 60.85
v 19.3151 -16.195 62.0167
v 17.635 -16.5118 63.35
v 17.8885 -15.7315 64.6833
v 19.0616 -16.9753 63.35
v 16.6133 -13.5724 60.85
v 17.4781 -13.9466 60.85
v 19.8168 -14.651 60.85
v 18.3647 -14.2658 60.85
v 19.8168 -14.651 63.3357
v 23 -17.3615 63.35
v 23 -16.541 64.6833
v 20.1893 -14.7343 60.85
v 21.12 -14.8817 60.85
v 22.0581 -14.9704 60.85
v 23 -15 60.85
v 29.9944 -17.6658 58.35
v 31.0898 -17.1917 58.35
v 24.5 -16.541 62.0167
v 24.5 -17.3615 63.35
v 24.5 -14.9176 60.85
v 24.88 -14.8817 60.85
v 25.8107 -14.7343 60.85
v 26.7303 -14.5287 60.85
v 27.6353 -14.2658 60.85
v 24.5 -14.9176 63.3357
v 29.9944 -17.6658 60.85
v 30.267 -17.5114 60.85
v 31.0898 -17.1917 60.85
v 28.365 -16.5118 63.35
v 29.7916 -16.0483 63.35
v 28.1115 -15.7315 64.6833
v 29.538 -15.2679 62.0167
v 29.0364 -13.724 60.85
v 29.3867 -13.5724 60.85
v 29.0364 -13.724 63.3357
v 30.2263 -13.1446 60.85
v 31.0374 -12.6649 60.85
v 31.8168 -12.1353 60.85
v 16.0056 -17.6658 65.85
v 16.0056 -17.6658 68.35
v 16.6133 -13.5724 65.85
v 17.4781 -13.9466 65.85
v 19.8168 -14.651 65.85
v 18.3647 -14.2658 65.7789
v 18.3647 -14.2658 65.85
v 20.1893 -14.7343 65.85
v 21.12 -14.8817 65.85
v 22.0581 -14.9704 65.85
v 23 -15 65.7789
v 23 -15 65.85
v 24.5 -14.9176 65.85
v 24.88 -14.8817 65.85
v 25.8107 -14.7343 65.85
v 26.7303 -14.5287 65.85
v 27.6353 -14.2658 65.7789
v 27.6353 -14.2658 65.85
v 29.9944 -17.6658 65.85
v 30.267 -17.5114 65.85
v 31.0898 -17.1917 65.85
v 29.9944 -17.6658 68.35
v 31.0898 -17.1917 68.35
v 29.0364 -13.724 65.85
v 29.3867 -13.5724 65.85
v 30.2263 -13.1446 65.85
v 31.0374 -12.6649 65.85
v 31.8168 -12.1353 65.7789
v 31.8168 -12.1353 65.85
v 19.8794 -2.58157 58.35
v 19.7235 -2.38053 58.35
v 19.3355 -1.72441 58.35
v 19.5805 -2.1701 58.35
v 19.451 -1.9511 58.35
v 19.2344 -1.4909 58.35
v 19.1482 -1.25152 58.35
v 19.0772 -1.00719 58.35
v 19.0217 -0.758894 58.35
v 18.9819 -0.5076 58.35
v 18.958 -0.254302 58.35
v 20.8299 -3.41953 58.35
v 21.2756 -3.66455 58.35
v 21.0489 -3.54904 58.35
v 21.5091 -3.76559 58.35
v 21.7485 -3.85178 58.35
v 20.4184 -3.12058 58.35
v 20.2276 -2.95232 58.35
v 20.6195 -3.27652 58.35
v 20.0477 -2.77242 58.35
v 21.9928 -3.92276 58.35
v 22.2411 -3.97826 58.35
v 22.4924 -4.01806 58.35
v 22.7457 -4.04201 58.35
v 23 -4.05 58.35
v 23.2543 -4.04201 58.35
v 23.5076 -4.01806 58.35
v 23.7589 -3.97826 58.35
v 24.0072 -3.92276 58.35
v 24.2515 -3.85178 58.35
v 24.4909 -3.76559 58.35
v 24.7244 -3.66455 58.35
v 24.9511 -3.54904 58.35
v 25.1701 -3.41953 58.35
v 25.3805 -3.27652 58.35
v 25.5816 -3.12058 58.35
v 25.7724 -2.95232 58.35
v 25.95 -2.77474 58.35
v 25.95 -1.87313 58.35
v 19.8794 -2.58157 68.35
v 19.7235 -2.38053 68.35
v 19.3355 -1.72441 68.35
v 19.5805 -2.1701 68.35
v 19.451 -1.9511 68.35
v 19.2344 -1.4909 68.35
v 19.1482 -1.25152 68.35
v 19.0772 -1.00719 68.35
v 19.0217 -0.758894 68.35
v 19.6418 -0.986064 68.35
v 18.9819 -0.5076 68.35
v 18.958 -0.254302 68.35
v 20.8299 -3.41953 68.35
v 21.2756 -3.66455 68.35
v 21.0489 -3.54904 68.35
v 21.5091 -3.76559 68.35
v 21.7485 -3.85178 68.35
v 20.4184 -3.12058 68.35
v 20.2276 -2.95232 68.35
v 20.6195 -3.27652 68.35
v 20.0477 -2.77242 68.35
v 20.708 -2.64512 68.35
v 21.9928 -3.92276 68.35
v 22.2411 -3.97826 68.35
v 22.4924 -4.01806 68.35
v 22.7457 -4.04201 68.35
v 22.5019 -3.46438 68.35
v 23 -4.05 68.35
v 23.2543 -4.04201 68.35
v 23.5076 -4.01806 68.35
v 23.7589 -3.97826 68.35
v 24.0072 -3.92276 68.35
v 24.2515 -3.85178 68.35
v 24.4909 -3.76559 68.35
v 24.7244 -3.66455 68.35
v 24.9511 -3.54904 68.35
v 25.1701 -3.41953 68.35
v 24.454 -3.18371 68.35
v 25.3805 -3.27652 68.35
v 25.5816 -3.12058 68.35
v 25.7724 -2.95232 68.35
v 25.95 -2.77474 68.35
v 25.9444 -1.89224 68.35
v 25.95 -1.87313 68.35
v 61 -32.575 43.2
v 61 -27.575 43.2
v 62.1111 -27.575 43.2
v 61 -27.575 46.2
v 61 -29.575 51.2
v 61 -29.575 53
v 61 -28.575 51.2
v 61 -28.575 53
v 61 -27.575 51.2
v 61 -20 43.2
v 61 -19 43.2
v 61 -20 46.2
v 61 -20 51.2
v 61 -20 53.35
v 61 -32.575 56.6
v 61 -28.575 56.6
v 61 -28.575 74.2
v 61 -13 38.008
v 61 -12.5398 37.9607
v 61 -10.3715 40.3687
v 61 -13 43.2
v 61 -7.75 42.2734
v 61 -6.55447 43.2
v 61 -4.78976 43.5914
v 61 -4.94427 43.9169
v 61 -1.67246 44.6124
v 61 -1.62019 44.2651
v 32.1533 -16.6498 58.35
v 33.1807 -16.0422 58.35
v 34.1679 -15.3713 58.35
v 35.1111 -14.6398 58.35
v 36.0064 -13.8504 58.35
v 32.1533 -16.6498 60.85
v 33.1807 -16.0422 60.85
v 34.1091 -15.2904 60.85
v 34.1679 -15.3713 60.85
v 35.1111 -14.6398 60.85
v 35.3227 -14.4087 60.85
v 33.2049 -14.0458 63.35
v 32.7226 -13.382 64.6833
v 36.0064 -13.8504 60.85
v 36.8504 -13.0064 58.35
v 37.6398 -12.1111 58.35
v 38.3713 -11.1679 58.35
v 39.0422 -10.1807 58.35
v 39.6498 -9.15332 58.35
v 32.9819 -11.1869 60.85
v 33.9361 -12.5003 62.0167
v 32.9819 -11.1869 63.3357
v 34.4184 -13.1641 63.35
v 33.2682 -10.9345 60.85
v 33.9345 -10.2682 60.85
v 34.5577 -9.56136 60.85
v 36.8504 -13.0064 60.85
v 37.6398 -12.1111 60.85
v 38.3713 -11.1679 60.85
v 38.2904 -11.1091 60.85
v 39.0422 -10.1807 60.85
v 39.1721 -9.89562 60.85
v 39.6498 -9.15332 60.85
v 37.0458 -10.2049 63.35
v 36.382 -9.72257 64.6833
v 37.9275 -8.99133 63.35
v 32.1533 -16.6498 65.85
v 33.1807 -16.0422 65.85
v 32.1533 -16.6498 68.35
v 33.1807 -16.0422 68.35
v 34.1091 -15.2904 65.85
v 34.1679 -15.3713 65.85
v 35.1111 -14.6398 65.85
v 35.3227 -14.4087 65.85
v 34.1679 -15.3713 68.35
v 35.1111 -14.6398 68.35
v 36.0064 -13.8504 65.85
v 36.0064 -13.8504 68.35
v 32.9819 -11.1869 65.85
v 33.2682 -10.9345 65.85
v 33.9345 -10.2682 65.85
v 34.5577 -9.56136 65.85
v 36.8504 -13.0064 65.85
v 37.6398 -12.1111 65.85
v 38.3713 -11.1679 65.85
v 36.8504 -13.0064 68.35
v 37.6398 -12.1111 68.35
v 38.3713 -11.1679 68.35
v 38.2904 -11.1091 65.85
v 39.0422 -10.1807 65.85
v 39.1721 -9.89562 65.85
v 39.6498 -9.15332 65.85
v 39.0422 -10.1807 68.35
v 39.6498 -9.15332 68.35
v 35.1353 -8.81678 60.85
v 37.2636 -8.50905 62.0167
v 35.9503 -7.55484 60.85
v 36.1446 -7.22631 60.85
v 35.9503 -7.55484 63.3357
v 36.5724 -6.38669 60.85
v 36.9466 -5.52187 60.85
v 37.2658 -4.63525 60.85
v 39.5118 -5.36501 63.35
v 38.7315 -5.11146 64.6833
v 37.651 -3.18322 60.85
v 37.7343 -2.81072 60.85
v 39.195 -3.68487 62.0167
v 37.651 -3.18322 63.3357
v 37.8817 -1.88 60.85
v 37.9704 -0.941858 60.85
v 40.1917 -8.08981 58.35
v 40.6658 -6.99437 58.35
v 41.0701 -5.87132 58.35
v 41.4031 -4.72511 58.35
v 40.1917 -8.08981 60.85
v 40.6658 -6.99437 60.85
v 41.0701 -5.87132 60.85
v 40.975 -5.84042 60.85
v 41.4031 -4.72511 60.85
v 41.6635 -3.56024 58.35
v 41.8502 -2.38133 58.35
v 41.9625 -1.19302 58.35
v 41.4385 -4.41384 60.85
v 41.6635 -3.56024 60.85
v 41.8502 -2.38133 60.85
v 39.9753 -3.93843 63.35
v 41.9625 -1.19302 60.85
v 35.1353 -8.81678 65.7789
v 35.1353 -8.81678 65.85
v 35.9503 -7.55484 65.85
v 36.1446 -7.22631 65.85
v 36.5724 -6.38669 65.85
v 36.9466 -5.52187 65.85
v 37.2658 -4.63525 65.7789
v 37.2658 -4.63525 65.85
v 37.651 -3.18322 65.85
v 37.7343 -2.81072 65.85
v 37.8817 -1.88 65.85
v 37.9704 -0.941858 65.85
v 40.1917 -8.08981 65.85
v 40.6658 -6.99437 65.85
v 40.1917 -8.08981 68.35
v 40.6658 -6.99437 68.35
v 41.0701 -5.87132 65.85
v 40.975 -5.84042 65.85
v 41.4031 -4.72511 65.85
v 41.0701 -5.87132 68.35
v 41.4031 -4.72511 68.35
v 41.4385 -4.41384 65.85
v 41.6635 -3.56024 65.85
v 41.8502 -2.38133 65.85
v 41.6635 -3.56024 68.35
v 41.8502 -2.38133 68.35
v 41.9625 -1.19302 65.85
v 41.9625 -1.19302 68.35
v 3 13 11.2
v 3 13 18.2
v 3 19 11.2
v 3 19 18.2
v 3 20 18.35
v 0 35.575 8.2
v 0 35.575 11.2
v 35.4 4.56111 8.2
v 35.45 4.82 8.2
v 35.4 9.7 3.25
v 35.45 10 3
v 35.4 9.7 4.45
v 35.45 10 4.5
v 60 1.62019 13.4349
v 60 4.78976 14.1086
v 60 7.75 15.4266
v 63.7469 11.8807 6
v 63.3067 12.1227 6
v 62.5341 12.7618 6
v 62.2139 13.1489 6
v 62.456 12.8475 6
v 62.4729 12.8358 6
v 62.4433 12.8716 6
v 62.9003 12.4179 6
v 62.456 12.8475 8.2
v 63.6974 14.5365 0
v 63.5904 14.7638 0
v 63.5128 15.0026 0
v 63.4658 15.2493 0
v 63.45 15.5 0
v 63.6974 14.5365 3
v 63.5904 14.7638 3
v 63.5128 15.0026 3
v 63.4658 15.2493 3
v 63.45 15.5 3
v 63.4658 15.7507 0
v 63.5128 15.9974 0
v 63.5904 16.2362 0
v 63.6974 16.4635 0
v 63.4658 15.7507 3
v 63.5128 15.9974 3
v 63.5904 16.2362 3
v 63.6974 16.4635 3
v 61.7309 14.0275 6
v 61.5757 14.5052 6
v 61.5698 14.5359 6
v 61.5662 14.5427 6
v 61.5662 14.5547 6
v 61.4815 14.9987 6
v 61.45 15.5 6
v 61.9448 13.573 6
v 61.5662 14.5427 8.2
v 61.4815 16.0013 6
v 61.5662 16.4453 6
v 61.5662 16.4573 6
v 61.5698 16.4641 6
v 61.5757 16.4948 6
v 61.7309 16.9725 6
v 61.9448 17.427 6
v 61.5662 16.4573 8.2
v 61 13 11.2
v 60 10.3715 17.3313
v 60 11.2888 18.35
v 61 11.2888 18.35
v 61 13 18.2
v 61 13 18.35
v 61 13 19.392
v 61 12.5398 19.7393
v 61 14.16 22.5456
v 61 14.6167 22.1922
v 61 15.1613 25.6274
v 61 15.6504 25.3734
v 61 15.5 28.85
v 61 15.1613 32.0726
v 61 16 28.7
v 61 15.6504 32.0266
v 61 14.16 35.1544
v 61 14.6167 35.2078
v 35.45 22.5 0
v 35.45 22.5 8.2
v 62.2139 17.8511 6
v 62.4433 18.1284 6
v 62.456 18.1525 6
v 62.4729 18.1642 6
v 62.5341 18.2382 6
v 62.9003 18.5821 6
v 63.3067 18.8773 6
v 63.7469 19.1193 6
v 62.456 18.1525 8.2
v 61 19 11.2
v 61 19 18.2
v 61 19 18.35
v 61 20 18.35
v 19.6418 0.986064 53.35
v 20.708 2.64512 53.35
v 22.5019 3.46438 53.35
v 26.5 0 53.35
v 25.9444 1.89224 53.35
v 24.454 3.18371 53.35
v 4 0 58.35
v 4.03749 1.19302 58.35
v 4.14982 2.38133 58.35
v 4.33654 3.56024 58.35
v 4 0 60.85
v 4.1 0 60.85
v 4.03749 1.19302 60.85
v 5.63846 0 63.35
v 6.45897 0 64.6833
v 4.14982 2.38133 60.85
v 4.33654 3.56024 60.85
v 4.56151 4.41384 60.85
v 6.80502 3.68487 62.0167
v 6.02467 3.93843 63.35
v 4.59692 4.72511 58.35
v 4.92993 5.87132 58.35
v 5.33425 6.99437 58.35
v 5.80829 8.08981 58.35
v 4.59692 4.72511 60.85
v 4.92993 5.87132 60.85
v 5.02503 5.84042 60.85
v 6.4882 5.36501 63.35
v 7.26855 5.11146 64.6833
v 5.33425 6.99437 60.85
v 5.80829 8.08981 60.85
v 8 0 60.85
v 8.0296 0.941858 60.85
v 8.11828 1.88 60.85
v 8.26569 2.81072 60.85
v 8.34895 3.18322 60.85
v 8.34895 3.18322 63.3357
v 8.73415 4.63525 60.85
v 9.05335 5.52187 60.85
v 9.42759 6.38669 60.85
v 9.8554 7.22631 60.85
v 8.73635 8.50905 62.0167
v 10.0497 7.55484 60.85
v 10.8647 8.81678 60.85
v 10.0497 7.55484 63.3357
v 4 0 65.85
v 4.1 0 65.85
v 4.03749 1.19302 65.85
v 4 0 68.35
v 4.03749 1.19302 68.35
v 4.14982 2.38133 65.85
v 4.33654 3.56024 65.85
v 4.56151 4.41384 65.85
v 4.14982 2.38133 68.35
v 4.33654 3.56024 68.35
v 4.59692 4.72511 65.85
v 4.92993 5.87132 65.85
v 5.02503 5.84042 65.85
v 4.59692 4.72511 68.35
v 4.92993 5.87132 68.35
v 5.33425 6.99437 65.85
v 5.80829 8.08981 65.85
v 5.33425 6.99437 68.35
v 5.80829 8.08981 68.35
v 8 0 65.7789
v 8 0 65.85
v 8.0296 0.941858 65.85
v 8.11828 1.88 65.85
v 8.26569 2.81072 65.85
v 8.34895 3.18322 65.85
v 8.73415 4.63525 65.7789
v 8.73415 4.63525 65.85
v 9.05335 5.52187 65.85
v 9.42759 6.38669 65.85
v 9.8554 7.22631 65.85
v 10.0497 7.55484 65.85
v 10.8647 8.81678 65.7789
v 10.8647 8.81678 65.85
v 6.35017 9.15332 58.35
v 6.95777 10.1807 58.35
v 7.62868 11.1679 58.35
v 6.35017 9.15332 60.85
v 6.8279 9.89562 60.85
v 6.95777 10.1807 60.85
v 7.70958 11.1091 60.85
v 7.62868 11.1679 60.85
v 8.36025 12.1111 58.35
v 9.1496 13.0064 58.35
v 11.4423 9.56136 60.85
v 8.07254 8.99133 63.35
v 9.61803 9.72257 64.6833
v 8.95422 10.2049 63.35
v 8.36025 12.1111 60.85
v 9.1496 13.0064 60.85
v 11.5816 13.1641 63.35
v 12.0655 10.2682 60.85
v 12.7318 10.9345 60.85
v 13.0181 11.1869 60.85
v 12.0639 12.5003 62.0167
v 14.1832 12.1353 60.85
v 14.9626 12.6649 60.85
v 15.7737 13.1446 60.85
v 13.0181 11.1869 63.3357
v 9.9936 13.8504 58.35
v 10.8889 14.6398 58.35
v 11.8321 15.3713 58.35
v 12.8193 16.0422 58.35
v 13.8467 16.6498 58.35
v 14.9102 17.1917 58.35
v 9.9936 13.8504 60.85
v 10.6773 14.4087 60.85
v 10.8889 14.6398 60.85
v 11.8909 15.2904 60.85
v 11.8321 15.3713 60.85
v 12.7951 14.0458 63.35
v 13.2774 13.382 64.6833
v 12.8193 16.0422 60.85
v 13.8467 16.6498 60.85
v 14.9102 17.1917 60.85
v 15.733 17.5114 60.85
v 6.35017 9.15332 65.85
v 6.8279 9.89562 65.85
v 6.95777 10.1807 65.85
v 7.70958 11.1091 65.85
v 6.35017 9.15332 68.35
v 6.95777 10.1807 68.35
v 7.62868 11.1679 65.85
v 7.62868 11.1679 68.35
v 11.4423 9.56136 65.85
v 8.36025 12.1111 65.85
v 9.1496 13.0064 65.85
v 8.36025 12.1111 68.35
v 9.1496 13.0064 68.35
v 12.0655 10.2682 65.85
v 12.7318 10.9345 65.85
v 13.0181 11.1869 65.85
v 14.1832 12.1353 65.7789
v 14.1832 12.1353 65.85
v 14.9626 12.6649 65.85
v 15.7737 13.1446 65.85
v 9.9936 13.8504 65.85
v 10.6773 14.4087 65.85
v 10.8889 14.6398 65.85
v 11.8909 15.2904 65.85
v 11.8321 15.3713 65.85
v 9.9936 13.8504 68.35
v 10.8889 14.6398 68.35
v 11.8321 15.3713 68.35
v 12.8193 16.0422 65.85
v 13.8467 16.6498 65.85
v 14.9102 17.1917 65.85
v 15.733 17.5114 65.85
v 12.8193 16.0422 68.35
v 13.8467 16.6498 68.35
v 14.9102 17.1917 68.35
v 18.95 0 58.35
v 18.958 0.254302 58.35
v 18.9819 0.5076 58.35
v 19.0217 0.758894 58.35
v 19.0772 1.00719 58.35
v 19.1482 1.25152 58.35
v 19.2344 1.4909 58.35
v 19.3355 1.72441 58.35
v 19.451 1.9511 58.35
v 19.5805 2.1701 58.35
v 19.7235 2.38053 58.35
v 19.8794 2.58157 58.35
v 20.0477 2.77242 58.35
v 20.2276 2.95232 58.35
v 20.4184 3.12058 58.35
v 20.6195 3.27652 58.35
v 20.8299 3.41953 58.35
v 21.0489 3.54904 58.35
v 21.2756 3.66455 58.35
v 21.5091 3.76559 58.35
v 21.7485 3.85178 58.35
v 21.9928 3.92276 58.35
v 22.2411 3.97826 58.35
v 22.4924 4.01806 58.35
v 22.7457 4.04201 58.35
v 23 4.05 58.35
v 23.2543 4.04201 58.35
v 23.5076 4.01806 58.35
v 23.7589 3.97826 58.35
v 26.5 0 58.35
v 25.95 1.87313 58.35
v 25.3805 3.27652 58.35
v 25.7724 2.95232 58.35
v 25.5816 3.12058 58.35
v 24.2515 3.85178 58.35
v 24.4909 3.76559 58.35
v 24.7244 3.66455 58.35
v 24.0072 3.92276 58.35
v 24.9511 3.54904 58.35
v 25.1701 3.41953 58.35
v 25.95 2.77474 58.35
v 18.95 0 68.35
v 18.958 0.254302 68.35
v 18.9819 0.5076 68.35
v 19.0217 0.758894 68.35
v 19.0772 1.00719 68.35
v 19.6418 0.986064 68.35
v 19.1482 1.25152 68.35
v 19.2344 1.4909 68.35
v 19.3355 1.72441 68.35
v 19.451 1.9511 68.35
v 19.5805 2.1701 68.35
v 19.7235 2.38053 68.35
v 19.8794 2.58157 68.35
v 20.0477 2.77242 68.35
v 20.708 2.64512 68.35
v 20.2276 2.95232 68.35
v 20.4184 3.12058 68.35
v 20.6195 3.27652 68.35
v 20.8299 3.41953 68.35
v 21.0489 3.54904 68.35
v 21.2756 3.66455 68.35
v 21.5091 3.76559 68.35
v 21.7485 3.85178 68.35
v 22.5019 3.46438 68.35
v 21.9928 3.92276 68.35
v 22.2411 3.97826 68.35
v 22.4924 4.01806 68.35
v 22.7457 4.04201 68.35
v 23 4.05 68.35
v 23.2543 4.04201 68.35
v 23.5076 4.01806 68.35
v 23.7589 3.97826 68.35
v 25.95 1.87313 68.35
v 25.9444 1.89224 68.35
v 24.454 3.18371 68.35
v 25.3805 3.27652 68.35
v 25.7724 2.95232 68.35
v 25.5816 3.12058 68.35
v 24.2515 3.85178 68.35
v 24.4909 3.76559 68.35
v 24.7244 3.66455 68.35
v 24.0072 3.92276 68.35
v 24.9511 3.54904 68.35
v 25.1701 3.41953 68.35
v 25.95 2.77474 68.35
v 16.0056 17.6658 58.35
v 16.6133 13.5724 60.85
v 16.9636 13.724 60.85
v 16.462 15.2679 62.0167
v 18.3647 14.2658 60.85
v 19.2697 14.5287 60.85
v 16.9636 13.724 63.3357
v 16.0056 17.6658 60.85
v 16.2084 16.0483 63.35
v 17.635 16.5118 63.35
v 17.8885 15.7315 64.6833
v 20.1893 14.7343 60.85
v 21.12 14.8817 60.85
v 21.5 14.9176 60.85
v 23 15 60.85
v 21.5 14.9176 63.3357
v 21.5 16.541 62.0167
v 21.5 17.3615 63.35
v 23 16.541 64.6833
v 23 17.3615 63.35
v 31.8168 12.1353 60.85
v 30.2263 13.1446 60.85
v 30.5548 12.9503 60.85
v 30.5548 12.9503 63.3357
v 29.9944 17.6658 58.35
v 31.0898 17.1917 58.35
v 23.9419 14.9704 60.85
v 24.88 14.8817 60.85
v 25.8107 14.7343 60.85
v 27.6353 14.2658 60.85
v 26.1832 14.651 60.85
v 26.1832 14.651 63.3357
v 26.6849 16.195 62.0167
v 26.9384 16.9753 63.35
v 28.5219 13.9466 60.85
v 29.3867 13.5724 60.85
v 31.509 14.2636 62.0167
v 29.9944 17.6658 60.85
v 31.0898 17.1917 60.85
v 28.365 16.5118 63.35
v 28.1115 15.7315 64.6833
v 16.6133 13.5724 65.85
v 16.9636 13.724 65.85
v 18.3647 14.2658 65.7789
v 18.3647 14.2658 65.85
v 19.2697 14.5287 65.85
v 16.0056 17.6658 65.85
v 16.0056 17.6658 68.35
v 20.1893 14.7343 65.85
v 21.12 14.8817 65.85
v 21.5 14.9176 65.85
v 23 15 65.7789
v 23 15 65.85
v 31.8168 12.1353 65.7789
v 31.8168 12.1353 65.85
v 30.2263 13.1446 65.85
v 30.5548 12.9503 65.85
v 23.9419 14.9704 65.85
v 24.88 14.8817 65.85
v 25.8107 14.7343 65.85
v 27.6353 14.2658 65.7789
v 27.6353 14.2658 65.85
v 26.1832 14.651 65.85
v 28.5219 13.9466 65.85
v 29.3867 13.5724 65.85
v 29.9944 17.6658 65.85
v 31.0898 17.1917 65.85
v 29.9944 17.6658 68.35
v 31.0898 17.1917 68.35
v 3 20 53.35
v 17.1287 18.0701 58.35
v 18.2749 18.4031 58.35
v 19.4398 18.6635 58.35
v 20.6187 18.8502 58.35
v 21.807 18.9625 58.35
v 23 19 58.35
v 17.1596 17.975 60.85
v 17.1287 18.0701 60.85
v 18.2749 18.4031 60.85
v 19.4398 18.6635 60.85
v 20.6187 18.8502 60.85
v 21.5 18.9 60.85
v 21.807 18.9625 60.85
v 23 18.9 60.85
v 23 19 60.85
v 25.3813 18.8502 58.35
v 24.193 18.9625 58.35
v 26.5602 18.6635 58.35
v 27.7251 18.4031 58.35
v 28.8713 18.0701 58.35
v 25.3813 18.8502 60.85
v 24.193 18.9625 60.85
v 26.5602 18.6635 60.85
v 27.4138 18.4385 60.85
v 27.7251 18.4031 60.85
v 28.8404 17.975 60.85
v 28.8713 18.0701 60.85
v 17.1596 17.975 65.85
v 17.1287 18.0701 65.85
v 18.2749 18.4031 65.85
v 19.4398 18.6635 65.85
v 17.1287 18.0701 68.35
v 18.2749 18.4031 68.35
v 19.4398 18.6635 68.35
v 20.6187 18.8502 65.85
v 21.5 18.9 65.85
v 21.807 18.9625 65.85
v 23 18.9 65.85
v 23 19 65.85
v 20.6187 18.8502 68.35
v 21.807 18.9625 68.35
v 23 19 68.35
v 25.3813 18.8502 65.85
v 24.193 18.9625 65.85
v 26.5602 18.6635 65.85
v 27.4138 18.4385 65.85
v 27.7251 18.4031 65.85
v 25.3813 18.8502 68.35
v 24.193 18.9625 68.35
v 26.5602 18.6635 68.35
v 27.7251 18.4031 68.35
v 28.8404 17.975 65.85
v 28.8713 18.0701 65.85
v 28.8713 18.0701 68.35
v 61 1.62019 44.2651
v 61 1.67246 44.6124
v 61 4.78976 43.5914
v 61 4.94427 43.9169
v 61 6.55447 43.2
v 61 7.75 42.2734
v 61 10.3715 40.3687
v 61 12.5398 37.9607
v 61 13 38.008
v 61 13 43.2
v 38 0 60.85
v 37.9176 1.5 60.85
v 37.8817 1.88 60.85
v 39.541 1.5 62.0167
v 39.541 0 64.6833
v 37.9176 1.5 63.3357
v 37.7343 2.81072 60.85
v 37.5287 3.73035 60.85
v 35.6649 8.0374 60.85
v 35.1353 8.81678 60.85
v 37.2658 4.63525 60.85
v 36.724 6.03639 60.85
v 36.5724 6.38669 60.85
v 38.2679 6.53804 62.0167
v 36.724 6.03639 63.3357
v 39.5118 5.36501 63.35
v 38.7315 5.11146 64.6833
v 36.1446 7.22631 60.85
v 39.0483 6.7916 63.35
v 42 0 58.35
v 41.9625 1.19302 58.35
v 41.6635 3.56024 58.35
v 41.8502 2.38133 58.35
v 41.9 0 60.85
v 42 0 60.85
v 41.9625 1.19302 60.85
v 41.9 1.5 60.85
v 40.3615 0 63.35
v 40.3615 1.5 63.35
v 41.6635 3.56024 60.85
v 41.8502 2.38133 60.85
v 41.4031 4.72511 58.35
v 41.0701 5.87132 58.35
v 40.6658 6.99437 58.35
v 40.1917 8.08981 58.35
v 41.4031 4.72511 60.85
v 40.975 5.84042 60.85
v 41.0701 5.87132 60.85
v 40.6658 6.99437 60.85
v 40.5114 7.26701 60.85
v 40.1917 8.08981 60.85
v 38 0 65.7789
v 38 0 65.85
v 37.9176 1.5 65.85
v 37.8817 1.88 65.85
v 37.7343 2.81072 65.85
v 37.5287 3.73035 65.85
v 35.6649 8.0374 65.85
v 35.1353 8.81678 65.7789
v 35.1353 8.81678 65.85
v 37.2658 4.63525 65.7789
v 37.2658 4.63525 65.85
v 36.724 6.03639 65.85
v 36.5724 6.38669 65.85
v 36.1446 7.22631 65.85
v 41.9 0 65.85
v 42 0 65.85
v 41.9625 1.19302 65.85
v 41.9 1.5 65.85
v 42 0 68.35
v 41.9625 1.19302 68.35
v 41.6635 3.56024 65.85
v 41.8502 2.38133 65.85
v 41.6635 3.56024 68.35
v 41.8502 2.38133 68.35
v 41.4031 4.72511 65.85
v 40.975 5.84042 65.85
v 41.0701 5.87132 65.85
v 41.4031 4.72511 68.35
v 41.0701 5.87132 68.35
v 40.6658 6.99437 65.85
v 40.5114 7.26701 65.85
v 40.1917 8.08981 65.85
v 40.6658 6.99437 68.35
v 40.1917 8.08981 68.35
v 39.6498 9.15332 58.35
v 39.0422 10.1807 58.35
v 37.6398 12.1111 58.35
v 36.8504 13.0064 58.35
v 38.3713 11.1679 58.35
v 33.2682 10.9345 60.85
v 34.1869 9.98189 60.85
v 33.9345 10.2682 60.85
v 35.5003 10.9361 62.0167
v 34.1869 9.98189 63.3357
v 32.5614 11.5577 60.85
v 39.6498 9.15332 60.85
v 38.2904 11.1091 60.85
v 39.0422 10.1807 60.85
v 36.382 9.72257 64.6833
v 37.0458 10.2049 63.35
v 37.6398 12.1111 60.85
v 36.8504 13.0064 60.85
v 37.4087 12.3227 60.85
v 38.3713 11.1679 60.85
v 36.1641 11.4184 63.35
v 34.1679 15.3713 58.35
v 35.1111 14.6398 58.35
v 32.1533 16.6498 58.35
v 33.1807 16.0422 58.35
v 36.0064 13.8504 58.35
v 34.1091 15.2904 60.85
v 34.1679 15.3713 60.85
v 35.1111 14.6398 60.85
v 33.2049 14.0458 63.35
v 32.7226 13.382 64.6833
v 31.9913 14.9275 63.35
v 32.1533 16.6498 60.85
v 33.1807 16.0422 60.85
v 32.8956 16.1721 60.85
v 36.0064 13.8504 60.85
v 33.2682 10.9345 65.85
v 34.1869 9.98189 65.85
v 33.9345 10.2682 65.85
v 32.5614 11.5577 65.85
v 39.6498 9.15332 65.85
v 38.2904 11.1091 65.85
v 39.0422 10.1807 65.85
v 39.6498 9.15332 68.35
v 39.0422 10.1807 68.35
v 37.6398 12.1111 65.85
v 36.8504 13.0064 65.85
v 37.4087 12.3227 65.85
v 38.3713 11.1679 65.85
v 37.6398 12.1111 68.35
v 36.8504 13.0064 68.35
v 38.3713 11.1679 68.35
v 34.1091 15.2904 65.85
v 34.1679 15.3713 65.85
v 35.1111 14.6398 65.85
v 34.1679 15.3713 68.35
v 35.1111 14.6398 68.35
v 32.1533 16.6498 65.85
v 33.1807 16.0422 65.85
v 32.8956 16.1721 65.85
v 32.1533 16.6498 68.35
v 33.1807 16.0422 68.35
v 36.0064 13.8504 65.85
v 36.0064 13.8504 68.35
v 61 19 43.2
v 61 20 43.2
v 61 20 46.2
v 61 20 51.2
v 61 20 53.35
v 61 27.575 43.2
v 61 28.575 43.2
v 61 27.575 46.2
v 61 32.575 43.2
v 61 27.575 51.2
v 61 28.575 51.2
v 61 28.575 53
v 61 29.575 51.2
v 61 29.575 53
v 61 28.575 56.6
v 61 32.575 56.6
v 61 28.575 74.2
v 64.0043 -19.2212 6
v 64.0316 -19.2401 6
v 64.0609 -19.2436 6
v 64.2139 -19.3042 6
v 64.7005 -19.4291 6
v 65.1988 -19.4921 6
v 65.7012 -19.4921 6
v 65.9002 -19.467 6
v 65.9321 -19.4708 6
v 65.9634 -19.459 6
v 66.1995 -19.4291 6
v 66.6861 -19.3042 6
v 67.1531 -19.1193 6
v 67.5933 -18.8773 6
v 67.6983 -18.801 6
v 67.7223 -18.7919 6
v 64.0316 -19.2401 8.2
v 65.9321 -19.4708 8.2
v 67.7223 -18.7919 8.2
v 67.7429 -18.7686 6
v 67.9997 -18.5821 6
v 68.3659 -18.2382 6
v 68.6861 -17.8511 6
v 95.45 -22.5 0
v 95.45 -22.5 8.2
v 64.5984 -17.3097 0
v 64.1752 -17.041 0
v 63.9921 -16.8691 0
v 64.3783 -17.1887 0
v 64.832 -17.4021 0
v 65.0752 -17.4646 0
v 65.3244 -17.4961 0
v 65.5756 -17.4961 0
v 63.832 -16.6756 0
v 65.8248 -17.4646 0
v 66.068 -17.4021 0
v 66.3016 -17.3097 0
v 66.5217 -17.1887 0
v 66.7248 -17.041 0
v 66.9079 -16.8691 0
v 67.068 -16.6756 0
v 67.2026 -16.4635 0
v 67.3096 -16.2362 0
v 67.3872 -15.9974 0
v 67.4342 -15.7507 0
v 64.5984 -17.3097 3
v 64.1752 -17.041 3
v 63.9921 -16.8691 3
v 64.3783 -17.1887 3
v 64.832 -17.4021 3
v 65.0752 -17.4646 3
v 65.3244 -17.4961 3
v 65.5756 -17.4961 3
v 63.832 -16.6756 3
v 65.8248 -17.4646 3
v 66.068 -17.4021 3
v 66.3016 -17.3097 3
v 66.5217 -17.1887 3
v 66.7248 -17.041 3
v 66.9079 -16.8691 3
v 67.068 -16.6756 3
v 67.2026 -16.4635 3
v 67.3096 -16.2362 3
v 67.3872 -15.9974 3
v 67.4342 -15.7507 3
v 63.832 -14.3244 0
v 63.9921 -14.1309 0
v 64.1752 -13.959 0
v 64.3783 -13.8113 0
v 64.5984 -13.6903 0
v 64.832 -13.5979 0
v 65.0752 -13.5354 0
v 65.3244 -13.5039 0
v 65.5756 -13.5039 0
v 67.45 -15.5 0
v 67.4342 -15.2493 0
v 67.2026 -14.5365 0
v 67.3872 -15.0026 0
v 67.3096 -14.7638 0
v 66.7248 -13.959 0
v 65.8248 -13.5354 0
v 66.068 -13.5979 0
v 66.3016 -13.6903 0
v 66.5217 -13.8113 0
v 67.068 -14.3244 0
v 66.9079 -14.1309 0
v 63.832 -14.3244 3
v 63.9921 -14.1309 3
v 64.1752 -13.959 3
v 64.3783 -13.8113 3
v 64.5984 -13.6903 3
v 64.832 -13.5979 3
v 65.0752 -13.5354 3
v 65.3244 -13.5039 3
v 65.5756 -13.5039 3
v 67.45 -15.5 3
v 67.4342 -15.2493 3
v 67.2026 -14.5365 3
v 67.3872 -15.0026 3
v 67.3096 -14.7638 3
v 66.7248 -13.959 3
v 65.8248 -13.5354 3
v 66.068 -13.5979 3
v 66.3016 -13.6903 3
v 66.5217 -13.8113 3
v 67.068 -14.3244 3
v 66.9079 -14.1309 3
v 68.9552 -17.427 6
v 68.9821 -17.3698 6
v 68.9918 -17.3589 6
v 68.9968 -17.3386 6
v 69.1691 -16.9725 6
v 69.3243 -16.4948 6
v 69.4185 -16.0013 6
v 68.9918 -17.3589 8.2
v 69.45 -15.5 6
v 69.4185 -14.9987 6
v 69.3243 -14.5052 6
v 69.1691 -14.0275 6
v 68.9968 -13.6614 6
v 68.9821 -13.6302 6
v 68.9918 -13.6411 6
v 68.9552 -13.573 6
v 69.45 -15.5 8.2
v 68.9918 -13.6411 8.2
v 64.0043 -11.7788 6
v 64.0316 -11.7599 6
v 64.0609 -11.7564 6
v 64.2139 -11.6958 6
v 64.7005 -11.5709 6
v 65.1988 -11.5079 6
v 65.7012 -11.5079 6
v 66.6861 -11.6958 6
v 65.9634 -11.541 6
v 65.9002 -11.533 6
v 65.9321 -11.5292 6
v 66.1995 -11.5709 6
v 67.1531 -11.8807 6
v 67.5933 -12.1227 6
v 67.6983 -12.199 6
v 67.7223 -12.2081 6
v 64.0316 -11.7599 8.2
v 65.9321 -11.5292 8.2
v 67.7223 -12.2081 8.2
v 68.6861 -13.1489 6
v 67.7429 -12.2314 6
v 67.9997 -12.4179 6
v 68.3659 -12.7618 6
v 92.1 -9.7 3.25
v 92.45 -10 3
v 92.1 -9.7 4.45
v 92.45 -10 4.5
v 92.1 -4.56111 8.2
v 92.45 -4.82 8.2
v 127.5 -35.575 8.2
v 127.5 -35.575 11.2
v 124.5 -19 11.2
v 118 -19 19.2
v 118 -19 24.2
v 124.5 -19 19.2
v 124.5 -19 24.2
v 117 -10.3715 17.3313
v 124.5 -13 11.2
v 117 -7.75 15.4266
v 117 -4.78976 14.1086
v 117 -1.62019 13.4349
v 117 -14.16 22.5456
v 118 -14.6167 22.1922
v 119 -15.6504 25.3734
v 118 -15.2691 24.2
v 119 -15.2691 24.2
v 117 -15.1613 25.6274
v 117 -12.5398 19.7393
v 118 -13 19.2
v 118 -13 19.392
v 119 -13 24.2
v 124.5 -13 19.2
v 124.5 -13 24.2
v 119 -16 28.7
v 119 -15.6504 32.0266
v 117 -15.5 28.85
v 117 -15.1613 32.0726
v 117 -14.16 35.1544
v 119 -14.6167 35.2078
v 69.75 -33.325 55.85
v 69.75 -32.575 56.3115
v 69.75 -32.575 56.6
v 69.75 -32.1062 56.6
v 69.75 -28.575 58.7731
v 72.75 -33.325 55.85
v 72.75 -32.575 56.3115
v 72.75 -32.575 56.6
v 72.75 -32.1062 56.6
v 72.75 -28.575 58.7731
v 69.75 -33.325 67.85
v 69.75 -33.325 69.35
v 69.75 -28.575 69.35
v 72.75 -33.325 67.85
v 72.75 -28.575 67.85
v 90.75 -33.325 55.85
v 90.75 -32.575 56.3115
v 90.75 -32.575 56.6
v 90.75 -32.1062 56.6
v 93.75 -33.325 55.85
v 93.75 -32.575 56.3115
v 93.75 -32.575 56.6
v 93.75 -32.1062 56.6
v 90.75 -28.575 58.7731
v 93.75 -28.575 58.7731
v 90.75 -33.325 67.85
v 93.75 -33.325 67.85
v 93.75 -33.325 69.35
v 90.75 -28.575 67.85
v 93.75 -28.575 69.35
v 111.8 -28.575 43.2
v 124.5 -32.575 43.2
v 124.5 -28.575 43.2
v 124.5 -27.575 43.2
v 124.5 -28.575 46.2
v 124.5 -28.325 46.2
v 124.5 -27.5877 46.2
v 124.5 -27.575 46.1475
v 124.5 -27.575 46.2
v 124.5 -29.575 51.2
v 124.5 -29.575 53
v 124.5 -28.575 51.2
v 124.5 -28.575 53
v 124.5 -27.575 51.2
v 124.5 -19 43.2
v 124.5 -32.575 56.6
v 124.5 -28.575 56.6
v 124.5 -28.575 74.2
v 117 -12.5398 37.9607
v 119 -13 38.008
v 117 -10.3715 40.3687
v 124.5 -13 43.2
v 117 -7.75 42.2734
v 117 -4.78976 43.5914
v 119 -6.55447 43.2
v 119 -4.94427 43.9169
v 117 -1.62019 44.2651
v 119 -1.67246 44.6124
v 64.7005 11.5709 6
v 64.0043 11.7788 6
v 64.0316 11.7599 6
v 64.0609 11.7564 6
v 64.2139 11.6958 6
v 65.1988 11.5079 6
v 65.7012 11.5079 6
v 65.9002 11.533 6
v 65.9321 11.5292 6
v 65.9634 11.541 6
v 66.1995 11.5709 6
v 66.6861 11.6958 6
v 67.1531 11.8807 6
v 67.5933 12.1227 6
v 67.6983 12.199 6
v 67.7223 12.2081 6
v 64.0316 11.7599 8.2
v 65.9321 11.5292 8.2
v 67.7223 12.2081 8.2
v 67.7429 12.2314 6
v 67.9997 12.4179 6
v 68.3659 12.7618 6
v 68.6861 13.1489 6
v 64.3783 13.8113 0
v 64.5984 13.6903 0
v 63.9921 14.1309 0
v 64.1752 13.959 0
v 63.832 14.3244 0
v 64.832 13.5979 0
v 65.0752 13.5354 0
v 65.3244 13.5039 0
v 65.5756 13.5039 0
v 65.8248 13.5354 0
v 66.068 13.5979 0
v 66.3016 13.6903 0
v 66.5217 13.8113 0
v 66.7248 13.959 0
v 66.9079 14.1309 0
v 67.068 14.3244 0
v 67.2026 14.5365 0
v 67.3096 14.7638 0
v 67.3872 15.0026 0
v 67.4342 15.2493 0
v 67.45 15.5 0
v 64.3783 13.8113 3
v 64.5984 13.6903 3
v 63.9921 14.1309 3
v 64.1752 13.959 3
v 63.832 14.3244 3
v 64.832 13.5979 3
v 65.0752 13.5354 3
v 65.3244 13.5039 3
v 65.5756 13.5039 3
v 65.8248 13.5354 3
v 66.068 13.5979 3
v 66.3016 13.6903 3
v 66.5217 13.8113 3
v 66.7248 13.959 3
v 66.9079 14.1309 3
v 67.068 14.3244 3
v 67.2026 14.5365 3
v 67.3096 14.7638 3
v 67.3872 15.0026 3
v 67.4342 15.2493 3
v 67.45 15.5 3
v 63.832 16.6756 0
v 63.9921 16.8691 0
v 64.1752 17.041 0
v 64.3783 17.1887 0
v 64.5984 17.3097 0
v 64.832 17.4021 0
v 65.0752 17.4646 0
v 65.3244 17.4961 0
v 65.5756 17.4961 0
v 67.4342 15.7507 0
v 67.3872 15.9974 0
v 67.2026 16.4635 0
v 67.068 16.6756 0
v 67.3096 16.2362 0
v 66.7248 17.041 0
v 66.5217 17.1887 0
v 65.8248 17.4646 0
v 66.068 17.4021 0
v 66.3016 17.3097 0
v 66.9079 16.8691 0
v 63.832 16.6756 3
v 63.9921 16.8691 3
v 64.1752 17.041 3
v 64.3783 17.1887 3
v 64.5984 17.3097 3
v 64.832 17.4021 3
v 65.0752 17.4646 3
v 65.3244 17.4961 3
v 65.5756 17.4961 3
v 67.4342 15.7507 3
v 67.3872 15.9974 3
v 67.2026 16.4635 3
v 67.068 16.6756 3
v 67.3096 16.2362 3
v 66.7248 17.041 3
v 66.5217 17.1887 3
v 65.8248 17.4646 3
v 66.068 17.4021 3
v 66.3016 17.3097 3
v 66.9079 16.8691 3
v 68.9552 13.573 6
v 68.9821 13.6302 6
v 68.9918 13.6411 6
v 68.9968 13.6614 6
v 69.1691 14.0275 6
v 69.3243 14.5052 6
v 69.4185 14.9987 6
v 69.45 15.5 6
v 68.9918 13.6411 8.2
v 69.45 15.5 8.2
v 69.4185 16.0013 6
v 69.3243 16.4948 6
v 69.1691 16.9725 6
v 68.9552 17.427 6
v 68.9968 17.3386 6
v 68.9918 17.3589 6
v 68.9821 17.3698 6
v 68.9918 17.3589 8.2
v 92.1 4.56111 8.2
v 92.45 4.82 8.2
v 92.1 9.7 3.25
v 92.45 10 3
v 92.1 9.7 4.45
v 92.45 10 4.5
v 64.0043 19.2212 6
v 64.0316 19.2401 6
v 64.0609 19.2436 6
v 64.2139 19.3042 6
v 64.7005 19.4291 6
v 65.1988 19.4921 6
v 65.7012 19.4921 6
v 67.5933 18.8773 6
v 67.7223 18.7919 6
v 67.6983 18.801 6
v 66.1995 19.4291 6
v 66.6861 19.3042 6
v 65.9002 19.467 6
v 65.9634 19.459 6
v 65.9321 19.4708 6
v 67.1531 19.1193 6
v 64.0316 19.2401 8.2
v 67.7223 18.7919 8.2
v 65.9321 19.4708 8.2
v 68.6861 17.8511 6
v 68.3659 18.2382 6
v 67.9997 18.5821 6
v 67.7429 18.7686 6
v 95.45 22.5 0
v 95.45 22.5 8.2
v 117 1.62019 13.4349
v 117 4.78976 14.1086
v 117 7.75 15.4266
v 117 10.3715 17.3313
v 124.5 13 11.2
v 117 12.5398 19.7393
v 119 13 19.392
v 117 14.16 22.5456
v 119 14.6167 22.1922
v 117 15.1613 25.6274
v 119 15.6504 25.3734
v 117 15.5 28.85
v 117 15.1613 32.0726
v 119 16 28.7
v 119 15.6504 32.0266
v 117 14.16 35.1544
v 119 14.6167 35.2078
v 124.5 19 11.2
v 127.5 35.575 8.2
v 127.5 35.575 11.2
v 73.7 28.575 43.2
v 117 1.62019 44.2651
v 119 1.67246 44.6124
v 117 4.78976 43.5914
v 119 4.94427 43.9169
v 119 6.55447 43.2
v 117 7.75 42.2734
v 117 10.3715 40.3687
v 117 12.5398 37.9607
v 119 13 38.008
v 124.5 13 43.2
v 124.5 19 43.2
v 124.5 27.575 43.2
v 124.5 28.575 43.2
v 124.5 27.575 46.2
v 124.5 32.575 43.2
v 124.5 27.575 51.2
v 124.5 28.575 51.2
v 124.5 28.575 53
v 124.5 28.575 54.8
v 124.5 29.575 51.2
v 124.5 29.575 53
v 124.5 27.575 56.6
v 124.5 28.575 56.6
v 124.5 32.575 56.6
v 124.5 28.575 74.2
f  4 20 456
f  4 456 458
f  20 22 457
f  20 457 456
f  4 76 20
f  4 661 76
f  20 76 22
f  76 75 22
f  76 77 75
f  78 77 76
f  78 76 79
f  79 76 80
f  76 81 80
f  76 612 81
f  76 613 612
f  83 82 86
f  90 88 84
f  83 85 82
f  85 84 82
f  85 90 84
f  77 86 75
f  87 86 77
f  87 83 86
f  91 89 88
f  90 91 88
f  91 93 89
f  93 92 89
f  93 465 92
f  465 464 92
f  4 460 94
f  295 95 101
f  295 101 296
f  95 96 103
f  95 103 101
f  96 105 103
f  96 97 105
f  97 107 105
f  99 98 106
f  97 99 107
f  99 106 107
f  98 100 108
f  98 108 106
f  100 110 115
f  100 115 108
f  101 104 102
f  103 105 104
f  101 103 104
f  102 104 300
f  106 108 109
f  108 116 109
f  108 115 116
f  109 315 306
f  306 315 133
f  110 117 115
f  110 111 117
f  111 118 117
f  111 112 118
f  112 113 119
f  112 119 118
f  113 114 120
f  113 120 119
f  114 312 322
f  114 322 120
f  115 117 116
f  109 116 315
f  119 120 121
f  120 323 121
f  122 123 124
f  335 122 127
f  122 124 128
f  124 125 126
f  123 300 125
f  123 125 124
f  125 131 126
f  124 126 129
f  335 127 336
f  122 128 127
f  124 129 128
f  126 135 129
f  131 130 134
f  126 131 135
f  130 133 132
f  132 133 137
f  133 138 137
f  130 132 136
f  132 137 142
f  131 134 135
f  130 136 134
f  132 142 136
f  137 138 139
f  133 315 138
f  137 139 143
f  139 140 144
f  140 141 145
f  137 143 142
f  139 144 143
f  140 145 144
f  141 147 146
f  146 147 353
f  141 146 148
f  146 353 356
f  141 148 145
f  146 356 148
f  4 94 1002
f  94 150 149
f  94 151 150
f  94 149 1002
f  94 460 152
f  94 152 151
f  153 695 876
f  154 180 157
f  154 157 158
f  154 158 155
f  156 155 160
f  155 158 160
f  157 258 158
f  163 170 182
f  162 168 161
f  161 168 167
f  163 161 167
f  163 167 170
f  164 171 162
f  162 171 168
f  164 165 173
f  164 173 171
f  166 174 165
f  165 174 173
f  295 296 166
f  166 296 174
f  168 169 186
f  172 169 168
f  172 168 171
f  172 171 173
f  174 192 173
f  296 192 174
f  169 178 176
f  172 178 169
f  172 175 178
f  169 176 193
f  172 173 192
f  172 192 175
f  296 191 192
f  175 192 194
f  176 178 206
f  176 206 177
f  175 226 178
f  175 194 226
f  179 183 180
f  179 182 183
f  163 182 179
f  180 183 157
f  182 181 183
f  157 183 181
f  157 181 159
f  182 186 181
f  159 181 184
f  181 185 184
f  170 167 186
f  170 186 182
f  168 186 167
f  169 196 186
f  159 184 187
f  159 187 255
f  157 159 258
f  159 255 256
f  181 186 185
f  186 196 189
f  185 186 189
f  184 200 187
f  187 200 188
f  187 188 255
f  184 185 223
f  185 189 223
f  188 284 255
f  169 190 195
f  169 193 190
f  169 195 196
f  190 193 227
f  190 224 195
f  192 191 194
f  176 177 193
f  177 227 193
f  190 228 224
f  190 227 228
f  195 224 229
f  191 226 194
f  191 225 226
f  195 230 196
f  196 230 189
f  195 229 230
f  197 200 220
f  197 220 198
f  197 202 199
f  197 267 200
f  197 199 267
f  201 199 203
f  197 198 202
f  203 199 202
f  207 218 204
f  205 209 204
f  205 204 218
f  205 230 206
f  207 204 208
f  207 210 221
f  204 209 208
f  207 208 210
f  211 205 206
f  212 211 206
f  212 213 211
f  211 215 205
f  211 213 216
f  212 335 214
f  214 217 213
f  335 336 214
f  212 214 213
f  212 225 335
f  215 209 205
f  211 216 215
f  213 217 216
f  336 217 214
f  212 206 178
f  177 206 228
f  212 178 226
f  212 226 225
f  219 220 218
f  207 219 218
f  219 222 220
f  207 221 219
f  200 218 220
f  184 218 200
f  205 218 230
f  184 223 218
f  219 221 222
f  220 222 198
f  200 267 285
f  188 200 285
f  218 223 230
f  189 230 223
f  188 285 284
f  206 229 224
f  206 224 228
f  177 228 227
f  206 230 229
f  231 237 232
f  231 235 237
f  156 235 231
f  156 160 235
f  232 239 233
f  232 237 239
f  233 241 234
f  233 239 241
f  235 236 237
f  236 239 237
f  160 158 258
f  235 258 236
f  160 258 235
f  236 242 238
f  236 240 239
f  236 238 240
f  236 258 242
f  240 238 243
f  240 259 261
f  240 243 259
f  238 272 243
f  243 244 259
f  272 244 243
f  234 248 245
f  234 241 248
f  231 232 715
f  245 248 249
f  245 249 246
f  154 155 772
f  156 771 155
f  156 231 770
f  233 234 713
f  234 245 712
f  232 233 714
f  246 249 251
f  246 251 247
f  245 246 701
f  246 247 700
f  247 251 702
f  247 702 698
f  239 264 241
f  241 264 248
f  248 264 249
f  239 240 264
f  240 261 262
f  240 262 263
f  240 263 264
f  249 250 251
f  249 264 250
f  250 252 253
f  250 704 251
f  250 703 704
f  250 253 703
f  253 705 703
f  250 264 252
f  252 264 265
f  253 738 705
f  252 294 253
f  252 265 294
f  163 796 161
f  162 161 797
f  164 162 798
f  164 799 165
f  295 166 933
f  166 165 800
f  159 257 258
f  159 256 254
f  159 254 257
f  255 286 256
f  254 256 283
f  254 283 287
f  255 284 286
f  283 256 286
f  242 258 260
f  257 260 258
f  254 287 257
f  242 288 238
f  242 260 288
f  257 287 260
f  259 244 289
f  179 180 779
f  154 778 180
f  163 179 795
f  259 291 261
f  261 292 262
f  259 289 291
f  261 291 292
f  262 292 293
f  262 293 263
f  263 265 264
f  263 293 265
f  201 266 267
f  266 268 267
f  267 268 272
f  266 270 268
f  201 267 199
f  201 269 266
f  238 288 267
f  266 269 270
f  201 203 269
f  238 267 272
f  268 271 272
f  268 274 271
f  271 275 273
f  272 290 244
f  268 270 274
f  271 274 275
f  271 280 272
f  271 273 280
f  272 280 290
f  273 278 276
f  273 276 280
f  276 277 280
f  276 279 277
f  291 280 292
f  290 280 291
f  273 275 278
f  276 278 279
f  270 751 274
f  269 754 270
f  203 202 816
f  198 222 819
f  198 817 202
f  203 755 269
f  277 281 280
f  253 294 280
f  277 282 281
f  253 280 738
f  280 281 738
f  281 740 737
f  292 280 293
f  280 294 293
f  277 279 282
f  274 750 275
f  275 746 278
f  278 745 279
f  281 282 740
f  279 741 282
f  267 286 285
f  267 283 286
f  267 287 283
f  284 285 286
f  267 288 287
f  260 287 288
f  244 290 289
f  210 824 221
f  210 208 837
f  209 838 208
f  215 839 209
f  215 216 844
f  217 845 216
f  336 846 217
f  289 290 291
f  221 823 222
f  265 293 294
f  97 382 99
f  99 384 98
f  98 388 100
f  100 390 110
f  296 101 301
f  101 102 301
f  102 298 304
f  104 105 303
f  102 300 298
f  104 297 300
f  104 303 297
f  123 299 298
f  123 298 300
f  297 339 300
f  296 301 191
f  102 302 301
f  102 304 302
f  301 337 191
f  301 302 338
f  297 303 305
f  304 340 302
f  301 338 337
f  302 341 338
f  298 299 304
f  297 305 339
f  304 299 340
f  302 340 341
f  105 107 303
f  107 106 309
f  107 309 308
f  107 308 303
f  106 310 309
f  106 109 310
f  109 306 311
f  109 311 310
f  306 133 307
f  306 307 311
f  303 308 305
f  308 309 343
f  309 310 344
f  310 311 345
f  308 339 305
f  308 342 339
f  308 343 342
f  309 344 343
f  310 346 344
f  310 345 346
f  307 345 311
f  96 368 97
f  98 384 385
f  98 385 386
f  98 386 387
f  98 387 388
f  100 388 389
f  100 389 390
f  110 390 391
f  191 337 225
f  110 395 111
f  111 401 112
f  312 313 324
f  312 324 322
f  313 474 479
f  313 479 324
f  116 117 316
f  116 316 314
f  117 118 317
f  116 314 315
f  117 317 316
f  118 318 317
f  118 119 318
f  119 121 319
f  119 319 318
f  121 320 319
f  314 347 315
f  314 316 321
f  316 317 321
f  317 318 349
f  318 319 350
f  319 320 351
f  314 321 347
f  317 347 321
f  317 348 347
f  317 349 348
f  318 350 349
f  320 327 351
f  319 352 350
f  319 351 352
f  120 322 323
f  121 323 326
f  121 326 325
f  121 325 320
f  323 328 326
f  322 324 323
f  323 324 329
f  325 147 327
f  325 326 147
f  323 329 328
f  324 330 329
f  328 329 331
f  329 330 331
f  324 332 330
f  324 333 332
f  325 327 320
f  326 328 358
f  328 331 358
f  330 358 331
f  330 359 358
f  330 360 359
f  110 391 392
f  110 392 393
f  330 332 360
f  332 333 361
f  333 334 362
f  332 361 360
f  333 363 361
f  333 362 363
f  335 338 122
f  122 338 123
f  123 341 299
f  125 342 131
f  300 339 125
f  125 339 342
f  335 337 338
f  335 225 337
f  123 338 341
f  299 341 340
f  131 344 130
f  131 342 343
f  131 343 344
f  130 346 133
f  307 133 346
f  130 344 346
f  307 346 345
f  129 135 423
f  135 134 416
f  134 136 427
f  136 142 430
f  134 425 419
f  134 426 425
f  134 427 426
f  136 428 427
f  136 430 428
f  142 431 430
f  142 432 431
f  142 433 432
f  315 347 138
f  138 348 139
f  138 347 348
f  139 348 349
f  139 349 140
f  140 352 141
f  140 349 350
f  140 350 352
f  327 352 351
f  142 143 434
f  143 144 441
f  141 352 147
f  147 354 353
f  326 354 147
f  147 352 327
f  326 358 354
f  353 354 355
f  353 355 357
f  355 510 512
f  354 361 355
f  353 357 356
f  355 512 357
f  354 358 359
f  354 359 360
f  355 363 510
f  354 360 361
f  355 361 363
f  142 434 433
f  97 383 381
f  97 364 383
f  97 365 364
f  96 370 369
f  96 371 370
f  96 372 371
f  96 366 368
f  97 367 365
f  97 368 367
f  96 369 366
f  295 1003 95
f  95 1004 96
f  96 373 372
f  96 374 373
f  96 847 374
f  97 380 382
f  99 382 375
f  99 375 377
f  97 381 380
f  99 376 378
f  99 377 376
f  99 378 379
f  99 379 384
f  150 151 429
f  151 152 440
f  150 412 149
f  365 367 406
f  364 365 404
f  368 366 405
f  368 407 367
f  366 369 408
f  369 370 409
f  370 371 410
f  372 411 371
f  372 373 413
f  373 374 414
f  374 847 888
f  149 412 893
f  377 375 415
f  378 376 416
f  377 417 376
f  378 418 379
f  384 379 419
f  381 383 423
f  381 421 380
f  382 380 420
f  382 422 375
f  364 403 383
f  384 425 385
f  385 426 386
f  386 427 387
f  387 428 388
f  388 430 389
f  389 431 390
f  390 432 391
f  391 433 392
f  150 429 424
f  151 440 429
f  150 424 412
f  110 393 394
f  110 394 395
f  111 395 396
f  111 396 397
f  111 397 398
f  111 398 399
f  111 399 400
f  111 400 401
f  112 401 402
f  112 402 876
f  112 1021 113
f  113 1022 114
f  114 957 312
f  312 958 313
f  313 1165 474
f  152 153 445
f  153 876 402
f  153 402 445
f  392 434 393
f  393 435 394
f  394 436 395
f  395 437 396
f  396 438 397
f  397 439 398
f  398 441 399
f  399 442 400
f  400 443 401
f  401 444 402
f  152 445 440
f  129 423 403
f  129 403 404
f  129 407 405
f  129 405 408
f  129 404 406
f  129 406 407
f  129 408 409
f  129 409 410
f  129 410 411
f  336 127 980
f  127 128 1034
f  128 129 1035
f  129 411 413
f  129 413 414
f  129 414 888
f  135 422 420
f  135 415 422
f  135 417 415
f  135 421 423
f  135 420 421
f  135 416 417
f  134 418 416
f  134 419 418
f  364 404 403
f  365 406 404
f  368 405 407
f  367 407 406
f  366 408 405
f  369 409 408
f  370 410 409
f  371 411 410
f  372 413 411
f  373 414 413
f  374 888 414
f  129 888 1035
f  375 422 415
f  384 419 425
f  376 417 416
f  377 415 417
f  378 416 418
f  379 418 419
f  380 421 420
f  381 423 421
f  382 420 422
f  383 403 423
f  385 425 426
f  386 426 427
f  387 427 428
f  388 428 430
f  389 430 431
f  390 431 432
f  391 432 433
f  424 429 902
f  424 893 412
f  429 440 911
f  143 435 434
f  143 436 435
f  143 437 436
f  143 438 437
f  143 439 438
f  143 441 439
f  144 442 441
f  144 443 442
f  144 444 443
f  144 145 1052
f  145 148 1053
f  148 356 1056
f  356 357 1000
f  357 512 1001
f  392 433 434
f  393 434 435
f  394 435 436
f  395 436 437
f  396 437 438
f  397 438 439
f  398 439 441
f  399 441 442
f  400 442 443
f  401 443 444
f  402 444 446
f  402 446 445
f  440 445 922
f  144 1052 444
f  445 446 920
f  4 458 459
f  4 459 460
f  152 460 153
f  153 460 695
f  695 460 696
f  696 460 697
f  465 466 464
f  466 467 464
f  466 468 467
f  468 469 467
f  468 470 469
f  470 471 469
f  470 473 471
f  473 472 471
f  473 1057 472
f  458 1208 459
f  474 475 480
f  474 480 479
f  475 476 482
f  475 482 480
f  476 483 482
f  476 477 483
f  477 478 487
f  477 487 483
f  478 488 487
f  324 479 481
f  479 480 481
f  480 482 481
f  324 481 333
f  333 481 334
f  481 485 334
f  482 484 481
f  482 483 484
f  483 487 484
f  481 484 496
f  481 496 485
f  494 496 484
f  485 514 486
f  485 496 514
f  488 500 487
f  488 489 500
f  500 489 501
f  489 490 501
f  490 502 501
f  490 491 502
f  491 504 502
f  491 492 504
f  492 506 504
f  494 493 495
f  484 487 493
f  494 484 493
f  487 503 493
f  485 486 334
f  494 522 496
f  486 362 334
f  494 495 522
f  493 497 495
f  497 498 523
f  493 503 497
f  497 503 498
f  498 503 499
f  498 499 524
f  499 538 525
f  497 522 495
f  497 523 522
f  498 524 523
f  499 525 524
f  525 538 571
f  508 571 538
f  487 500 503
f  500 501 503
f  501 502 503
f  503 507 538
f  503 509 507
f  499 503 538
f  503 502 505
f  502 504 505
f  504 506 505
f  503 505 509
f  509 505 539
f  507 509 532
f  508 507 532
f  508 538 507
f  511 514 515
f  510 511 513
f  511 515 518
f  510 513 512
f  511 518 513
f  510 363 511
f  511 363 514
f  486 514 363
f  515 514 516
f  514 517 516
f  515 516 519
f  496 517 514
f  516 517 520
f  516 520 521
f  515 519 518
f  516 521 519
f  520 526 521
f  486 363 362
f  517 522 523
f  496 522 517
f  517 572 520
f  517 523 524
f  517 524 525
f  517 525 572
f  508 572 571
f  525 571 572
f  526 527 529
f  520 572 526
f  526 572 527
f  527 532 528
f  527 528 530
f  526 529 521
f  529 527 530
f  528 531 530
f  527 572 532
f  508 532 572
f  532 533 528
f  532 534 533
f  528 533 531
f  509 534 532
f  533 534 535
f  533 535 536
f  531 533 536
f  535 537 536
f  474 1166 475
f  475 1163 476
f  476 1164 477
f  477 1167 478
f  492 554 506
f  478 1145 488
f  540 539 505
f  540 542 539
f  540 561 541
f  540 541 542
f  541 543 574
f  540 505 506
f  540 506 561
f  539 542 573
f  509 539 573
f  541 574 542
f  543 544 575
f  544 545 576
f  541 561 543
f  543 561 544
f  544 561 545
f  561 546 545
f  543 575 574
f  544 576 575
f  576 545 577
f  545 547 577
f  545 546 547
f  588 547 546
f  488 1144 489
f  489 1146 490
f  490 1143 491
f  491 1142 492
f  548 549 551
f  549 552 580
f  548 550 566
f  548 551 550
f  549 580 551
f  551 579 550
f  579 569 550
f  548 1090 549
f  549 1090 552
f  552 553 581
f  552 1090 553
f  553 1090 1067
f  553 1067 582
f  580 552 581
f  553 582 581
f  1067 1108 582
f  554 558 506
f  554 555 558
f  555 559 558
f  555 556 559
f  556 560 559
f  556 557 560
f  560 557 562
f  506 558 561
f  558 559 561
f  559 560 561
f  560 566 561
f  560 562 566
f  561 569 546
f  561 566 569
f  588 546 569
f  557 563 562
f  563 567 562
f  492 1101 554
f  554 1100 555
f  555 1099 556
f  563 564 567
f  564 568 567
f  556 1098 557
f  557 1088 563
f  563 1089 564
f  564 565 568
f  565 570 568
f  564 1087 565
f  565 1086 570
f  1086 1091 570
f  548 566 567
f  562 567 566
f  550 569 566
f  548 567 1090
f  567 568 1090
f  568 570 1090
f  512 513 1202
f  513 518 1203
f  518 519 1197
f  519 521 1198
f  509 573 534
f  573 574 534
f  574 575 534
f  542 574 573
f  575 576 534
f  576 578 534
f  534 578 535
f  535 583 537
f  535 578 583
f  577 547 578
f  576 577 578
f  583 578 584
f  584 578 588
f  588 578 547
f  551 580 579
f  579 592 569
f  579 580 592
f  580 581 592
f  581 582 592
f  521 529 1205
f  529 530 1192
f  530 531 1191
f  531 536 1193
f  536 537 1186
f  537 585 1185
f  582 1109 592
f  582 1108 1109
f  583 584 585
f  537 583 585
f  585 584 586
f  584 588 587
f  584 587 586
f  588 569 592
f  587 588 589
f  588 592 589
f  587 589 590
f  587 590 586
f  590 589 591
f  589 592 593
f  589 593 591
f  1109 593 592
f  593 594 595
f  591 593 595
f  585 586 1141
f  594 596 595
f  1109 594 593
f  1109 1122 594
f  594 597 596
f  594 1124 597
f  594 1122 1124
f  597 1123 598
f  586 590 1140
f  590 591 1136
f  591 595 1135
f  595 596 1130
f  596 597 598
f  598 1123 1126
f  596 598 1131
f  4 603 691
f  4 1002 603
f  603 1002 691
f  4 691 661
f  76 614 613
f  76 660 614
f  76 661 660
f  660 661 662
f  661 664 662
f  661 690 664
f  661 691 690
f  662 664 665
f  662 665 666
f  666 665 668
f  666 668 667
f  667 668 670
f  667 670 669
f  669 673 671
f  669 670 673
f  1064 675 1065
f  671 673 672
f  672 673 674
f  672 674 676
f  672 676 675
f  675 676 1065
f  691 1207 690
f  1207 1206 690
f  149 692 1002
f  692 693 1002
f  693 694 1002
f  694 697 1002
f  695 696 877
f  697 460 1002
f  247 698 699
f  247 699 700
f  698 702 704
f  698 704 699
f  246 700 701
f  245 701 712
f  234 712 713
f  699 704 707
f  699 707 700
f  233 713 714
f  232 714 715
f  700 707 708
f  700 708 701
f  701 716 712
f  701 708 716
f  231 715 770
f  156 770 771
f  155 771 772
f  154 772 778
f  251 704 702
f  703 705 723
f  703 707 704
f  703 708 707
f  703 723 724
f  703 724 725
f  703 725 726
f  703 726 727
f  705 738 706
f  705 706 723
f  706 756 723
f  703 727 708
f  708 709 716
f  708 727 709
f  709 710 711
f  709 727 710
f  727 728 710
f  711 710 761
f  728 761 710
f  712 717 713
f  712 716 717
f  713 721 714
f  713 717 721
f  714 722 715
f  714 721 722
f  715 773 770
f  715 722 773
f  709 717 716
f  709 718 717
f  709 711 718
f  711 719 718
f  717 718 721
f  729 730 718
f  729 718 719
f  718 730 731
f  711 749 719
f  729 719 720
f  719 749 720
f  718 722 721
f  718 773 722
f  718 734 773
f  734 774 773
f  180 778 779
f  723 758 724
f  724 759 725
f  723 756 758
f  724 758 759
f  725 759 760
f  725 760 726
f  726 728 727
f  726 760 728
f  179 779 795
f  163 795 796
f  161 796 797
f  162 797 798
f  164 798 799
f  165 799 800
f  166 800 933
f  729 764 730
f  718 731 732
f  730 765 731
f  729 720 762
f  729 762 764
f  730 764 765
f  731 765 766
f  718 732 734
f  731 766 732
f  734 733 774
f  734 736 733
f  732 736 734
f  732 766 736
f  733 767 781
f  733 736 767
f  281 737 739
f  281 742 738
f  281 739 742
f  738 742 757
f  737 741 739
f  757 742 743
f  739 745 742
f  706 738 757
f  706 757 756
f  757 744 758
f  737 740 741
f  282 741 740
f  279 745 741
f  278 746 745
f  739 741 745
f  275 750 746
f  274 751 750
f  270 754 751
f  757 743 744
f  742 746 743
f  743 747 744
f  743 750 747
f  758 744 759
f  744 760 759
f  711 761 744
f  744 761 760
f  742 745 746
f  269 755 754
f  743 746 750
f  203 816 755
f  202 817 816
f  198 819 817
f  744 747 749
f  747 748 749
f  711 744 749
f  747 751 748
f  748 752 749
f  748 754 752
f  763 720 749
f  763 749 752
f  763 752 753
f  747 750 751
f  748 751 754
f  752 755 753
f  763 753 812
f  763 812 813
f  753 816 812
f  752 754 755
f  753 755 816
f  756 757 758
f  728 760 761
f  222 823 819
f  221 824 823
f  210 837 824
f  762 720 763
f  762 763 764
f  208 838 837
f  209 839 838
f  763 813 764
f  764 813 765
f  765 813 766
f  766 813 767
f  767 813 781
f  736 766 767
f  215 844 839
f  216 845 844
f  217 846 845
f  336 980 846
f  770 775 771
f  770 773 775
f  771 775 777
f  771 777 772
f  772 777 784
f  773 774 775
f  733 781 774
f  774 781 776
f  774 777 775
f  774 776 777
f  776 784 777
f  772 784 778
f  778 785 779
f  778 784 785
f  779 785 801
f  781 783 776
f  783 735 776
f  776 735 780
f  735 820 780
f  776 780 787
f  776 787 788
f  776 788 789
f  780 825 787
f  783 782 735
f  781 815 783
f  783 815 782
f  782 768 735
f  735 768 820
f  780 820 825
f  776 785 784
f  776 801 785
f  776 789 801
f  789 790 802
f  801 789 802
f  788 794 789
f  787 826 788
f  788 827 794
f  787 825 826
f  788 826 827
f  789 794 790
f  791 828 792
f  792 830 793
f  794 827 790
f  827 786 790
f  807 791 806
f  807 828 791
f  792 828 829
f  792 829 830
f  793 830 831
f  779 801 795
f  795 801 796
f  796 801 803
f  796 803 797
f  797 803 805
f  797 805 798
f  805 808 798
f  798 808 799
f  799 808 809
f  799 809 800
f  800 809 810
f  800 810 933
f  933 810 940
f  801 802 803
f  790 786 802
f  786 804 802
f  802 805 803
f  802 804 805
f  804 791 792
f  786 806 804
f  804 806 791
f  804 792 810
f  792 793 810
f  793 934 810
f  786 835 806
f  807 806 835
f  804 808 805
f  804 809 808
f  804 810 809
f  935 811 810
f  810 811 940
f  812 814 813
f  781 813 815
f  812 817 814
f  813 814 815
f  814 818 815
f  814 819 818
f  812 816 817
f  814 817 819
f  815 818 821
f  818 819 823
f  782 815 769
f  815 821 769
f  782 769 768
f  768 769 820
f  769 833 820
f  821 822 769
f  818 823 821
f  821 824 822
f  822 832 769
f  820 833 825
f  825 833 826
f  832 833 769
f  827 833 786
f  821 823 824
f  822 824 837
f  826 833 827
f  807 829 828
f  822 837 832
f  832 834 833
f  786 833 835
f  832 837 834
f  833 834 835
f  834 836 835
f  834 838 836
f  837 838 834
f  836 838 839
f  807 835 829
f  835 840 829
f  829 840 841
f  829 842 830
f  830 843 831
f  829 841 842
f  835 836 840
f  836 839 840
f  840 844 841
f  830 842 843
f  842 979 843
f  841 845 842
f  842 846 979
f  839 844 840
f  844 845 841
f  842 845 846
f  846 980 979
f  96 1005 847
f  149 893 692
f  692 902 693
f  693 902 694
f  694 911 697
f  847 848 889
f  848 849 890
f  849 850 891
f  850 851 892
f  851 852 894
f  852 853 895
f  853 854 896
f  854 855 897
f  855 856 898
f  856 857 899
f  857 858 900
f  692 893 902
f  858 859 901
f  859 860 903
f  860 861 904
f  861 862 905
f  862 863 906
f  863 864 907
f  864 865 908
f  865 866 909
f  866 867 910
f  867 868 912
f  868 869 913
f  869 870 914
f  870 871 915
f  871 872 916
f  872 873 917
f  873 874 918
f  874 875 919
f  694 902 911
f  697 911 922
f  295 933 1003
f  95 1003 1004
f  96 1004 1005
f  847 1005 848
f  848 1005 849
f  849 1005 850
f  850 1005 851
f  851 1005 852
f  852 1005 853
f  853 1005 854
f  854 1005 855
f  855 1005 856
f  856 1005 857
f  857 1005 858
f  858 1005 859
f  859 1006 860
f  860 1006 861
f  861 1006 862
f  862 1006 863
f  863 1006 864
f  864 1006 865
f  865 1007 866
f  866 1007 867
f  695 877 876
f  112 876 1020
f  696 921 877
f  696 697 922
f  877 920 887
f  878 923 886
f  887 932 879
f  880 879 924
f  878 880 925
f  884 881 926
f  883 885 930
f  883 928 882
f  881 882 927
f  875 884 929
f  886 931 885
f  696 922 921
f  112 1020 1021
f  884 1018 881
f  881 1018 882
f  883 882 1018
f  886 885 1018
f  878 886 1018
f  883 1018 885
f  878 1020 880
f  876 877 1020
f  877 887 1020
f  887 879 1020
f  880 1020 879
f  113 1021 1022
f  114 1022 957
f  313 958 1165
f  312 957 958
f  847 889 888
f  848 890 889
f  849 891 890
f  850 892 891
f  851 894 892
f  852 895 894
f  853 896 895
f  854 897 896
f  855 898 897
f  856 899 898
f  857 900 899
f  424 902 893
f  429 911 902
f  440 922 911
f  858 901 900
f  859 903 901
f  860 904 903
f  861 905 904
f  862 906 905
f  863 907 906
f  864 908 907
f  865 909 908
f  866 910 909
f  867 912 910
f  868 913 912
f  869 914 913
f  870 915 914
f  871 916 915
f  872 917 916
f  873 918 917
f  874 919 918
f  875 929 919
f  127 1034 980
f  128 1035 1034
f  888 889 1035
f  889 890 1035
f  890 891 1035
f  891 892 1035
f  892 894 1035
f  894 895 1035
f  895 896 1035
f  896 897 1035
f  897 898 1036
f  898 899 1036
f  899 900 1036
f  900 901 1036
f  901 903 1036
f  903 904 1036
f  904 905 1036
f  905 906 1042
f  906 907 1042
f  907 908 1042
f  908 909 1042
f  909 910 1042
f  910 912 1042
f  877 921 920
f  445 921 922
f  445 920 921
f  879 932 924
f  880 924 925
f  878 925 923
f  881 927 926
f  882 928 927
f  883 930 928
f  884 926 929
f  885 931 930
f  886 923 931
f  887 920 932
f  444 1052 446
f  446 1052 920
f  145 1053 1052
f  926 927 1051
f  928 1051 927
f  925 924 1050
f  932 1050 924
f  931 1050 930
f  923 1050 931
f  928 930 1050
f  923 925 1050
f  920 1052 932
f  148 1056 1053
f  356 1000 1056
f  357 1001 1000
f  512 1202 1001
f  867 1007 868
f  868 1007 869
f  869 1007 870
f  870 1008 871
f  871 1008 872
f  872 1019 873
f  873 1019 874
f  874 1019 875
f  793 831 934
f  859 1005 1006
f  865 1006 1007
f  870 1007 1008
f  872 1008 1019
f  934 939 935
f  935 939 936
f  934 935 810
f  935 936 811
f  937 976 938
f  938 978 944
f  934 975 939
f  939 975 936
f  934 831 974
f  934 974 975
f  936 975 941
f  938 976 977
f  938 977 978
f  937 942 943
f  937 943 976
f  944 978 981
f  936 941 811
f  1009 942 937
f  811 1010 940
f  941 1009 811
f  941 942 1009
f  1009 937 938
f  938 944 1011
f  1009 938 1011
f  944 1012 1011
f  941 1030 942
f  1030 943 942
f  944 981 945
f  945 948 946
f  946 948 949
f  947 984 959
f  945 983 948
f  948 983 949
f  945 981 982
f  945 982 983
f  959 984 985
f  959 985 990
f  947 951 984
f  944 945 1012
f  945 946 1013
f  945 1013 1012
f  946 949 1014
f  946 1014 1013
f  949 950 1014
f  947 959 1016
f  959 1024 1016
f  947 1016 952
f  983 950 949
f  947 952 951
f  951 952 1040
f  875 1019 884
f  955 954 956
f  954 989 956
f  954 997 988
f  954 988 989
f  884 1019 1018
f  878 1018 1020
f  958 957 970
f  958 970 971
f  958 971 1165
f  971 1174 1165
f  959 990 960
f  960 991 961
f  961 964 963
f  963 964 965
f  990 991 960
f  961 991 992
f  961 995 964
f  964 995 965
f  961 992 995
f  962 973 993
f  959 960 1024
f  961 963 1023
f  960 961 1023
f  960 1023 1024
f  963 965 1026
f  963 1025 1023
f  963 1026 1025
f  965 966 1026
f  995 966 965
f  968 967 996
f  962 993 967
f  968 997 954
f  962 967 1028
f  968 954 970
f  968 1028 967
f  955 956 969
f  955 970 954
f  955 969 1176
f  955 1176 1174
f  967 993 994
f  967 994 996
f  968 996 997
f  962 972 973
f  956 989 969
f  989 1173 969
f  968 1029 1028
f  968 970 1029
f  962 1028 972
f  966 972 1028
f  955 971 970
f  955 1174 971
f  966 1054 972
f  973 972 1054
f  897 1036 1035
f  912 913 1043
f  913 914 1043
f  914 915 1043
f  915 916 1043
f  916 917 1044
f  917 918 1044
f  918 919 1051
f  831 843 974
f  974 843 975
f  976 943 977
f  975 843 941
f  1030 977 943
f  941 843 1030
f  843 979 1030
f  977 1033 978
f  978 1033 981
f  1030 1032 977
f  977 1032 1033
f  984 951 985
f  905 1042 1036
f  912 1043 1042
f  916 1044 1043
f  918 1051 1044
f  981 1037 982
f  982 1038 983
f  981 1033 1037
f  983 1038 950
f  982 1037 1038
f  985 1046 990
f  985 951 1040
f  985 1040 1046
f  919 929 1051
f  929 926 1051
f  993 973 994
f  928 1050 1051
f  932 1052 1050
f  990 1045 991
f  991 1045 992
f  990 1046 1045
f  992 1048 995
f  995 1048 966
f  992 1045 1048
f  994 1054 996
f  997 998 988
f  997 996 998
f  989 988 1201
f  989 1201 1173
f  994 973 1054
f  996 1054 1055
f  996 1055 998
f  988 998 1201
f  999 1201 998
f  999 998 1000
f  999 1001 1199
f  999 1000 1001
f  1001 1202 1199
f  933 940 1003
f  1003 940 1010
f  1003 1010 1004
f  1010 1011 1004
f  1004 1011 1005
f  1005 1012 1006
f  1005 1011 1012
f  1006 1012 1013
f  1006 1013 1007
f  1007 1013 1015
f  1007 1015 1008
f  1008 1015 1017
f  1008 1017 1019
f  1019 1017 1024
f  811 1009 1010
f  1009 1011 1010
f  1013 1014 1015
f  1016 950 952
f  1014 950 1016
f  1014 1017 1015
f  1014 1016 1017
f  1016 1024 1017
f  950 1040 952
f  1018 1023 1020
f  1018 1024 1023
f  1019 1024 1018
f  1020 1023 1025
f  1020 1025 1021
f  1021 1025 1027
f  1021 1027 1022
f  1022 1027 1029
f  1022 1029 957
f  957 1029 970
f  1025 1026 1027
f  966 1028 1026
f  1026 1029 1027
f  1026 1028 1029
f  979 1031 1030
f  1030 1031 1032
f  979 980 1031
f  1031 1034 1032
f  1032 1035 1033
f  1033 1036 1037
f  1031 980 1034
f  1034 1035 1032
f  1033 1035 1036
f  1037 1042 1039
f  1037 1039 1038
f  950 1038 1040
f  1038 1039 1040
f  1039 1041 1040
f  1040 1041 1046
f  1039 1043 1041
f  1041 1044 1046
f  1037 1036 1042
f  1042 1043 1039
f  1041 1043 1044
f  1046 1044 1051
f  1045 1050 1047
f  1046 1051 1045
f  1045 1047 1048
f  966 1048 1054
f  1047 1049 1048
f  1047 1052 1049
f  1051 1050 1045
f  1047 1050 1052
f  1049 1052 1053
f  1048 1049 1054
f  1049 1055 1054
f  1049 1053 1055
f  1055 1056 998
f  1053 1056 1055
f  998 1056 1000
f  1002 460 1210
f  1057 1058 472
f  1059 1060 1058
f  1057 1059 1058
f  1059 1061 1060
f  1062 1061 1059
f  1062 1063 1061
f  1208 1209 459
f  1063 1064 1066
f  1064 1065 1066
f  1063 1066 1061
f  478 1167 1145
f  488 1145 1144
f  492 1142 1101
f  491 1143 1142
f  489 1144 1146
f  490 1146 1143
f  1069 1073 1111
f  1068 1070 1093
f  1068 1069 1072
f  1068 1072 1070
f  1067 1094 1071
f  1067 1071 1108
f  1072 1110 1070
f  1072 1069 1111
f  1110 1095 1070
f  1073 1074 1112
f  1074 1077 1113
f  1068 1103 1069
f  1073 1103 1074
f  1069 1103 1073
f  1073 1112 1111
f  1074 1113 1112
f  1077 1117 1113
f  474 1165 1166
f  475 1166 1163
f  476 1163 1164
f  477 1164 1167
f  1107 1142 1153
f  1075 1076 1114
f  1075 1114 1121
f  1114 1076 1115
f  1078 1079 1081
f  1079 1084 1120
f  1078 1081 1080
f  1074 1103 1077
f  1077 1103 1082
f  1078 1080 1106
f  1077 1083 1117
f  1079 1120 1081
f  1080 1081 1119
f  1077 1082 1083
f  1082 1133 1083
f  1080 1119 1085
f  1084 1075 1121
f  1084 1154 1075
f  1078 1154 1079
f  1079 1154 1084
f  1078 1106 1107
f  1078 1107 1153
f  1080 1085 1106
f  1078 1153 1155
f  1084 1121 1120
f  563 1088 1089
f  555 1100 1099
f  556 1099 1098
f  557 1098 1088
f  565 1087 1086
f  564 1089 1087
f  1086 1087 1091
f  1087 1092 1091
f  1087 1089 1092
f  1092 1089 1097
f  554 1101 1100
f  1089 1088 1097
f  1088 1096 1097
f  1088 1098 1096
f  1098 1102 1096
f  1067 1090 1094
f  1090 1095 1094
f  1090 1093 1095
f  1068 1093 1097
f  1070 1095 1093
f  570 1093 1090
f  570 1091 1092
f  570 1092 1093
f  1092 1097 1093
f  1094 1122 1071
f  1094 1095 1122
f  1068 1097 1096
f  1068 1096 1102
f  1068 1102 1104
f  1068 1104 1103
f  1098 1099 1102
f  1099 1104 1102
f  1100 1105 1104
f  1099 1100 1104
f  1101 1105 1100
f  1101 1107 1105
f  1101 1142 1107
f  1103 1104 1106
f  1103 1085 1082
f  1103 1106 1085
f  1082 1085 1133
f  1104 1105 1106
f  1107 1106 1105
f  1108 1071 1109
f  1109 1071 1122
f  1072 1111 1110
f  1110 1111 1125
f  1125 1111 1112
f  1113 1117 1118
f  1125 1112 1113
f  1125 1113 1118
f  530 1191 1192
f  536 1186 1193
f  531 1193 1191
f  537 1185 1186
f  513 1203 1202
f  518 1197 1203
f  519 1198 1197
f  521 1205 1198
f  1114 1115 1116
f  1117 1083 1118
f  1081 1120 1119
f  1118 1083 1133
f  1119 1120 1138
f  529 1192 1205
f  1120 1121 1138
f  1121 1114 1138
f  1114 1116 1138
f  1119 1138 1085
f  1138 1184 1182
f  1141 1182 1185
f  1095 1125 1122
f  1110 1125 1095
f  597 1124 1123
f  1122 1125 1124
f  1123 1124 1126
f  1124 1125 1129
f  1124 1129 1127
f  596 1131 1130
f  595 1130 1135
f  591 1135 1136
f  598 1126 1127
f  1124 1127 1126
f  598 1127 1131
f  1127 1129 1131
f  1125 1128 1129
f  1125 1132 1128
f  1129 1128 1131
f  1125 1118 1133
f  1125 1133 1134
f  1125 1134 1132
f  1128 1132 1130
f  586 1140 1141
f  585 1141 1185
f  590 1136 1140
f  1131 1128 1130
f  1132 1135 1130
f  1132 1134 1135
f  1085 1138 1133
f  1133 1137 1134
f  1134 1137 1136
f  1135 1134 1136
f  1136 1137 1140
f  1133 1138 1137
f  1139 1137 1138
f  1139 1140 1137
f  1139 1138 1182
f  1139 1182 1141
f  1139 1141 1140
f  1142 1143 1153
f  1143 1155 1153
f  1146 1155 1143
f  1146 1161 1155
f  1145 1167 1159
f  1144 1145 1158
f  1145 1159 1158
f  1146 1144 1161
f  1144 1158 1161
f  1149 1147 1180
f  1148 1150 1160
f  1149 1151 1148
f  1148 1151 1150
f  1147 1178 1180
f  1076 1156 1115
f  1149 1180 1151
f  1151 1179 1150
f  1150 1179 1162
f  1149 1168 1147
f  1147 1152 1181
f  1152 953 986
f  1152 1168 953
f  1147 1168 1152
f  1149 1148 1168
f  1148 1170 1169
f  1148 1159 1177
f  1148 1177 1170
f  1152 986 987
f  1152 987 1181
f  1147 1181 1178
f  953 1171 1172
f  953 1172 986
f  1075 1154 1076
f  1078 1161 1154
f  1076 1154 1157
f  1157 1154 1162
f  1078 1155 1161
f  1076 1157 1156
f  1156 1157 1183
f  1157 1162 1183
f  1148 1160 1159
f  1161 1158 1160
f  1150 1162 1160
f  1154 1160 1162
f  1158 1159 1160
f  1154 1161 1160
f  1164 1170 1167
f  1167 1170 1177
f  1164 1169 1170
f  1163 1169 1164
f  1166 1165 1174
f  1166 1174 1175
f  1163 1166 1175
f  1163 1175 1169
f  1167 1177 1159
f  953 1168 1171
f  969 1173 1176
f  1168 1173 1171
f  1168 1176 1173
f  1148 1169 1168
f  1172 1171 1194
f  1171 1173 1194
f  1176 1175 1174
f  1168 1169 1176
f  1169 1175 1176
f  1156 1116 1115
f  1151 1180 1179
f  1180 1189 1179
f  1180 1178 1194
f  1172 987 986
f  1181 987 1194
f  1178 1181 1194
f  1180 1195 1189
f  1156 1183 1116
f  1138 1116 1183
f  1138 1190 1184
f  1138 1183 1190
f  1182 1184 1185
f  1190 1186 1184
f  1184 1186 1185
f  1190 1193 1186
f  1162 1179 1189
f  1162 1189 1183
f  1183 1189 1187
f  1189 1204 1188
f  1187 1189 1188
f  1188 1204 1192
f  1187 1188 1191
f  1183 1187 1190
f  1190 1187 1193
f  1188 1192 1191
f  1193 1187 1191
f  1172 1194 987
f  1173 1201 1194
f  1180 1194 1195
f  1195 1196 1189
f  1196 1198 1204
f  1195 1197 1196
f  1204 1198 1205
f  1197 1198 1196
f  999 1199 1201
f  1201 1199 1200
f  1194 1201 1200
f  1194 1200 1195
f  1200 1199 1202
f  1195 1200 1203
f  1200 1202 1203
f  1195 1203 1197
f  1189 1196 1204
f  1192 1204 1205
f  1002 1207 691
f  1002 1208 1207
f  1002 1209 1208
f  1002 1210 1209
f  78 1395 77
f  78 79 1386
f  79 80 1387
f  80 81 1388
f  83 1389 85
f  85 1394 90
f  87 1395 83
f  87 77 1395
f  90 1403 91
f  91 1404 93
f  93 1405 465
f  78 1384 1395
f  78 1386 1384
f  79 1387 1386
f  80 1388 1387
f  81 1619 1388
f  83 1395 1389
f  85 1389 1394
f  90 1394 1403
f  91 1403 1404
f  1404 1405 93
f  465 1405 1455
f  1389 1404 1394
f  1395 1405 1389
f  1384 1455 1395
f  1384 1386 1457
f  1394 1404 1403
f  1389 1405 1404
f  1395 1455 1405
f  1384 1457 1455
f  1386 1387 1459
f  1387 1388 1460
f  1388 1619 1463
f  1386 1459 1457
f  1459 1387 1460
f  1388 1463 1460
f  465 1455 466
f  466 1457 468
f  468 1459 470
f  470 1460 473
f  473 1463 1057
f  466 1455 1457
f  468 1457 1459
f  1459 1460 470
f  473 1460 1463
f  81 612 1619
f  612 613 1620
f  613 614 1621
f  614 660 1622
f  660 662 1622
f  662 666 1624
f  666 667 1626
f  667 669 1628
f  669 671 1630
f  1064 1647 675
f  671 672 1631
f  672 675 1634
f  612 1620 1619
f  613 1621 1620
f  614 1622 1621
f  662 1624 1622
f  666 1626 1624
f  667 1628 1626
f  669 1630 1628
f  671 1631 1630
f  672 1634 1631
f  675 1647 1634
f  1619 1620 1640
f  1620 1621 1642
f  1621 1622 1645
f  1619 1640 1463
f  1620 1642 1640
f  1621 1645 1642
f  1622 1624 1646
f  1624 1626 1647
f  1626 1628 1634
f  1622 1646 1645
f  1624 1647 1646
f  1628 1630 1631
f  1626 1634 1647
f  1628 1631 1634
f  1057 1640 1059
f  1062 1645 1063
f  1062 1059 1642
f  1063 1646 1064
f  1057 1463 1640
f  1059 1640 1642
f  1062 1642 1645
f  1063 1645 1646
f  1064 1646 1647
f  1407 1408 1413
f  1407 1417 1408
f  1417 1409 1408
f  1417 1410 1409
f  1417 1411 1410
f  1407 1420 1417
f  1410 1411 1416
f  1407 1413 1412
f  1407 1412 1420
f  1412 1413 1420
f  1420 1413 1414
f  1420 1414 1415
f  1420 1415 1416
f  1415 1410 1416
f  1420 1416 1421
f  1417 1418 1411
f  1418 1419 1411
f  1417 1420 1434
f  1417 1434 1418
f  1418 1434 1419
f  1420 1421 1435
f  1422 1432 1423
f  1432 1424 1423
f  1422 1423 1427
f  1422 1427 1426
f  1422 1426 1433
f  1426 1427 1433
f  1433 1427 1428
f  1432 1425 1424
f  1432 1430 1425
f  1433 1428 1429
f  1433 1429 1431
f  1422 1433 1432
f  1429 1425 1431
f  1425 1430 1431
f  1432 1435 1430
f  1420 1435 1432
f  1420 1432 1434
f  1434 1436 1419
f  1432 1433 1434
f  1433 1436 1434
f  1433 1431 1436
f  8 1246 9
f  8 1249 1251
f  8 1248 1252
f  8 1251 1248
f  8 1252 1253
f  8 30 29
f  8 1256 1250
f  8 1250 1249
f  8 29 1256
f  8 31 30
f  8 32 31
f  8 37 32
f  1270 15 16
f  1269 16 17
f  14 12 13
f  16 15 13
f  14 18 12
f  17 13 10
f  16 13 17
f  13 1223 10
f  12 1239 13
f  13 1239 1223
f  12 18 1239
f  8 25 23
f  8 9 27
f  8 27 25
f  8 23 609
f  8 38 37
f  8 39 38
f  8 40 39
f  8 41 40
f  8 1288 41
f  8 1289 1288
f  23 25 1372
f  1256 29 33
f  29 30 34
f  31 35 30
f  31 32 36
f  32 37 42
f  29 34 33
f  35 34 30
f  31 36 35
f  32 42 36
f  1270 16 1269
f  1276 33 53
f  1270 1276 11
f  33 34 47
f  35 48 34
f  35 36 52
f  36 42 55
f  37 38 43
f  38 39 44
f  39 40 45
f  40 41 46
f  37 43 42
f  38 44 43
f  39 45 44
f  40 46 45
f  41 1309 46
f  42 43 55
f  43 44 56
f  44 45 60
f  45 46 61
f  46 1309 62
f  1309 1310 64
f  1310 1311 69
f  47 50 53
f  47 48 50
f  49 50 51
f  49 51 54
f  51 52 57
f  51 57 54
f  1276 53 11
f  33 47 53
f  1270 13 15
f  1270 14 13
f  1270 11 14
f  11 53 50
f  14 11 50
f  14 50 18
f  49 18 50
f  35 50 48
f  35 51 50
f  35 52 51
f  34 48 47
f  52 36 55
f  49 54 18
f  52 55 56
f  52 56 57
f  57 58 54
f  57 59 58
f  58 59 63
f  43 56 55
f  44 57 56
f  44 59 57
f  44 60 59
f  45 61 60
f  46 62 61
f  1309 64 62
f  1310 65 64
f  59 60 65
f  59 65 63
f  60 61 65
f  61 62 65
f  65 66 63
f  58 63 54
f  66 72 63
f  1310 67 65
f  1310 68 67
f  1310 69 68
f  1311 70 69
f  62 64 65
f  65 67 66
f  66 67 72
f  67 68 1348
f  68 69 1348
f  67 1348 72
f  69 70 1348
f  70 71 1348
f  1348 1349 72
f  1349 1364 72
f  25 27 1376
f  8 609 677
f  8 677 628
f  611 607 678
f  609 611 677
f  8 1491 1488
f  8 1490 1491
f  8 1492 1490
f  8 624 1492
f  8 1488 1489
f  8 1489 1493
f  8 1493 1494
f  8 1494 1495
f  8 1495 1496
f  8 1496 1497
f  8 1497 1498
f  8 625 624
f  8 626 625
f  8 627 626
f  8 628 627
f  23 1591 609
f  611 1593 607
f  609 1593 611
f  1466 615 620
f  1466 620 1481
f  1511 620 617
f  1511 621 620
f  1511 617 622
f  1512 622 616
f  617 620 622
f  621 619 620
f  621 623 619
f  620 616 622
f  615 616 620
f  619 1481 620
f  619 623 1481
f  1492 624 629
f  624 625 630
f  626 631 625
f  626 627 632
f  627 628 633
f  624 630 629
f  631 630 625
f  626 632 631
f  627 633 632
f  1511 622 1512
f  1511 1513 618
f  1513 629 649
f  629 630 642
f  631 643 630
f  631 632 647
f  632 633 648
f  628 634 638
f  634 635 639
f  635 636 640
f  636 637 641
f  628 638 633
f  634 639 638
f  635 640 639
f  636 641 640
f  637 1550 641
f  633 638 648
f  638 639 651
f  639 640 655
f  640 641 656
f  641 1550 657
f  1550 1551 679
f  1551 1552 684
f  649 642 644
f  642 643 644
f  644 646 645
f  645 646 650
f  647 648 651
f  646 647 652
f  646 652 650
f  1513 649 618
f  629 642 649
f  630 643 642
f  1511 618 621
f  621 618 644
f  618 649 644
f  621 644 623
f  644 645 623
f  631 644 643
f  631 646 644
f  631 647 646
f  632 648 647
f  645 650 623
f  647 651 652
f  652 653 650
f  652 654 653
f  653 654 658
f  648 638 651
f  639 652 651
f  639 654 652
f  639 655 654
f  640 656 655
f  641 657 656
f  1550 679 657
f  1551 680 679
f  1551 682 680
f  1551 683 682
f  654 655 680
f  655 656 680
f  654 680 658
f  656 657 680
f  680 681 658
f  653 658 650
f  681 687 658
f  611 678 677
f  677 634 628
f  677 635 634
f  677 636 635
f  677 637 636
f  677 1530 637
f  677 1531 1530
f  677 1532 1531
f  677 1533 1532
f  677 1534 1533
f  677 1535 1534
f  677 1536 1535
f  677 678 1618
f  1551 684 683
f  1552 685 684
f  657 679 680
f  680 682 681
f  681 682 687
f  682 683 1594
f  683 684 1594
f  684 685 1594
f  682 1594 687
f  1594 1595 687
f  685 686 1594
f  1595 1610 687
f  8 1253 1246
f  1271 10 1268
f  1268 1226 1272
f  1227 1273 1272
f  1228 1274 1273
f  1229 1275 1274
f  1229 1277 1275
f  1233 1278 1277
f  1278 1234 1279
f  1279 1235 1280
f  1223 1224 1225
f  1227 1226 1225
f  1227 1225 1228
f  1223 1239 1224
f  1224 1240 1225
f  1228 1225 1229
f  1229 1225 1230
f  1230 1225 1240
f  1271 17 10
f  1268 10 1223
f  1268 1223 1225
f  1227 1272 1226
f  1268 1225 1226
f  1227 1228 1273
f  1228 1229 1274
f  1230 1231 1232
f  1230 1240 1231
f  1232 1234 1233
f  1232 1235 1234
f  1231 1241 1232
f  1232 1236 1235
f  1232 1237 1236
f  1232 1241 1237
f  1229 1230 1277
f  1230 1232 1277
f  1232 1233 1277
f  1233 1234 1278
f  1279 1234 1235
f  1280 1235 1236
f  1281 1236 1237
f  1281 1237 1242
f  1281 1242 1243
f  1237 1238 1242
f  1237 1241 1238
f  1224 1239 1240
f  1231 1240 1241
f  1282 1243 1244
f  1242 1244 1243
f  1242 1245 1244
f  1242 1330 1245
f  1242 1331 1330
f  1238 1337 1242
f  1242 1337 1331
f  1238 1241 1337
f  1246 1247 9
f  1253 1254 1246
f  1254 1255 1246
f  1255 1257 1246
f  1257 1258 1246
f  1258 1259 1246
f  1259 1260 1246
f  1260 1261 1246
f  1261 1262 1246
f  1262 1263 1246
f  1263 1264 1246
f  1264 1265 1246
f  1265 1266 1246
f  1266 1267 1246
f  1267 1297 1246
f  1248 1268 1252
f  1251 1249 1269
f  1250 1256 1276
f  1250 1270 1249
f  1251 1271 1248
f  1252 1272 1253
f  1253 1273 1254
f  1254 1274 1255
f  1255 1275 1257
f  1248 1271 1268
f  1249 1270 1269
f  1250 1276 1270
f  1251 1269 1271
f  1252 1268 1272
f  1253 1272 1273
f  1254 1273 1274
f  1255 1274 1275
f  1257 1275 1277
f  1256 33 1276
f  1257 1277 1258
f  1258 1278 1259
f  1259 1279 1260
f  1260 1280 1261
f  1261 1281 1262
f  1262 1282 1263
f  1258 1277 1278
f  1259 1278 1279
f  1260 1279 1280
f  1261 1280 1281
f  1262 1281 1282
f  1263 1282 1283
f  1263 1283 1264
f  1264 1284 1265
f  1265 1285 1266
f  1266 1286 1267
f  1267 1287 1297
f  1283 1284 1264
f  1265 1284 1285
f  1266 1285 1286
f  1286 1287 1267
f  1297 1287 1318
f  1271 1269 17
f  1280 1236 1281
f  1281 1243 1282
f  1282 1245 1283
f  41 1288 1309
f  1288 1289 1310
f  1289 1290 1311
f  1290 1291 1312
f  1291 1292 1313
f  1292 1293 1314
f  1293 1294 1315
f  1294 1295 1316
f  1295 1296 1317
f  1296 1303 1324
f  1288 1310 1309
f  1289 1311 1310
f  1290 1312 1311
f  1291 1313 1312
f  1292 1314 1313
f  1293 1315 1314
f  1294 1316 1315
f  1295 1317 1316
f  1296 1324 1317
f  1297 1318 1298
f  1298 1319 1300
f  1307 1299 1320
f  1300 1321 1301
f  1301 1322 1299
f  1298 1318 1319
f  1300 1319 1321
f  1301 1321 1322
f  1299 1322 1320
f  1306 1302 1323
f  1304 1305 1326
f  1303 1304 1325
f  1306 1327 1305
f  1307 1328 1308
f  1302 1308 1329
f  1304 1326 1325
f  1303 1325 1324
f  1305 1327 1326
f  1306 1323 1327
f  1328 1329 1308
f  1307 1320 1328
f  1302 1329 1323
f  1323 1329 1369
f  1328 1367 1329
f  1283 1330 1284
f  1284 1334 1285
f  1285 1335 1286
f  1286 1336 1287
f  1287 1338 1318
f  1318 1338 1319
f  1319 1339 1321
f  1321 1340 1322
f  1322 1341 1320
f  1328 1320 1345
f  1282 1244 1245
f  1283 1245 1330
f  1284 1330 1331
f  1284 1331 1333
f  1284 1333 1334
f  1331 1332 1333
f  1331 1337 1332
f  1333 1335 1334
f  1332 1346 1333
f  1285 1334 1335
f  1286 1335 1336
f  1336 1338 1287
f  1333 1336 1335
f  1333 1338 1336
f  1333 1346 1338
f  1332 1337 1346
f  1321 1339 1340
f  1319 1338 1339
f  1338 1340 1339
f  1338 1341 1340
f  1322 1340 1341
f  1320 1341 1342
f  1320 1342 1343
f  1320 1343 1345
f  1329 1367 1370
f  1328 1345 1367
f  1338 1342 1341
f  1338 1347 1342
f  1342 1344 1343
f  1367 1345 1343
f  1342 1347 1344
f  1338 1346 1347
f  1311 1312 70
f  1312 1313 71
f  1313 1314 1351
f  1314 1315 1352
f  1315 1316 1353
f  1316 1317 1353
f  1317 1324 1354
f  1324 1325 1359
f  1327 1360 1326
f  1325 1326 1355
f  1327 1323 1361
f  1312 71 70
f  1313 1348 71
f  1313 1350 1348
f  1313 1351 1350
f  1314 1352 1351
f  1315 1353 1352
f  1317 1354 1353
f  1348 1350 1349
f  1349 1350 1364
f  1350 1357 1364
f  1350 1351 1357
f  1351 1352 1357
f  1352 1353 1357
f  1353 1354 1357
f  1357 1358 1364
f  1325 1355 1359
f  1326 1360 1355
f  1323 1368 1362
f  1323 1369 1368
f  1327 1361 1360
f  1323 1362 1361
f  1324 1357 1354
f  1324 1356 1357
f  1324 1359 1356
f  1356 1359 1362
f  1356 1362 1365
f  1357 1356 1358
f  1358 1356 1365
f  1359 1355 1362
f  1355 1360 1362
f  1362 1360 1361
f  1368 1363 1362
f  1362 1363 1365
f  1368 1366 1363
f  1358 1365 1364
f  1363 1366 1365
f  1329 1370 1369
f  1367 1343 1370
f  1369 1370 1343
f  1343 1344 1366
f  1369 1343 1368
f  1343 1366 1368
f  1344 1347 1366
f  1301 1299 1246
f  1307 1246 1299
f  1307 1308 1246
f  1297 1298 1246
f  1298 1300 1246
f  1300 1301 1246
f  25 1374 1372
f  8 1617 1289
f  25 1376 1374
f  23 1372 1591
f  1289 1617 1290
f  1290 1617 1291
f  1291 1617 1292
f  1292 1617 1293
f  1293 1617 1294
f  1294 1617 1295
f  1295 1617 1296
f  1296 1617 1303
f  1302 1617 1308
f  1306 1617 1302
f  1303 1617 1304
f  1304 1617 1305
f  1306 1305 1617
f  1308 1617 1246
f  1246 1617 1247
f  1372 1374 1589
f  1374 1376 1589
f  8 1498 1617
f  1593 1589 607
f  1512 616 1509
f  615 1510 1509
f  1469 1514 1510
f  1465 1515 1514
f  1470 1516 1515
f  1471 1517 1516
f  1471 1518 1517
f  1475 1519 1518
f  1476 1520 1519
f  1520 1477 1521
f  1521 1478 1522
f  1465 1470 1515
f  1470 1471 1516
f  1468 1470 1465
f  1466 1467 1468
f  1469 1468 1465
f  1466 1481 1467
f  1467 1482 1468
f  1468 1471 1470
f  1468 1472 1471
f  1468 1482 1472
f  1466 1510 615
f  1466 1468 1510
f  615 1509 616
f  1469 1510 1468
f  1469 1465 1514
f  1471 1472 1518
f  1472 1474 1518
f  1474 1475 1518
f  1472 1473 1474
f  1474 1476 1475
f  1472 1482 1473
f  1474 1477 1476
f  1473 1483 1474
f  1474 1478 1477
f  1474 1479 1478
f  1479 1480 1484
f  1474 1483 1479
f  1479 1483 1480
f  1475 1476 1519
f  1476 1477 1520
f  1521 1477 1478
f  1522 1478 1479
f  1522 1479 1484
f  1522 1484 1485
f  1467 1481 1482
f  1473 1482 1483
f  1523 1485 1486
f  1484 1486 1485
f  1484 1487 1486
f  1480 1578 1484
f  1484 1570 1487
f  1484 1571 1570
f  1484 1578 1571
f  1480 1483 1578
f  1489 1488 1509
f  1489 1510 1493
f  1491 1512 1488
f  1490 1511 1491
f  1490 1492 1513
f  1493 1514 1494
f  1494 1515 1495
f  1495 1516 1496
f  1496 1517 1497
f  1488 1512 1509
f  1489 1509 1510
f  1491 1511 1512
f  1490 1513 1511
f  1492 629 1513
f  1494 1514 1515
f  1495 1515 1516
f  1493 1510 1514
f  1496 1516 1517
f  1497 1517 1518
f  1497 1518 1498
f  1498 1519 1499
f  1499 1520 1500
f  1500 1521 1501
f  1501 1522 1502
f  1502 1523 1503
f  1503 1524 1504
f  1498 1518 1519
f  1499 1519 1520
f  1520 1521 1500
f  1501 1521 1522
f  1502 1522 1523
f  1503 1523 1524
f  1504 1525 1505
f  1505 1526 1506
f  1506 1527 1507
f  1507 1528 1508
f  1524 1525 1504
f  1505 1525 1526
f  1506 1526 1527
f  1507 1527 1528
f  1508 1528 1529
f  1522 1485 1523
f  1523 1487 1524
f  637 1530 1550
f  1530 1531 1551
f  1531 1532 1552
f  1532 1533 1553
f  1533 1534 1554
f  1534 1535 1555
f  1535 1536 1556
f  1536 1537 1557
f  1537 1538 1558
f  1538 1546 1566
f  1530 1551 1550
f  1531 1552 1551
f  1532 1553 1552
f  1533 1554 1553
f  1534 1555 1554
f  1535 1556 1555
f  1536 1557 1556
f  1537 1558 1557
f  1538 1566 1558
f  1508 1529 1539
f  1539 1559 1540
f  1540 1560 1543
f  1542 1541 1561
f  1543 1563 1541
f  1529 1559 1539
f  1540 1559 1560
f  1542 1561 1562
f  1543 1560 1563
f  1541 1563 1561
f  1545 1565 1548
f  1545 1544 1564
f  1546 1547 1567
f  1547 1548 1568
f  1544 1549 1569
f  1542 1562 1549
f  1545 1564 1565
f  1546 1567 1566
f  1547 1568 1567
f  1565 1568 1548
f  1549 1562 1569
f  1544 1569 1564
f  1552 1553 685
f  1562 1613 1569
f  1564 1569 1615
f  1565 1564 1601
f  1524 1570 1525
f  1525 1574 1526
f  1526 1575 1527
f  1527 1576 1528
f  1528 1577 1529
f  1529 1577 1559
f  1559 1580 1560
f  1560 1581 1563
f  1563 1582 1561
f  1562 1561 1583
f  1523 1486 1487
f  1524 1487 1570
f  1525 1570 1571
f  1525 1571 1573
f  1525 1573 1574
f  1526 1574 1575
f  1571 1572 1573
f  1571 1578 1572
f  1573 1575 1574
f  1573 1576 1575
f  1572 1579 1573
f  1527 1575 1576
f  1528 1576 1577
f  1573 1577 1576
f  1573 1579 1577
f  1572 1578 1579
f  1560 1580 1581
f  1563 1581 1582
f  1577 1580 1559
f  1577 1581 1580
f  1577 1584 1582
f  1577 1582 1581
f  1561 1582 1584
f  1561 1586 1583
f  1561 1584 1586
f  1569 1613 1614
f  1562 1583 1613
f  1577 1587 1584
f  1584 1585 1586
f  1613 1583 1586
f  1584 1587 1585
f  1577 1579 1587
f  609 1591 1593
f  1498 1499 1617
f  1499 1500 1617
f  1500 1501 1617
f  1501 1502 1617
f  1502 1503 1617
f  1503 1504 1617
f  1504 1505 1617
f  1505 1506 1617
f  1506 1507 1617
f  1507 1508 1617
f  1372 1593 1591
f  1372 1589 1593
f  1617 1618 1247
f  1553 1554 686
f  1554 1555 1597
f  1555 1556 1598
f  1556 1557 1599
f  1557 1558 1599
f  1558 1566 1600
f  1566 1567 1604
f  1567 1568 1605
f  1565 1609 1568
f  677 1617 1536
f  1553 686 685
f  1554 1594 686
f  1554 1596 1594
f  1554 1597 1596
f  1555 1598 1597
f  1556 1599 1598
f  1558 1600 1599
f  1594 1596 1595
f  1596 1597 1606
f  1595 1596 1610
f  1596 1606 1610
f  1597 1598 1606
f  1606 1608 1610
f  1598 1599 1606
f  1599 1600 1606
f  1566 1606 1600
f  1566 1607 1606
f  1566 1604 1607
f  1568 1609 1605
f  1567 1605 1604
f  1564 1616 1603
f  1564 1603 1601
f  1564 1615 1616
f  1565 1601 1609
f  1602 1603 1616
f  1602 1616 1611
f  1604 1603 1607
f  1607 1603 1612
f  1606 1607 1608
f  1607 1612 1608
f  1605 1609 1603
f  1604 1605 1603
f  1601 1603 1609
f  1602 1612 1603
f  1608 1612 1610
f  1602 1611 1612
f  1569 1614 1615
f  1615 1614 1586
f  1613 1586 1614
f  1616 1615 1586
f  1616 1586 1611
f  1585 1611 1586
f  1585 1587 1611
f  1536 1617 1537
f  1537 1617 1538
f  1538 1617 1546
f  1543 1541 1617
f  1542 1617 1541
f  1544 1617 1549
f  1542 1549 1617
f  1508 1539 1617
f  1539 1540 1617
f  1540 1543 1617
f  1546 1617 1547
f  1547 1617 1548
f  1545 1548 1617
f  1545 1617 1544
f  677 1618 1617
f  2 3 6
f  1 27 9
f  2 19 3
f  3 21 5
f  3 7 6
f  3 5 7
f  1 2 605
f  2 6 599
f  1 604 28
f  2 599 601
f  1 28 27
f  5 74 7
f  6 7 73
f  6 73 599
f  1 1378 2
f  3 19 21
f  1 9 1377
f  2 1378 19
f  1239 18 54
f  5 21 74
f  7 74 73
f  24 26 606
f  26 28 606
f  24 1371 26
f  21 22 74
f  74 22 75
f  26 1373 28
f  28 1376 27
f  73 1385 599
f  447 448 449
f  447 451 448
f  447 461 452
f  447 452 451
f  448 451 450
f  450 451 453
f  450 453 455
f  452 461 462
f  452 462 454
f  448 456 449
f  448 450 458
f  448 458 456
f  449 456 457
f  2 601 605
f  1 605 604
f  599 602 601
f  599 600 602
f  28 604 606
f  599 663 600
f  600 689 602
f  604 678 606
f  601 602 688
f  601 688 605
f  24 610 608
f  24 606 610
f  606 678 607
f  599 659 663
f  600 663 689
f  24 608 1590
f  606 1588 610
f  606 607 1588
f  599 1385 659
f  608 610 1592
f  663 664 689
f  689 664 690
f  602 689 688
f  604 1618 678
f  604 605 1637
f  605 688 1638
f  1213 1207 1208
f  1211 1207 1213
f  1211 1213 1218
f  1213 1215 1216
f  1213 1216 1218
f  1211 1221 1212
f  1211 1218 1221
f  1217 1220 1219
f  1218 1219 1221
f  1219 1220 1221
f  1212 1221 1214
f  1239 54 1240
f  1240 54 1241
f  1 1377 1378
f  1377 9 1247
f  19 1451 21
f  21 1451 22
f  1451 457 22
f  54 1337 1241
f  54 1346 1337
f  54 63 1346
f  63 72 1347
f  1346 63 1347
f  1347 72 1364
f  1347 1364 1365
f  1347 1365 1366
f  26 1371 1373
f  28 1373 1375
f  28 1375 1376
f  24 1590 1371
f  73 74 1385
f  74 75 1385
f  1385 75 86
f  1371 1375 1373
f  1371 1592 1375
f  1375 1589 1376
f  1390 86 82
f  1401 84 88
f  1391 82 84
f  1402 88 89
f  1406 89 92
f  1406 92 464
f  19 1379 1380
f  19 1380 1381
f  19 1378 1379
f  1379 1382 1380
f  19 1381 1451
f  1381 1383 1451
f  1385 86 1396
f  1377 1637 1378
f  1379 1385 1382
f  1382 1385 1399
f  1385 1396 1399
f  1377 1247 1637
f  1378 1638 1379
f  1397 86 1390
f  1390 82 1392
f  1391 1392 82
f  1391 84 1401
f  1396 86 1397
f  1401 88 1402
f  1402 89 1406
f  1406 464 1456
f  1380 1392 1381
f  1380 1390 1392
f  1380 1396 1397
f  1380 1397 1390
f  1381 1392 1393
f  1391 1393 1392
f  1391 1398 1393
f  1391 1402 1398
f  1380 1382 1399
f  1380 1399 1396
f  1381 1393 1383
f  1383 1393 1398
f  1383 1398 1400
f  1391 1401 1402
f  1398 1402 1406
f  1398 1406 1456
f  1383 1400 1451
f  1400 1458 1451
f  1398 1456 1400
f  1400 1456 1458
f  447 449 1437
f  447 1408 461
f  447 1413 1408
f  447 1423 1413
f  449 457 1437
f  447 1427 1423
f  450 455 1445
f  451 1446 453
f  451 452 1447
f  452 454 1449
f  447 1452 1427
f  450 1445 458
f  461 1408 1409
f  461 1409 1410
f  461 1410 462
f  462 1410 1415
f  1413 1423 1414
f  1415 1414 1424
f  462 1415 1425
f  1423 1424 1414
f  1415 1424 1425
f  462 1425 1429
f  462 1429 1452
f  1458 464 467
f  1445 1208 458
f  1461 467 469
f  1461 469 471
f  1464 471 472
f  447 1437 1438
f  447 1438 1452
f  455 1450 1445
f  451 1447 1446
f  453 1446 1448
f  452 1449 1447
f  1437 457 1440
f  1440 457 1451
f  1437 1439 1438
f  1437 1440 1439
f  1439 1442 1441
f  1439 1440 1442
f  1440 1444 1442
f  1443 1444 1445
f  1438 1439 1452
f  1439 1441 1446
f  1439 1446 1452
f  1441 1442 1446
f  1442 1444 1446
f  1443 1446 1444
f  1443 1445 1450
f  1443 1448 1446
f  1443 1450 1448
f  1446 1447 1452
f  1447 1453 1452
f  1447 1449 1453
f  462 1452 1453
f  1452 1428 1427
f  1452 1429 1428
f  1456 464 1458
f  1458 467 1461
f  1461 471 1462
f  1462 471 1464
f  1464 472 1641
f  1440 1653 1444
f  1444 1653 1445
f  1461 1462 1644
f  1462 1464 1644
f  1440 1451 1653
f  1458 1461 1644
f  1451 1458 1653
f  1588 607 1589
f  610 1588 1592
f  1482 1481 623
f  1482 623 1483
f  623 1578 1483
f  650 1578 623
f  650 1579 1578
f  650 658 1587
f  658 687 1587
f  650 1587 1579
f  608 1592 1590
f  1371 1590 1592
f  1375 1588 1589
f  1375 1592 1588
f  659 1623 663
f  663 1623 664
f  1623 665 664
f  1627 668 665
f  1627 670 668
f  1629 673 670
f  1632 674 673
f  1633 676 674
f  1635 1065 676
f  687 1610 1587
f  1610 1612 1587
f  1612 1611 1587
f  604 1637 1618
f  688 689 1636
f  689 690 1636
f  605 1638 1637
f  1636 690 1206
f  659 1385 1623
f  1637 1247 1618
f  1623 1625 665
f  1379 1638 1385
f  1385 1638 1623
f  1378 1637 1638
f  1625 1627 665
f  1627 1629 670
f  1629 1632 673
f  1632 1633 674
f  1633 1635 676
f  1648 1065 1635
f  1625 1635 1627
f  1627 1635 1629
f  1623 1649 1625
f  1623 1636 1649
f  1625 1648 1635
f  1629 1635 1633
f  1629 1633 1632
f  1625 1649 1648
f  1636 1650 1649
f  688 1636 1638
f  1623 1638 1636
f  1636 1206 1650
f  1641 472 1058
f  1643 1058 1060
f  1643 1060 1061
f  1213 1208 1445
f  1648 1066 1065
f  1649 1061 1066
f  1211 1212 1639
f  1212 1214 1639
f  1650 1206 1207
f  1211 1650 1207
f  1211 1639 1650
f  1214 1654 1639
f  1213 1655 1215
f  1216 1656 1218
f  1218 1659 1219
f  1217 1219 1660
f  1214 1221 1654
f  1220 1662 1221
f  1641 1058 1643
f  1643 1061 1644
f  1644 1061 1649
f  1648 1649 1066
f  1213 1445 1653
f  1464 1641 1644
f  1641 1643 1644
f  1458 1644 1649
f  1458 1649 1653
f  1639 1651 1650
f  1639 1652 1651
f  1639 1654 1652
f  1213 1653 1655
f  1218 1656 1659
f  1217 1660 1657
f  1219 1659 1660
f  1221 1663 1654
f  1649 1650 1653
f  1650 1651 1653
f  1651 1652 1659
f  1652 1654 1659
f  1651 1659 1653
f  1653 1656 1655
f  1653 1659 1656
f  1654 1660 1659
f  1657 1660 1658
f  1658 1660 1663
f  1654 1663 1660
f  1221 1662 1663
f  1658 1662 1661
f  1658 1663 1662
f  453 460 455
f  455 460 459
f  453 454 1222
f  454 462 1222
f  462 463 1222
f  453 1222 460
f  1222 1210 460
f  1217 1209 1210
f  1215 1209 1217
f  1217 1210 1220
f  1215 1217 1216
f  1220 1210 1222
f  453 1449 454
f  455 459 1450
f  462 1416 1411
f  462 1411 463
f  462 1430 1416
f  1416 1430 1421
f  463 1411 1419
f  462 1431 1430
f  1435 1421 1430
f  462 1453 1431
f  463 1419 1454
f  1450 459 1209
f  463 1454 1222
f  453 1448 1449
f  1448 1450 1449
f  1453 1436 1431
f  1454 1419 1436
f  1453 1454 1436
f  1450 1655 1449
f  1449 1655 1453
f  1453 1655 1454
f  1215 1450 1209
f  1216 1217 1656
f  1220 1222 1662
f  1215 1655 1450
f  1222 1454 1664
f  1454 1655 1656
f  1454 1656 1657
f  1454 1657 1658
f  1454 1658 1661
f  1454 1661 1664
f  1217 1657 1656
f  1222 1664 1662
f  1661 1662 1664
