#VRML V2.0 utf8

Shape {

appearance Appearance { material Material {
ambientIntensity 0.3
diffuseColor 0.97647 0.843137 0.172549
specularColor 0.2 0.2 0.2
shininess 0.3
} }

geometry IndexedFaceSet {

creaseAngle 0.5

coord Coordinate { point [
0 -35.575 8.2,
0 -35.575 11.2,
3 -19 11.2,
3 -20 18.35,
3 -19 18.2,
3 -13 11.2,
3 -13 18.2,
35.45 -22.5 0,
35.45 -22.5 8.2,
63.7469 -19.1193 6,
62.2139 -17.8511 6,
62.456 -18.1525 6,
62.4729 -18.1642 6,
62.4433 -18.1284 6,
62.5341 -18.2382 6,
62.9003 -18.5821 6,
63.3067 -18.8773 6,
62.456 -18.1525 8.2,
61 -19 11.2,
61 -20 18.35,
61 -19 18.2,
61 -19 18.35,
35.45 -10 3,
35.4 -9.7 3.25,
35.45 -10 4.5,
35.4 -9.7 4.45,
35.45 -4.82 8.2,
35.4 -4.56111 8.2,
63.6974 -16.4635 0,
63.5904 -16.2362 0,
63.5128 -15.9974 0,
63.4658 -15.7507 0,
63.6974 -16.4635 3,
63.5904 -16.2362 3,
63.5128 -15.9974 3,
63.4658 -15.7507 3,
63.45 -15.5 0,
63.4658 -15.2493 0,
63.5128 -15.0026 0,
63.5904 -14.7638 0,
63.6974 -14.5365 0,
63.45 -15.5 3,
63.4658 -15.2493 3,
63.5128 -15.0026 3,
63.5904 -14.7638 3,
63.6974 -14.5365 3,
61.7309 -16.9725 6,
61.5757 -16.4948 6,
61.5662 -16.4573 6,
61.5698 -16.4641 6,
61.5662 -16.4453 6,
61.4815 -16.0013 6,
61.9448 -17.427 6,
61.5662 -16.4573 8.2,
61.45 -15.5 6,
61.4815 -14.9987 6,
61.5662 -14.5547 6,
61.5662 -14.5427 6,
61.5698 -14.5359 6,
61.5757 -14.5052 6,
61.7309 -14.0275 6,
61.9448 -13.573 6,
61.5662 -14.5427 8.2,
62.2139 -13.1489 6,
62.4433 -12.8716 6,
62.456 -12.8475 6,
62.4729 -12.8358 6,
62.5341 -12.7618 6,
62.9003 -12.4179 6,
63.3067 -12.1227 6,
63.7469 -11.8807 6,
62.456 -12.8475 8.2,
61 -13 11.2,
61 -13 18.2,
61 -13 18.35,
60 -11.2888 18.35,
61 -11.2888 18.35,
60 -10.3715 17.3313,
60 -7.75 15.4266,
60 -4.78976 14.1086,
60 -1.62019 13.4349,
61 -14.6167 22.1922,
61 -14.16 22.5456,
61 -15.6504 25.3734,
61 -15.1613 25.6274,
61 -13 19.392,
61 -12.5398 19.7393,
61 -16 28.7,
61 -15.6504 32.0266,
61 -15.5 28.85,
61 -15.1613 32.0726,
61 -14.6167 35.2078,
61 -14.16 35.1544,
3 -20 53.35,
17.1287 -18.0701 58.35,
18.2749 -18.4031 58.35,
19.4398 -18.6635 58.35,
21.807 -18.9625 58.35,
20.6187 -18.8502 58.35,
23 -19 58.35,
17.1287 -18.0701 60.85,
17.1596 -17.975 60.85,
18.2749 -18.4031 60.85,
18.5862 -18.4385 60.85,
19.4398 -18.6635 60.85,
21.807 -18.9625 60.85,
20.6187 -18.8502 60.85,
23 -19 60.85,
23 -18.9 60.85,
24.193 -18.9625 58.35,
25.3813 -18.8502 58.35,
26.5602 -18.6635 58.35,
27.7251 -18.4031 58.35,
28.8713 -18.0701 58.35,
24.193 -18.9625 60.85,
24.5 -18.9 60.85,
25.3813 -18.8502 60.85,
26.5602 -18.6635 60.85,
27.7251 -18.4031 60.85,
28.8713 -18.0701 60.85,
28.8404 -17.975 60.85,
17.1287 -18.0701 65.85,
17.1596 -17.975 65.85,
18.2749 -18.4031 65.85,
18.5862 -18.4385 65.85,
19.4398 -18.6635 65.85,
17.1287 -18.0701 68.35,
18.2749 -18.4031 68.35,
19.4398 -18.6635 68.35,
21.807 -18.9625 65.85,
20.6187 -18.8502 65.85,
23 -19 65.85,
23 -18.9 65.85,
21.807 -18.9625 68.35,
20.6187 -18.8502 68.35,
23 -19 68.35,
24.193 -18.9625 65.85,
24.5 -18.9 65.85,
25.3813 -18.8502 65.85,
26.5602 -18.6635 65.85,
27.7251 -18.4031 65.85,
24.193 -18.9625 68.35,
25.3813 -18.8502 68.35,
26.5602 -18.6635 68.35,
27.7251 -18.4031 68.35,
28.8713 -18.0701 65.85,
28.8404 -17.975 65.85,
28.8713 -18.0701 68.35,
19.6418 -0.986064 53.35,
20.708 -2.64512 53.35,
22.5019 -3.46438 53.35,
24.454 -3.18371 53.35,
25.9444 -1.89224 53.35,
7.62868 -11.1679 58.35,
6.95777 -10.1807 58.35,
6.35017 -9.15332 58.35,
7.62868 -11.1679 60.85,
6.95777 -10.1807 60.85,
7.70958 -11.1091 60.85,
6.35017 -9.15332 60.85,
10.8889 -14.6398 58.35,
11.8321 -15.3713 58.35,
9.9936 -13.8504 58.35,
12.8193 -16.0422 58.35,
13.8467 -16.6498 58.35,
14.9102 -17.1917 58.35,
10.8889 -14.6398 60.85,
11.8321 -15.3713 60.85,
11.8909 -15.2904 60.85,
9.9936 -13.8504 60.85,
12.8193 -16.0422 60.85,
13.1044 -16.1721 60.85,
13.8467 -16.6498 60.85,
14.9102 -17.1917 60.85,
14.491 -14.2636 62.0167,
12.7951 -14.0458 63.35,
13.2774 -13.382 64.6833,
14.0087 -14.9275 63.35,
9.1496 -13.0064 58.35,
8.36025 -12.1111 58.35,
8.59126 -12.3227 60.85,
9.1496 -13.0064 60.85,
8.36025 -12.1111 60.85,
9.8359 -11.4184 63.35,
10.4997 -10.9361 62.0167,
11.8131 -9.98189 60.85,
8.95422 -10.2049 63.35,
9.61803 -9.72257 64.6833,
11.8131 -9.98189 63.3357,
13.4386 -11.5577 60.85,
15.7737 -13.1446 60.85,
15.4452 -12.9503 60.85,
14.1832 -12.1353 60.85,
15.4452 -12.9503 63.3357,
12.7318 -10.9345 60.85,
12.0655 -10.2682 60.85,
7.62868 -11.1679 65.85,
7.62868 -11.1679 68.35,
6.95777 -10.1807 65.85,
7.70958 -11.1091 65.85,
6.35017 -9.15332 65.85,
6.95777 -10.1807 68.35,
6.35017 -9.15332 68.35,
10.8889 -14.6398 65.85,
11.8321 -15.3713 65.85,
11.8909 -15.2904 65.85,
9.9936 -13.8504 65.85,
10.8889 -14.6398 68.35,
11.8321 -15.3713 68.35,
9.9936 -13.8504 68.35,
12.8193 -16.0422 65.85,
13.1044 -16.1721 65.85,
13.8467 -16.6498 65.85,
14.9102 -17.1917 65.85,
12.8193 -16.0422 68.35,
13.8467 -16.6498 68.35,
14.9102 -17.1917 68.35,
8.59126 -12.3227 65.85,
9.1496 -13.0064 65.85,
8.36025 -12.1111 65.85,
9.1496 -13.0064 68.35,
8.36025 -12.1111 68.35,
11.8131 -9.98189 65.85,
13.4386 -11.5577 65.85,
15.7737 -13.1446 65.85,
15.4452 -12.9503 65.85,
14.1832 -12.1353 65.7789,
14.1832 -12.1353 65.85,
12.7318 -10.9345 65.85,
12.0655 -10.2682 65.85,
5.80829 -8.08981 58.35,
5.33425 -6.99437 58.35,
4.92993 -5.87132 58.35,
4.59692 -4.72511 58.35,
5.80829 -8.08981 60.85,
5.48856 -7.26701 60.85,
5.33425 -6.99437 60.85,
6.95172 -6.7916 63.35,
4.92993 -5.87132 60.85,
5.02503 -5.84042 60.85,
4.59692 -4.72511 60.85,
7.73208 -6.53804 62.0167,
6.4882 -5.36501 63.35,
7.26855 -5.11146 64.6833,
4.33654 -3.56024 58.35,
4.14982 -2.38133 58.35,
4.03749 -1.19302 58.35,
4.33654 -3.56024 60.85,
4.14982 -2.38133 60.85,
4.1 -1.5 60.85,
4.03749 -1.19302 60.85,
6.45897 -1.5 62.0167,
5.63846 -1.5 63.35,
9.8554 -7.22631 60.85,
10.8647 -8.81678 60.85,
10.3351 -8.0374 60.85,
9.42759 -6.38669 60.85,
9.27601 -6.03639 60.85,
8.73415 -4.63525 60.85,
9.27601 -6.03639 63.3357,
8.47125 -3.73035 60.85,
8.26569 -2.81072 60.85,
8.11828 -1.88 60.85,
8.08236 -1.5 60.85,
8.08236 -1.5 63.3357,
5.80829 -8.08981 65.85,
5.48856 -7.26701 65.85,
5.33425 -6.99437 65.85,
5.80829 -8.08981 68.35,
5.33425 -6.99437 68.35,
4.92993 -5.87132 65.85,
5.02503 -5.84042 65.85,
4.59692 -4.72511 65.85,
4.92993 -5.87132 68.35,
4.59692 -4.72511 68.35,
4.33654 -3.56024 65.85,
4.14982 -2.38133 65.85,
4.33654 -3.56024 68.35,
4.14982 -2.38133 68.35,
4.1 -1.5 65.85,
4.03749 -1.19302 65.85,
4.03749 -1.19302 68.35,
9.8554 -7.22631 65.85,
10.8647 -8.81678 65.7789,
10.8647 -8.81678 65.85,
10.3351 -8.0374 65.85,
9.42759 -6.38669 65.85,
9.27601 -6.03639 65.85,
8.73415 -4.63525 65.7789,
8.73415 -4.63525 65.85,
8.47125 -3.73035 65.85,
8.26569 -2.81072 65.85,
8.11828 -1.88 65.85,
8.08236 -1.5 65.85,
16.0056 -17.6658 58.35,
16.0056 -17.6658 60.85,
19.3151 -16.195 62.0167,
17.635 -16.5118 63.35,
17.8885 -15.7315 64.6833,
19.0616 -16.9753 63.35,
16.6133 -13.5724 60.85,
17.4781 -13.9466 60.85,
19.8168 -14.651 60.85,
18.3647 -14.2658 60.85,
19.8168 -14.651 63.3357,
23 -17.3615 63.35,
23 -16.541 64.6833,
20.1893 -14.7343 60.85,
21.12 -14.8817 60.85,
22.0581 -14.9704 60.85,
23 -15 60.85,
29.9944 -17.6658 58.35,
31.0898 -17.1917 58.35,
24.5 -16.541 62.0167,
24.5 -17.3615 63.35,
24.5 -14.9176 60.85,
24.88 -14.8817 60.85,
25.8107 -14.7343 60.85,
26.7303 -14.5287 60.85,
27.6353 -14.2658 60.85,
24.5 -14.9176 63.3357,
29.9944 -17.6658 60.85,
30.267 -17.5114 60.85,
31.0898 -17.1917 60.85,
28.365 -16.5118 63.35,
29.7916 -16.0483 63.35,
28.1115 -15.7315 64.6833,
29.538 -15.2679 62.0167,
29.0364 -13.724 60.85,
29.3867 -13.5724 60.85,
29.0364 -13.724 63.3357,
30.2263 -13.1446 60.85,
31.0374 -12.6649 60.85,
31.8168 -12.1353 60.85,
16.0056 -17.6658 65.85,
16.0056 -17.6658 68.35,
16.6133 -13.5724 65.85,
17.4781 -13.9466 65.85,
19.8168 -14.651 65.85,
18.3647 -14.2658 65.7789,
18.3647 -14.2658 65.85,
20.1893 -14.7343 65.85,
21.12 -14.8817 65.85,
22.0581 -14.9704 65.85,
23 -15 65.7789,
23 -15 65.85,
24.5 -14.9176 65.85,
24.88 -14.8817 65.85,
25.8107 -14.7343 65.85,
26.7303 -14.5287 65.85,
27.6353 -14.2658 65.7789,
27.6353 -14.2658 65.85,
29.9944 -17.6658 65.85,
30.267 -17.5114 65.85,
31.0898 -17.1917 65.85,
29.9944 -17.6658 68.35,
31.0898 -17.1917 68.35,
29.0364 -13.724 65.85,
29.3867 -13.5724 65.85,
30.2263 -13.1446 65.85,
31.0374 -12.6649 65.85,
31.8168 -12.1353 65.7789,
31.8168 -12.1353 65.85,
19.8794 -2.58157 58.35,
19.7235 -2.38053 58.35,
19.3355 -1.72441 58.35,
19.5805 -2.1701 58.35,
19.451 -1.9511 58.35,
19.2344 -1.4909 58.35,
19.1482 -1.25152 58.35,
19.0772 -1.00719 58.35,
19.0217 -0.758894 58.35,
18.9819 -0.5076 58.35,
18.958 -0.254302 58.35,
20.8299 -3.41953 58.35,
21.2756 -3.66455 58.35,
21.0489 -3.54904 58.35,
21.5091 -3.76559 58.35,
21.7485 -3.85178 58.35,
20.4184 -3.12058 58.35,
20.2276 -2.95232 58.35,
20.6195 -3.27652 58.35,
20.0477 -2.77242 58.35,
21.9928 -3.92276 58.35,
22.2411 -3.97826 58.35,
22.4924 -4.01806 58.35,
22.7457 -4.04201 58.35,
23 -4.05 58.35,
23.2543 -4.04201 58.35,
23.5076 -4.01806 58.35,
23.7589 -3.97826 58.35,
24.0072 -3.92276 58.35,
24.2515 -3.85178 58.35,
24.4909 -3.76559 58.35,
24.7244 -3.66455 58.35,
24.9511 -3.54904 58.35,
25.1701 -3.41953 58.35,
25.3805 -3.27652 58.35,
25.5816 -3.12058 58.35,
25.7724 -2.95232 58.35,
25.95 -2.77474 58.35,
25.95 -1.87313 58.35,
19.8794 -2.58157 68.35,
19.7235 -2.38053 68.35,
19.3355 -1.72441 68.35,
19.5805 -2.1701 68.35,
19.451 -1.9511 68.35,
19.2344 -1.4909 68.35,
19.1482 -1.25152 68.35,
19.0772 -1.00719 68.35,
19.0217 -0.758894 68.35,
19.6418 -0.986064 68.35,
18.9819 -0.5076 68.35,
18.958 -0.254302 68.35,
20.8299 -3.41953 68.35,
21.2756 -3.66455 68.35,
21.0489 -3.54904 68.35,
21.5091 -3.76559 68.35,
21.7485 -3.85178 68.35,
20.4184 -3.12058 68.35,
20.2276 -2.95232 68.35,
20.6195 -3.27652 68.35,
20.0477 -2.77242 68.35,
20.708 -2.64512 68.35,
21.9928 -3.92276 68.35,
22.2411 -3.97826 68.35,
22.4924 -4.01806 68.35,
22.7457 -4.04201 68.35,
22.5019 -3.46438 68.35,
23 -4.05 68.35,
23.2543 -4.04201 68.35,
23.5076 -4.01806 68.35,
23.7589 -3.97826 68.35,
24.0072 -3.92276 68.35,
24.2515 -3.85178 68.35,
24.4909 -3.76559 68.35,
24.7244 -3.66455 68.35,
24.9511 -3.54904 68.35,
25.1701 -3.41953 68.35,
24.454 -3.18371 68.35,
25.3805 -3.27652 68.35,
25.5816 -3.12058 68.35,
25.7724 -2.95232 68.35,
25.95 -2.77474 68.35,
25.9444 -1.89224 68.35,
25.95 -1.87313 68.35,
61 -32.575 43.2,
61 -27.575 43.2,
62.1111 -27.575 43.2,
61 -27.575 46.2,
61 -29.575 51.2,
61 -29.575 53,
61 -28.575 51.2,
61 -28.575 53,
61 -27.575 51.2,
61 -20 43.2,
61 -19 43.2,
61 -20 46.2,
61 -20 51.2,
61 -20 53.35,
61 -32.575 56.6,
61 -28.575 56.6,
61 -28.575 74.2,
61 -13 38.008,
61 -12.5398 37.9607,
61 -10.3715 40.3687,
61 -13 43.2,
61 -7.75 42.2734,
61 -6.55447 43.2,
61 -4.78976 43.5914,
61 -4.94427 43.9169,
61 -1.67246 44.6124,
61 -1.62019 44.2651,
32.1533 -16.6498 58.35,
33.1807 -16.0422 58.35,
34.1679 -15.3713 58.35,
35.1111 -14.6398 58.35,
36.0064 -13.8504 58.35,
32.1533 -16.6498 60.85,
33.1807 -16.0422 60.85,
34.1091 -15.2904 60.85,
34.1679 -15.3713 60.85,
35.1111 -14.6398 60.85,
35.3227 -14.4087 60.85,
33.2049 -14.0458 63.35,
32.7226 -13.382 64.6833,
36.0064 -13.8504 60.85,
36.8504 -13.0064 58.35,
37.6398 -12.1111 58.35,
38.3713 -11.1679 58.35,
39.0422 -10.1807 58.35,
39.6498 -9.15332 58.35,
32.9819 -11.1869 60.85,
33.9361 -12.5003 62.0167,
32.9819 -11.1869 63.3357,
34.4184 -13.1641 63.35,
33.2682 -10.9345 60.85,
33.9345 -10.2682 60.85,
34.5577 -9.56136 60.85,
36.8504 -13.0064 60.85,
37.6398 -12.1111 60.85,
38.3713 -11.1679 60.85,
38.2904 -11.1091 60.85,
39.0422 -10.1807 60.85,
39.1721 -9.89562 60.85,
39.6498 -9.15332 60.85,
37.0458 -10.2049 63.35,
36.382 -9.72257 64.6833,
37.9275 -8.99133 63.35,
32.1533 -16.6498 65.85,
33.1807 -16.0422 65.85,
32.1533 -16.6498 68.35,
33.1807 -16.0422 68.35,
34.1091 -15.2904 65.85,
34.1679 -15.3713 65.85,
35.1111 -14.6398 65.85,
35.3227 -14.4087 65.85,
34.1679 -15.3713 68.35,
35.1111 -14.6398 68.35,
36.0064 -13.8504 65.85,
36.0064 -13.8504 68.35,
32.9819 -11.1869 65.85,
33.2682 -10.9345 65.85,
33.9345 -10.2682 65.85,
34.5577 -9.56136 65.85,
36.8504 -13.0064 65.85,
37.6398 -12.1111 65.85,
38.3713 -11.1679 65.85,
36.8504 -13.0064 68.35,
37.6398 -12.1111 68.35,
38.3713 -11.1679 68.35,
38.2904 -11.1091 65.85,
39.0422 -10.1807 65.85,
39.1721 -9.89562 65.85,
39.6498 -9.15332 65.85,
39.0422 -10.1807 68.35,
39.6498 -9.15332 68.35,
35.1353 -8.81678 60.85,
37.2636 -8.50905 62.0167,
35.9503 -7.55484 60.85,
36.1446 -7.22631 60.85,
35.9503 -7.55484 63.3357,
36.5724 -6.38669 60.85,
36.9466 -5.52187 60.85,
37.2658 -4.63525 60.85,
39.5118 -5.36501 63.35,
38.7315 -5.11146 64.6833,
37.651 -3.18322 60.85,
37.7343 -2.81072 60.85,
39.195 -3.68487 62.0167,
37.651 -3.18322 63.3357,
37.8817 -1.88 60.85,
37.9704 -0.941858 60.85,
40.1917 -8.08981 58.35,
40.6658 -6.99437 58.35,
41.0701 -5.87132 58.35,
41.4031 -4.72511 58.35,
40.1917 -8.08981 60.85,
40.6658 -6.99437 60.85,
41.0701 -5.87132 60.85,
40.975 -5.84042 60.85,
41.4031 -4.72511 60.85,
41.6635 -3.56024 58.35,
41.8502 -2.38133 58.35,
41.9625 -1.19302 58.35,
41.4385 -4.41384 60.85,
41.6635 -3.56024 60.85,
41.8502 -2.38133 60.85,
39.9753 -3.93843 63.35,
41.9625 -1.19302 60.85,
35.1353 -8.81678 65.7789,
35.1353 -8.81678 65.85,
35.9503 -7.55484 65.85,
36.1446 -7.22631 65.85,
36.5724 -6.38669 65.85,
36.9466 -5.52187 65.85,
37.2658 -4.63525 65.7789,
37.2658 -4.63525 65.85,
37.651 -3.18322 65.85,
37.7343 -2.81072 65.85,
37.8817 -1.88 65.85,
37.9704 -0.941858 65.85,
40.1917 -8.08981 65.85,
40.6658 -6.99437 65.85,
40.1917 -8.08981 68.35,
40.6658 -6.99437 68.35,
41.0701 -5.87132 65.85,
40.975 -5.84042 65.85,
41.4031 -4.72511 65.85,
41.0701 -5.87132 68.35,
41.4031 -4.72511 68.35,
41.4385 -4.41384 65.85,
41.6635 -3.56024 65.85,
41.8502 -2.38133 65.85,
41.6635 -3.56024 68.35,
41.8502 -2.38133 68.35,
41.9625 -1.19302 65.85,
41.9625 -1.19302 68.35,
3 13 11.2,
3 13 18.2,
3 19 11.2,
3 19 18.2,
3 20 18.35,
0 35.575 8.2,
0 35.575 11.2,
35.4 4.56111 8.2,
35.45 4.82 8.2,
35.4 9.7 3.25,
35.45 10 3,
35.4 9.7 4.45,
35.45 10 4.5,
60 1.62019 13.4349,
60 4.78976 14.1086,
60 7.75 15.4266,
63.7469 11.8807 6,
63.3067 12.1227 6,
62.5341 12.7618 6,
62.2139 13.1489 6,
62.456 12.8475 6,
62.4729 12.8358 6,
62.4433 12.8716 6,
62.9003 12.4179 6,
62.456 12.8475 8.2,
63.6974 14.5365 0,
63.5904 14.7638 0,
63.5128 15.0026 0,
63.4658 15.2493 0,
63.45 15.5 0,
63.6974 14.5365 3,
63.5904 14.7638 3,
63.5128 15.0026 3,
63.4658 15.2493 3,
63.45 15.5 3,
63.4658 15.7507 0,
63.5128 15.9974 0,
63.5904 16.2362 0,
63.6974 16.4635 0,
63.4658 15.7507 3,
63.5128 15.9974 3,
63.5904 16.2362 3,
63.6974 16.4635 3,
61.7309 14.0275 6,
61.5757 14.5052 6,
61.5698 14.5359 6,
61.5662 14.5427 6,
61.5662 14.5547 6,
61.4815 14.9987 6,
61.45 15.5 6,
61.9448 13.573 6,
61.5662 14.5427 8.2,
61.4815 16.0013 6,
61.5662 16.4453 6,
61.5662 16.4573 6,
61.5698 16.4641 6,
61.5757 16.4948 6,
61.7309 16.9725 6,
61.9448 17.427 6,
61.5662 16.4573 8.2,
61 13 11.2,
60 10.3715 17.3313,
60 11.2888 18.35,
61 11.2888 18.35,
61 13 18.2,
61 13 18.35,
61 13 19.392,
61 12.5398 19.7393,
61 14.16 22.5456,
61 14.6167 22.1922,
61 15.1613 25.6274,
61 15.6504 25.3734,
61 15.5 28.85,
61 15.1613 32.0726,
61 16 28.7,
61 15.6504 32.0266,
61 14.16 35.1544,
61 14.6167 35.2078,
35.45 22.5 0,
35.45 22.5 8.2,
62.2139 17.8511 6,
62.4433 18.1284 6,
62.456 18.1525 6,
62.4729 18.1642 6,
62.5341 18.2382 6,
62.9003 18.5821 6,
63.3067 18.8773 6,
63.7469 19.1193 6,
62.456 18.1525 8.2,
61 19 11.2,
61 19 18.2,
61 19 18.35,
61 20 18.35,
19.6418 0.986064 53.35,
20.708 2.64512 53.35,
22.5019 3.46438 53.35,
26.5 0 53.35,
25.9444 1.89224 53.35,
24.454 3.18371 53.35,
4 0 58.35,
4.03749 1.19302 58.35,
4.14982 2.38133 58.35,
4.33654 3.56024 58.35,
4 0 60.85,
4.1 0 60.85,
4.03749 1.19302 60.85,
5.63846 0 63.35,
6.45897 0 64.6833,
4.14982 2.38133 60.85,
4.33654 3.56024 60.85,
4.56151 4.41384 60.85,
6.80502 3.68487 62.0167,
6.02467 3.93843 63.35,
4.59692 4.72511 58.35,
4.92993 5.87132 58.35,
5.33425 6.99437 58.35,
5.80829 8.08981 58.35,
4.59692 4.72511 60.85,
4.92993 5.87132 60.85,
5.02503 5.84042 60.85,
6.4882 5.36501 63.35,
7.26855 5.11146 64.6833,
5.33425 6.99437 60.85,
5.80829 8.08981 60.85,
8 0 60.85,
8.0296 0.941858 60.85,
8.11828 1.88 60.85,
8.26569 2.81072 60.85,
8.34895 3.18322 60.85,
8.34895 3.18322 63.3357,
8.73415 4.63525 60.85,
9.05335 5.52187 60.85,
9.42759 6.38669 60.85,
9.8554 7.22631 60.85,
8.73635 8.50905 62.0167,
10.0497 7.55484 60.85,
10.8647 8.81678 60.85,
10.0497 7.55484 63.3357,
4 0 65.85,
4.1 0 65.85,
4.03749 1.19302 65.85,
4 0 68.35,
4.03749 1.19302 68.35,
4.14982 2.38133 65.85,
4.33654 3.56024 65.85,
4.56151 4.41384 65.85,
4.14982 2.38133 68.35,
4.33654 3.56024 68.35,
4.59692 4.72511 65.85,
4.92993 5.87132 65.85,
5.02503 5.84042 65.85,
4.59692 4.72511 68.35,
4.92993 5.87132 68.35,
5.33425 6.99437 65.85,
5.80829 8.08981 65.85,
5.33425 6.99437 68.35,
5.80829 8.08981 68.35,
8 0 65.7789,
8 0 65.85,
8.0296 0.941858 65.85,
8.11828 1.88 65.85,
8.26569 2.81072 65.85,
8.34895 3.18322 65.85,
8.73415 4.63525 65.7789,
8.73415 4.63525 65.85,
9.05335 5.52187 65.85,
9.42759 6.38669 65.85,
9.8554 7.22631 65.85,
10.0497 7.55484 65.85,
10.8647 8.81678 65.7789,
10.8647 8.81678 65.85,
6.35017 9.15332 58.35,
6.95777 10.1807 58.35,
7.62868 11.1679 58.35,
6.35017 9.15332 60.85,
6.8279 9.89562 60.85,
6.95777 10.1807 60.85,
7.70958 11.1091 60.85,
7.62868 11.1679 60.85,
8.36025 12.1111 58.35,
9.1496 13.0064 58.35,
11.4423 9.56136 60.85,
8.07254 8.99133 63.35,
9.61803 9.72257 64.6833,
8.95422 10.2049 63.35,
8.36025 12.1111 60.85,
9.1496 13.0064 60.85,
11.5816 13.1641 63.35,
12.0655 10.2682 60.85,
12.7318 10.9345 60.85,
13.0181 11.1869 60.85,
12.0639 12.5003 62.0167,
14.1832 12.1353 60.85,
14.9626 12.6649 60.85,
15.7737 13.1446 60.85,
13.0181 11.1869 63.3357,
9.9936 13.8504 58.35,
10.8889 14.6398 58.35,
11.8321 15.3713 58.35,
12.8193 16.0422 58.35,
13.8467 16.6498 58.35,
14.9102 17.1917 58.35,
9.9936 13.8504 60.85,
10.6773 14.4087 60.85,
10.8889 14.6398 60.85,
11.8909 15.2904 60.85,
11.8321 15.3713 60.85,
12.7951 14.0458 63.35,
13.2774 13.382 64.6833,
12.8193 16.0422 60.85,
13.8467 16.6498 60.85,
14.9102 17.1917 60.85,
15.733 17.5114 60.85,
6.35017 9.15332 65.85,
6.8279 9.89562 65.85,
6.95777 10.1807 65.85,
7.70958 11.1091 65.85,
6.35017 9.15332 68.35,
6.95777 10.1807 68.35,
7.62868 11.1679 65.85,
7.62868 11.1679 68.35,
11.4423 9.56136 65.85,
8.36025 12.1111 65.85,
9.1496 13.0064 65.85,
8.36025 12.1111 68.35,
9.1496 13.0064 68.35,
12.0655 10.2682 65.85,
12.7318 10.9345 65.85,
13.0181 11.1869 65.85,
14.1832 12.1353 65.7789,
14.1832 12.1353 65.85,
14.9626 12.6649 65.85,
15.7737 13.1446 65.85,
9.9936 13.8504 65.85,
10.6773 14.4087 65.85,
10.8889 14.6398 65.85,
11.8909 15.2904 65.85,
11.8321 15.3713 65.85,
9.9936 13.8504 68.35,
10.8889 14.6398 68.35,
11.8321 15.3713 68.35,
12.8193 16.0422 65.85,
13.8467 16.6498 65.85,
14.9102 17.1917 65.85,
15.733 17.5114 65.85,
12.8193 16.0422 68.35,
13.8467 16.6498 68.35,
14.9102 17.1917 68.35,
18.95 0 58.35,
18.958 0.254302 58.35,
18.9819 0.5076 58.35,
19.0217 0.758894 58.35,
19.0772 1.00719 58.35,
19.1482 1.25152 58.35,
19.2344 1.4909 58.35,
19.3355 1.72441 58.35,
19.451 1.9511 58.35,
19.5805 2.1701 58.35,
19.7235 2.38053 58.35,
19.8794 2.58157 58.35,
20.0477 2.77242 58.35,
20.2276 2.95232 58.35,
20.4184 3.12058 58.35,
20.6195 3.27652 58.35,
20.8299 3.41953 58.35,
21.0489 3.54904 58.35,
21.2756 3.66455 58.35,
21.5091 3.76559 58.35,
21.7485 3.85178 58.35,
21.9928 3.92276 58.35,
22.2411 3.97826 58.35,
22.4924 4.01806 58.35,
22.7457 4.04201 58.35,
23 4.05 58.35,
23.2543 4.04201 58.35,
23.5076 4.01806 58.35,
23.7589 3.97826 58.35,
26.5 0 58.35,
25.95 1.87313 58.35,
25.3805 3.27652 58.35,
25.7724 2.95232 58.35,
25.5816 3.12058 58.35,
24.2515 3.85178 58.35,
24.4909 3.76559 58.35,
24.7244 3.66455 58.35,
24.0072 3.92276 58.35,
24.9511 3.54904 58.35,
25.1701 3.41953 58.35,
25.95 2.77474 58.35,
18.95 0 68.35,
18.958 0.254302 68.35,
18.9819 0.5076 68.35,
19.0217 0.758894 68.35,
19.0772 1.00719 68.35,
19.6418 0.986064 68.35,
19.1482 1.25152 68.35,
19.2344 1.4909 68.35,
19.3355 1.72441 68.35,
19.451 1.9511 68.35,
19.5805 2.1701 68.35,
19.7235 2.38053 68.35,
19.8794 2.58157 68.35,
20.0477 2.77242 68.35,
20.708 2.64512 68.35,
20.2276 2.95232 68.35,
20.4184 3.12058 68.35,
20.6195 3.27652 68.35,
20.8299 3.41953 68.35,
21.0489 3.54904 68.35,
21.2756 3.66455 68.35,
21.5091 3.76559 68.35,
21.7485 3.85178 68.35,
22.5019 3.46438 68.35,
21.9928 3.92276 68.35,
22.2411 3.97826 68.35,
22.4924 4.01806 68.35,
22.7457 4.04201 68.35,
23 4.05 68.35,
23.2543 4.04201 68.35,
23.5076 4.01806 68.35,
23.7589 3.97826 68.35,
25.95 1.87313 68.35,
25.9444 1.89224 68.35,
24.454 3.18371 68.35,
25.3805 3.27652 68.35,
25.7724 2.95232 68.35,
25.5816 3.12058 68.35,
24.2515 3.85178 68.35,
24.4909 3.76559 68.35,
24.7244 3.66455 68.35,
24.0072 3.92276 68.35,
24.9511 3.54904 68.35,
25.1701 3.41953 68.35,
25.95 2.77474 68.35,
16.0056 17.6658 58.35,
16.6133 13.5724 60.85,
16.9636 13.724 60.85,
16.462 15.2679 62.0167,
18.3647 14.2658 60.85,
19.2697 14.5287 60.85,
16.9636 13.724 63.3357,
16.0056 17.6658 60.85,
16.2084 16.0483 63.35,
17.635 16.5118 63.35,
17.8885 15.7315 64.6833,
20.1893 14.7343 60.85,
21.12 14.8817 60.85,
21.5 14.9176 60.85,
23 15 60.85,
21.5 14.9176 63.3357,
21.5 16.541 62.0167,
21.5 17.3615 63.35,
23 16.541 64.6833,
23 17.3615 63.35,
31.8168 12.1353 60.85,
30.2263 13.1446 60.85,
30.5548 12.9503 60.85,
30.5548 12.9503 63.3357,
29.9944 17.6658 58.35,
31.0898 17.1917 58.35,
23.9419 14.9704 60.85,
24.88 14.8817 60.85,
25.8107 14.7343 60.85,
27.6353 14.2658 60.85,
26.1832 14.651 60.85,
26.1832 14.651 63.3357,
26.6849 16.195 62.0167,
26.9384 16.9753 63.35,
28.5219 13.9466 60.85,
29.3867 13.5724 60.85,
31.509 14.2636 62.0167,
29.9944 17.6658 60.85,
31.0898 17.1917 60.85,
28.365 16.5118 63.35,
28.1115 15.7315 64.6833,
16.6133 13.5724 65.85,
16.9636 13.724 65.85,
18.3647 14.2658 65.7789,
18.3647 14.2658 65.85,
19.2697 14.5287 65.85,
16.0056 17.6658 65.85,
16.0056 17.6658 68.35,
20.1893 14.7343 65.85,
21.12 14.8817 65.85,
21.5 14.9176 65.85,
23 15 65.7789,
23 15 65.85,
31.8168 12.1353 65.7789,
31.8168 12.1353 65.85,
30.2263 13.1446 65.85,
30.5548 12.9503 65.85,
23.9419 14.9704 65.85,
24.88 14.8817 65.85,
25.8107 14.7343 65.85,
27.6353 14.2658 65.7789,
27.6353 14.2658 65.85,
26.1832 14.651 65.85,
28.5219 13.9466 65.85,
29.3867 13.5724 65.85,
29.9944 17.6658 65.85,
31.0898 17.1917 65.85,
29.9944 17.6658 68.35,
31.0898 17.1917 68.35,
3 20 53.35,
17.1287 18.0701 58.35,
18.2749 18.4031 58.35,
19.4398 18.6635 58.35,
20.6187 18.8502 58.35,
21.807 18.9625 58.35,
23 19 58.35,
17.1596 17.975 60.85,
17.1287 18.0701 60.85,
18.2749 18.4031 60.85,
19.4398 18.6635 60.85,
20.6187 18.8502 60.85,
21.5 18.9 60.85,
21.807 18.9625 60.85,
23 18.9 60.85,
23 19 60.85,
25.3813 18.8502 58.35,
24.193 18.9625 58.35,
26.5602 18.6635 58.35,
27.7251 18.4031 58.35,
28.8713 18.0701 58.35,
25.3813 18.8502 60.85,
24.193 18.9625 60.85,
26.5602 18.6635 60.85,
27.4138 18.4385 60.85,
27.7251 18.4031 60.85,
28.8404 17.975 60.85,
28.8713 18.0701 60.85,
17.1596 17.975 65.85,
17.1287 18.0701 65.85,
18.2749 18.4031 65.85,
19.4398 18.6635 65.85,
17.1287 18.0701 68.35,
18.2749 18.4031 68.35,
19.4398 18.6635 68.35,
20.6187 18.8502 65.85,
21.5 18.9 65.85,
21.807 18.9625 65.85,
23 18.9 65.85,
23 19 65.85,
20.6187 18.8502 68.35,
21.807 18.9625 68.35,
23 19 68.35,
25.3813 18.8502 65.85,
24.193 18.9625 65.85,
26.5602 18.6635 65.85,
27.4138 18.4385 65.85,
27.7251 18.4031 65.85,
25.3813 18.8502 68.35,
24.193 18.9625 68.35,
26.5602 18.6635 68.35,
27.7251 18.4031 68.35,
28.8404 17.975 65.85,
28.8713 18.0701 65.85,
28.8713 18.0701 68.35,
61 1.62019 44.2651,
61 1.67246 44.6124,
61 4.78976 43.5914,
61 4.94427 43.9169,
61 6.55447 43.2,
61 7.75 42.2734,
61 10.3715 40.3687,
61 12.5398 37.9607,
61 13 38.008,
61 13 43.2,
38 0 60.85,
37.9176 1.5 60.85,
37.8817 1.88 60.85,
39.541 1.5 62.0167,
39.541 0 64.6833,
37.9176 1.5 63.3357,
37.7343 2.81072 60.85,
37.5287 3.73035 60.85,
35.6649 8.0374 60.85,
35.1353 8.81678 60.85,
37.2658 4.63525 60.85,
36.724 6.03639 60.85,
36.5724 6.38669 60.85,
38.2679 6.53804 62.0167,
36.724 6.03639 63.3357,
39.5118 5.36501 63.35,
38.7315 5.11146 64.6833,
36.1446 7.22631 60.85,
39.0483 6.7916 63.35,
42 0 58.35,
41.9625 1.19302 58.35,
41.6635 3.56024 58.35,
41.8502 2.38133 58.35,
41.9 0 60.85,
42 0 60.85,
41.9625 1.19302 60.85,
41.9 1.5 60.85,
40.3615 0 63.35,
40.3615 1.5 63.35,
41.6635 3.56024 60.85,
41.8502 2.38133 60.85,
41.4031 4.72511 58.35,
41.0701 5.87132 58.35,
40.6658 6.99437 58.35,
40.1917 8.08981 58.35,
41.4031 4.72511 60.85,
40.975 5.84042 60.85,
41.0701 5.87132 60.85,
40.6658 6.99437 60.85,
40.5114 7.26701 60.85,
40.1917 8.08981 60.85,
38 0 65.7789,
38 0 65.85,
37.9176 1.5 65.85,
37.8817 1.88 65.85,
37.7343 2.81072 65.85,
37.5287 3.73035 65.85,
35.6649 8.0374 65.85,
35.1353 8.81678 65.7789,
35.1353 8.81678 65.85,
37.2658 4.63525 65.7789,
37.2658 4.63525 65.85,
36.724 6.03639 65.85,
36.5724 6.38669 65.85,
36.1446 7.22631 65.85,
41.9 0 65.85,
42 0 65.85,
41.9625 1.19302 65.85,
41.9 1.5 65.85,
42 0 68.35,
41.9625 1.19302 68.35,
41.6635 3.56024 65.85,
41.8502 2.38133 65.85,
41.6635 3.56024 68.35,
41.8502 2.38133 68.35,
41.4031 4.72511 65.85,
40.975 5.84042 65.85,
41.0701 5.87132 65.85,
41.4031 4.72511 68.35,
41.0701 5.87132 68.35,
40.6658 6.99437 65.85,
40.5114 7.26701 65.85,
40.1917 8.08981 65.85,
40.6658 6.99437 68.35,
40.1917 8.08981 68.35,
39.6498 9.15332 58.35,
39.0422 10.1807 58.35,
37.6398 12.1111 58.35,
36.8504 13.0064 58.35,
38.3713 11.1679 58.35,
33.2682 10.9345 60.85,
34.1869 9.98189 60.85,
33.9345 10.2682 60.85,
35.5003 10.9361 62.0167,
34.1869 9.98189 63.3357,
32.5614 11.5577 60.85,
39.6498 9.15332 60.85,
38.2904 11.1091 60.85,
39.0422 10.1807 60.85,
36.382 9.72257 64.6833,
37.0458 10.2049 63.35,
37.6398 12.1111 60.85,
36.8504 13.0064 60.85,
37.4087 12.3227 60.85,
38.3713 11.1679 60.85,
36.1641 11.4184 63.35,
34.1679 15.3713 58.35,
35.1111 14.6398 58.35,
32.1533 16.6498 58.35,
33.1807 16.0422 58.35,
36.0064 13.8504 58.35,
34.1091 15.2904 60.85,
34.1679 15.3713 60.85,
35.1111 14.6398 60.85,
33.2049 14.0458 63.35,
32.7226 13.382 64.6833,
31.9913 14.9275 63.35,
32.1533 16.6498 60.85,
33.1807 16.0422 60.85,
32.8956 16.1721 60.85,
36.0064 13.8504 60.85,
33.2682 10.9345 65.85,
34.1869 9.98189 65.85,
33.9345 10.2682 65.85,
32.5614 11.5577 65.85,
39.6498 9.15332 65.85,
38.2904 11.1091 65.85,
39.0422 10.1807 65.85,
39.6498 9.15332 68.35,
39.0422 10.1807 68.35,
37.6398 12.1111 65.85,
36.8504 13.0064 65.85,
37.4087 12.3227 65.85,
38.3713 11.1679 65.85,
37.6398 12.1111 68.35,
36.8504 13.0064 68.35,
38.3713 11.1679 68.35,
34.1091 15.2904 65.85,
34.1679 15.3713 65.85,
35.1111 14.6398 65.85,
34.1679 15.3713 68.35,
35.1111 14.6398 68.35,
32.1533 16.6498 65.85,
33.1807 16.0422 65.85,
32.8956 16.1721 65.85,
32.1533 16.6498 68.35,
33.1807 16.0422 68.35,
36.0064 13.8504 65.85,
36.0064 13.8504 68.35,
61 19 43.2,
61 20 43.2,
61 20 46.2,
61 20 51.2,
61 20 53.35,
61 27.575 43.2,
61 28.575 43.2,
61 27.575 46.2,
61 32.575 43.2,
61 27.575 51.2,
61 28.575 51.2,
61 28.575 53,
61 29.575 51.2,
61 29.575 53,
61 28.575 56.6,
61 32.575 56.6,
61 28.575 74.2,
64.0043 -19.2212 6,
64.0316 -19.2401 6,
64.0609 -19.2436 6,
64.2139 -19.3042 6,
64.7005 -19.4291 6,
65.1988 -19.4921 6,
65.7012 -19.4921 6,
65.9002 -19.467 6,
65.9321 -19.4708 6,
65.9634 -19.459 6,
66.1995 -19.4291 6,
66.6861 -19.3042 6,
67.1531 -19.1193 6,
67.5933 -18.8773 6,
67.6983 -18.801 6,
67.7223 -18.7919 6,
64.0316 -19.2401 8.2,
65.9321 -19.4708 8.2,
67.7223 -18.7919 8.2,
67.7429 -18.7686 6,
67.9997 -18.5821 6,
68.3659 -18.2382 6,
68.6861 -17.8511 6,
95.45 -22.5 0,
95.45 -22.5 8.2,
64.5984 -17.3097 0,
64.1752 -17.041 0,
63.9921 -16.8691 0,
64.3783 -17.1887 0,
64.832 -17.4021 0,
65.0752 -17.4646 0,
65.3244 -17.4961 0,
65.5756 -17.4961 0,
63.832 -16.6756 0,
65.8248 -17.4646 0,
66.068 -17.4021 0,
66.3016 -17.3097 0,
66.5217 -17.1887 0,
66.7248 -17.041 0,
66.9079 -16.8691 0,
67.068 -16.6756 0,
67.2026 -16.4635 0,
67.3096 -16.2362 0,
67.3872 -15.9974 0,
67.4342 -15.7507 0,
64.5984 -17.3097 3,
64.1752 -17.041 3,
63.9921 -16.8691 3,
64.3783 -17.1887 3,
64.832 -17.4021 3,
65.0752 -17.4646 3,
65.3244 -17.4961 3,
65.5756 -17.4961 3,
63.832 -16.6756 3,
65.8248 -17.4646 3,
66.068 -17.4021 3,
66.3016 -17.3097 3,
66.5217 -17.1887 3,
66.7248 -17.041 3,
66.9079 -16.8691 3,
67.068 -16.6756 3,
67.2026 -16.4635 3,
67.3096 -16.2362 3,
67.3872 -15.9974 3,
67.4342 -15.7507 3,
63.832 -14.3244 0,
63.9921 -14.1309 0,
64.1752 -13.959 0,
64.3783 -13.8113 0,
64.5984 -13.6903 0,
64.832 -13.5979 0,
65.0752 -13.5354 0,
65.3244 -13.5039 0,
65.5756 -13.5039 0,
67.45 -15.5 0,
67.4342 -15.2493 0,
67.2026 -14.5365 0,
67.3872 -15.0026 0,
67.3096 -14.7638 0,
66.7248 -13.959 0,
65.8248 -13.5354 0,
66.068 -13.5979 0,
66.3016 -13.6903 0,
66.5217 -13.8113 0,
67.068 -14.3244 0,
66.9079 -14.1309 0,
63.832 -14.3244 3,
63.9921 -14.1309 3,
64.1752 -13.959 3,
64.3783 -13.8113 3,
64.5984 -13.6903 3,
64.832 -13.5979 3,
65.0752 -13.5354 3,
65.3244 -13.5039 3,
65.5756 -13.5039 3,
67.45 -15.5 3,
67.4342 -15.2493 3,
67.2026 -14.5365 3,
67.3872 -15.0026 3,
67.3096 -14.7638 3,
66.7248 -13.959 3,
65.8248 -13.5354 3,
66.068 -13.5979 3,
66.3016 -13.6903 3,
66.5217 -13.8113 3,
67.068 -14.3244 3,
66.9079 -14.1309 3,
68.9552 -17.427 6,
68.9821 -17.3698 6,
68.9918 -17.3589 6,
68.9968 -17.3386 6,
69.1691 -16.9725 6,
69.3243 -16.4948 6,
69.4185 -16.0013 6,
68.9918 -17.3589 8.2,
69.45 -15.5 6,
69.4185 -14.9987 6,
69.3243 -14.5052 6,
69.1691 -14.0275 6,
68.9968 -13.6614 6,
68.9821 -13.6302 6,
68.9918 -13.6411 6,
68.9552 -13.573 6,
69.45 -15.5 8.2,
68.9918 -13.6411 8.2,
64.0043 -11.7788 6,
64.0316 -11.7599 6,
64.0609 -11.7564 6,
64.2139 -11.6958 6,
64.7005 -11.5709 6,
65.1988 -11.5079 6,
65.7012 -11.5079 6,
66.6861 -11.6958 6,
65.9634 -11.541 6,
65.9002 -11.533 6,
65.9321 -11.5292 6,
66.1995 -11.5709 6,
67.1531 -11.8807 6,
67.5933 -12.1227 6,
67.6983 -12.199 6,
67.7223 -12.2081 6,
64.0316 -11.7599 8.2,
65.9321 -11.5292 8.2,
67.7223 -12.2081 8.2,
68.6861 -13.1489 6,
67.7429 -12.2314 6,
67.9997 -12.4179 6,
68.3659 -12.7618 6,
92.1 -9.7 3.25,
92.45 -10 3,
92.1 -9.7 4.45,
92.45 -10 4.5,
92.1 -4.56111 8.2,
92.45 -4.82 8.2,
127.5 -35.575 8.2,
127.5 -35.575 11.2,
124.5 -19 11.2,
118 -19 19.2,
118 -19 24.2,
124.5 -19 19.2,
124.5 -19 24.2,
117 -10.3715 17.3313,
124.5 -13 11.2,
117 -7.75 15.4266,
117 -4.78976 14.1086,
117 -1.62019 13.4349,
117 -14.16 22.5456,
118 -14.6167 22.1922,
119 -15.6504 25.3734,
118 -15.2691 24.2,
119 -15.2691 24.2,
117 -15.1613 25.6274,
117 -12.5398 19.7393,
118 -13 19.2,
118 -13 19.392,
119 -13 24.2,
124.5 -13 19.2,
124.5 -13 24.2,
119 -16 28.7,
119 -15.6504 32.0266,
117 -15.5 28.85,
117 -15.1613 32.0726,
117 -14.16 35.1544,
119 -14.6167 35.2078,
69.75 -33.325 55.85,
69.75 -32.575 56.3115,
69.75 -32.575 56.6,
69.75 -32.1062 56.6,
69.75 -28.575 58.7731,
72.75 -33.325 55.85,
72.75 -32.575 56.3115,
72.75 -32.575 56.6,
72.75 -32.1062 56.6,
72.75 -28.575 58.7731,
69.75 -33.325 67.85,
69.75 -33.325 69.35,
69.75 -28.575 69.35,
72.75 -33.325 67.85,
72.75 -28.575 67.85,
90.75 -33.325 55.85,
90.75 -32.575 56.3115,
90.75 -32.575 56.6,
90.75 -32.1062 56.6,
93.75 -33.325 55.85,
93.75 -32.575 56.3115,
93.75 -32.575 56.6,
93.75 -32.1062 56.6,
90.75 -28.575 58.7731,
93.75 -28.575 58.7731,
90.75 -33.325 67.85,
93.75 -33.325 67.85,
93.75 -33.325 69.35,
90.75 -28.575 67.85,
93.75 -28.575 69.35,
111.8 -28.575 43.2,
124.5 -32.575 43.2,
124.5 -28.575 43.2,
124.5 -27.575 43.2,
124.5 -28.575 46.2,
124.5 -28.325 46.2,
124.5 -27.5877 46.2,
124.5 -27.575 46.1475,
124.5 -27.575 46.2,
124.5 -29.575 51.2,
124.5 -29.575 53,
124.5 -28.575 51.2,
124.5 -28.575 53,
124.5 -27.575 51.2,
124.5 -19 43.2,
124.5 -32.575 56.6,
124.5 -28.575 56.6,
124.5 -28.575 74.2,
117 -12.5398 37.9607,
119 -13 38.008,
117 -10.3715 40.3687,
124.5 -13 43.2,
117 -7.75 42.2734,
117 -4.78976 43.5914,
119 -6.55447 43.2,
119 -4.94427 43.9169,
117 -1.62019 44.2651,
119 -1.67246 44.6124,
64.7005 11.5709 6,
64.0043 11.7788 6,
64.0316 11.7599 6,
64.0609 11.7564 6,
64.2139 11.6958 6,
65.1988 11.5079 6,
65.7012 11.5079 6,
65.9002 11.533 6,
65.9321 11.5292 6,
65.9634 11.541 6,
66.1995 11.5709 6,
66.6861 11.6958 6,
67.1531 11.8807 6,
67.5933 12.1227 6,
67.6983 12.199 6,
67.7223 12.2081 6,
64.0316 11.7599 8.2,
65.9321 11.5292 8.2,
67.7223 12.2081 8.2,
67.7429 12.2314 6,
67.9997 12.4179 6,
68.3659 12.7618 6,
68.6861 13.1489 6,
64.3783 13.8113 0,
64.5984 13.6903 0,
63.9921 14.1309 0,
64.1752 13.959 0,
63.832 14.3244 0,
64.832 13.5979 0,
65.0752 13.5354 0,
65.3244 13.5039 0,
65.5756 13.5039 0,
65.8248 13.5354 0,
66.068 13.5979 0,
66.3016 13.6903 0,
66.5217 13.8113 0,
66.7248 13.959 0,
66.9079 14.1309 0,
67.068 14.3244 0,
67.2026 14.5365 0,
67.3096 14.7638 0,
67.3872 15.0026 0,
67.4342 15.2493 0,
67.45 15.5 0,
64.3783 13.8113 3,
64.5984 13.6903 3,
63.9921 14.1309 3,
64.1752 13.959 3,
63.832 14.3244 3,
64.832 13.5979 3,
65.0752 13.5354 3,
65.3244 13.5039 3,
65.5756 13.5039 3,
65.8248 13.5354 3,
66.068 13.5979 3,
66.3016 13.6903 3,
66.5217 13.8113 3,
66.7248 13.959 3,
66.9079 14.1309 3,
67.068 14.3244 3,
67.2026 14.5365 3,
67.3096 14.7638 3,
67.3872 15.0026 3,
67.4342 15.2493 3,
67.45 15.5 3,
63.832 16.6756 0,
63.9921 16.8691 0,
64.1752 17.041 0,
64.3783 17.1887 0,
64.5984 17.3097 0,
64.832 17.4021 0,
65.0752 17.4646 0,
65.3244 17.4961 0,
65.5756 17.4961 0,
67.4342 15.7507 0,
67.3872 15.9974 0,
67.2026 16.4635 0,
67.068 16.6756 0,
67.3096 16.2362 0,
66.7248 17.041 0,
66.5217 17.1887 0,
65.8248 17.4646 0,
66.068 17.4021 0,
66.3016 17.3097 0,
66.9079 16.8691 0,
63.832 16.6756 3,
63.9921 16.8691 3,
64.1752 17.041 3,
64.3783 17.1887 3,
64.5984 17.3097 3,
64.832 17.4021 3,
65.0752 17.4646 3,
65.3244 17.4961 3,
65.5756 17.4961 3,
67.4342 15.7507 3,
67.3872 15.9974 3,
67.2026 16.4635 3,
67.068 16.6756 3,
67.3096 16.2362 3,
66.7248 17.041 3,
66.5217 17.1887 3,
65.8248 17.4646 3,
66.068 17.4021 3,
66.3016 17.3097 3,
66.9079 16.8691 3,
68.9552 13.573 6,
68.9821 13.6302 6,
68.9918 13.6411 6,
68.9968 13.6614 6,
69.1691 14.0275 6,
69.3243 14.5052 6,
69.4185 14.9987 6,
69.45 15.5 6,
68.9918 13.6411 8.2,
69.45 15.5 8.2,
69.4185 16.0013 6,
69.3243 16.4948 6,
69.1691 16.9725 6,
68.9552 17.427 6,
68.9968 17.3386 6,
68.9918 17.3589 6,
68.9821 17.3698 6,
68.9918 17.3589 8.2,
92.1 4.56111 8.2,
92.45 4.82 8.2,
92.1 9.7 3.25,
92.45 10 3,
92.1 9.7 4.45,
92.45 10 4.5,
64.0043 19.2212 6,
64.0316 19.2401 6,
64.0609 19.2436 6,
64.2139 19.3042 6,
64.7005 19.4291 6,
65.1988 19.4921 6,
65.7012 19.4921 6,
67.5933 18.8773 6,
67.7223 18.7919 6,
67.6983 18.801 6,
66.1995 19.4291 6,
66.6861 19.3042 6,
65.9002 19.467 6,
65.9634 19.459 6,
65.9321 19.4708 6,
67.1531 19.1193 6,
64.0316 19.2401 8.2,
67.7223 18.7919 8.2,
65.9321 19.4708 8.2,
68.6861 17.8511 6,
68.3659 18.2382 6,
67.9997 18.5821 6,
67.7429 18.7686 6,
95.45 22.5 0,
95.45 22.5 8.2,
117 1.62019 13.4349,
117 4.78976 14.1086,
117 7.75 15.4266,
117 10.3715 17.3313,
124.5 13 11.2,
117 12.5398 19.7393,
119 13 19.392,
117 14.16 22.5456,
119 14.6167 22.1922,
117 15.1613 25.6274,
119 15.6504 25.3734,
117 15.5 28.85,
117 15.1613 32.0726,
119 16 28.7,
119 15.6504 32.0266,
117 14.16 35.1544,
119 14.6167 35.2078,
124.5 19 11.2,
127.5 35.575 8.2,
127.5 35.575 11.2,
73.7 28.575 43.2,
117 1.62019 44.2651,
119 1.67246 44.6124,
117 4.78976 43.5914,
119 4.94427 43.9169,
119 6.55447 43.2,
117 7.75 42.2734,
117 10.3715 40.3687,
117 12.5398 37.9607,
119 13 38.008,
124.5 13 43.2,
124.5 19 43.2,
124.5 27.575 43.2,
124.5 28.575 43.2,
124.5 27.575 46.2,
124.5 32.575 43.2,
124.5 27.575 51.2,
124.5 28.575 51.2,
124.5 28.575 53,
124.5 28.575 54.8,
124.5 29.575 51.2,
124.5 29.575 53,
124.5 27.575 56.6,
124.5 28.575 56.6,
124.5 32.575 56.6,
124.5 28.575 74.2
] }

coordIndex [
3,19,455,-1
3,455,457,-1
19,21,456,-1
19,456,455,-1
3,75,19,-1
3,660,75,-1
19,75,21,-1
75,74,21,-1
75,76,74,-1
77,76,75,-1
77,75,78,-1
78,75,79,-1
75,80,79,-1
75,611,80,-1
75,612,611,-1
82,81,85,-1
89,87,83,-1
82,84,81,-1
84,83,81,-1
84,89,83,-1
76,85,74,-1
86,85,76,-1
86,82,85,-1
90,88,87,-1
89,90,87,-1
90,92,88,-1
92,91,88,-1
92,464,91,-1
464,463,91,-1
3,459,93,-1
294,94,100,-1
294,100,295,-1
94,95,102,-1
94,102,100,-1
95,104,102,-1
95,96,104,-1
96,106,104,-1
98,97,105,-1
96,98,106,-1
98,105,106,-1
97,99,107,-1
97,107,105,-1
99,109,114,-1
99,114,107,-1
100,103,101,-1
102,104,103,-1
100,102,103,-1
101,103,299,-1
105,107,108,-1
107,115,108,-1
107,114,115,-1
108,314,305,-1
305,314,132,-1
109,116,114,-1
109,110,116,-1
110,117,116,-1
110,111,117,-1
111,112,118,-1
111,118,117,-1
112,113,119,-1
112,119,118,-1
113,311,321,-1
113,321,119,-1
114,116,115,-1
108,115,314,-1
118,119,120,-1
119,322,120,-1
121,122,123,-1
334,121,126,-1
121,123,127,-1
123,124,125,-1
122,299,124,-1
122,124,123,-1
124,130,125,-1
123,125,128,-1
334,126,335,-1
121,127,126,-1
123,128,127,-1
125,134,128,-1
130,129,133,-1
125,130,134,-1
129,132,131,-1
131,132,136,-1
132,137,136,-1
129,131,135,-1
131,136,141,-1
130,133,134,-1
129,135,133,-1
131,141,135,-1
136,137,138,-1
132,314,137,-1
136,138,142,-1
138,139,143,-1
139,140,144,-1
136,142,141,-1
138,143,142,-1
139,144,143,-1
140,146,145,-1
145,146,352,-1
140,145,147,-1
145,352,355,-1
140,147,144,-1
145,355,147,-1
3,93,1001,-1
93,149,148,-1
93,150,149,-1
93,148,1001,-1
93,459,151,-1
93,151,150,-1
152,694,875,-1
153,179,156,-1
153,156,157,-1
153,157,154,-1
155,154,159,-1
154,157,159,-1
156,257,157,-1
162,169,181,-1
161,167,160,-1
160,167,166,-1
162,160,166,-1
162,166,169,-1
163,170,161,-1
161,170,167,-1
163,164,172,-1
163,172,170,-1
165,173,164,-1
164,173,172,-1
294,295,165,-1
165,295,173,-1
167,168,185,-1
171,168,167,-1
171,167,170,-1
171,170,172,-1
173,191,172,-1
295,191,173,-1
168,177,175,-1
171,177,168,-1
171,174,177,-1
168,175,192,-1
171,172,191,-1
171,191,174,-1
295,190,191,-1
174,191,193,-1
175,177,205,-1
175,205,176,-1
174,225,177,-1
174,193,225,-1
178,182,179,-1
178,181,182,-1
162,181,178,-1
179,182,156,-1
181,180,182,-1
156,182,180,-1
156,180,158,-1
181,185,180,-1
158,180,183,-1
180,184,183,-1
169,166,185,-1
169,185,181,-1
167,185,166,-1
168,195,185,-1
158,183,186,-1
158,186,254,-1
156,158,257,-1
158,254,255,-1
180,185,184,-1
185,195,188,-1
184,185,188,-1
183,199,186,-1
186,199,187,-1
186,187,254,-1
183,184,222,-1
184,188,222,-1
187,283,254,-1
168,189,194,-1
168,192,189,-1
168,194,195,-1
189,192,226,-1
189,223,194,-1
191,190,193,-1
175,176,192,-1
176,226,192,-1
189,227,223,-1
189,226,227,-1
194,223,228,-1
190,225,193,-1
190,224,225,-1
194,229,195,-1
195,229,188,-1
194,228,229,-1
196,199,219,-1
196,219,197,-1
196,201,198,-1
196,266,199,-1
196,198,266,-1
200,198,202,-1
196,197,201,-1
202,198,201,-1
206,217,203,-1
204,208,203,-1
204,203,217,-1
204,229,205,-1
206,203,207,-1
206,209,220,-1
203,208,207,-1
206,207,209,-1
210,204,205,-1
211,210,205,-1
211,212,210,-1
210,214,204,-1
210,212,215,-1
211,334,213,-1
213,216,212,-1
334,335,213,-1
211,213,212,-1
211,224,334,-1
214,208,204,-1
210,215,214,-1
212,216,215,-1
335,216,213,-1
211,205,177,-1
176,205,227,-1
211,177,225,-1
211,225,224,-1
218,219,217,-1
206,218,217,-1
218,221,219,-1
206,220,218,-1
199,217,219,-1
183,217,199,-1
204,217,229,-1
183,222,217,-1
218,220,221,-1
219,221,197,-1
199,266,284,-1
187,199,284,-1
217,222,229,-1
188,229,222,-1
187,284,283,-1
205,228,223,-1
205,223,227,-1
176,227,226,-1
205,229,228,-1
230,236,231,-1
230,234,236,-1
155,234,230,-1
155,159,234,-1
231,238,232,-1
231,236,238,-1
232,240,233,-1
232,238,240,-1
234,235,236,-1
235,238,236,-1
159,157,257,-1
234,257,235,-1
159,257,234,-1
235,241,237,-1
235,239,238,-1
235,237,239,-1
235,257,241,-1
239,237,242,-1
239,258,260,-1
239,242,258,-1
237,271,242,-1
242,243,258,-1
271,243,242,-1
233,247,244,-1
233,240,247,-1
230,231,714,-1
244,247,248,-1
244,248,245,-1
153,154,771,-1
155,770,154,-1
155,230,769,-1
232,233,712,-1
233,244,711,-1
231,232,713,-1
245,248,250,-1
245,250,246,-1
244,245,700,-1
245,246,699,-1
246,250,701,-1
246,701,697,-1
238,263,240,-1
240,263,247,-1
247,263,248,-1
238,239,263,-1
239,260,261,-1
239,261,262,-1
239,262,263,-1
248,249,250,-1
248,263,249,-1
249,251,252,-1
249,703,250,-1
249,702,703,-1
249,252,702,-1
252,704,702,-1
249,263,251,-1
251,263,264,-1
252,737,704,-1
251,293,252,-1
251,264,293,-1
162,795,160,-1
161,160,796,-1
163,161,797,-1
163,798,164,-1
294,165,932,-1
165,164,799,-1
158,256,257,-1
158,255,253,-1
158,253,256,-1
254,285,255,-1
253,255,282,-1
253,282,286,-1
254,283,285,-1
282,255,285,-1
241,257,259,-1
256,259,257,-1
253,286,256,-1
241,287,237,-1
241,259,287,-1
256,286,259,-1
258,243,288,-1
178,179,778,-1
153,777,179,-1
162,178,794,-1
258,290,260,-1
260,291,261,-1
258,288,290,-1
260,290,291,-1
261,291,292,-1
261,292,262,-1
262,264,263,-1
262,292,264,-1
200,265,266,-1
265,267,266,-1
266,267,271,-1
265,269,267,-1
200,266,198,-1
200,268,265,-1
237,287,266,-1
265,268,269,-1
200,202,268,-1
237,266,271,-1
267,270,271,-1
267,273,270,-1
270,274,272,-1
271,289,243,-1
267,269,273,-1
270,273,274,-1
270,279,271,-1
270,272,279,-1
271,279,289,-1
272,277,275,-1
272,275,279,-1
275,276,279,-1
275,278,276,-1
290,279,291,-1
289,279,290,-1
272,274,277,-1
275,277,278,-1
269,750,273,-1
268,753,269,-1
202,201,815,-1
197,221,818,-1
197,816,201,-1
202,754,268,-1
276,280,279,-1
252,293,279,-1
276,281,280,-1
252,279,737,-1
279,280,737,-1
280,739,736,-1
291,279,292,-1
279,293,292,-1
276,278,281,-1
273,749,274,-1
274,745,277,-1
277,744,278,-1
280,281,739,-1
278,740,281,-1
266,285,284,-1
266,282,285,-1
266,286,282,-1
283,284,285,-1
266,287,286,-1
259,286,287,-1
243,289,288,-1
209,823,220,-1
209,207,836,-1
208,837,207,-1
214,838,208,-1
214,215,843,-1
216,844,215,-1
335,845,216,-1
288,289,290,-1
220,822,221,-1
264,292,293,-1
96,381,98,-1
98,383,97,-1
97,387,99,-1
99,389,109,-1
295,100,300,-1
100,101,300,-1
101,297,303,-1
103,104,302,-1
101,299,297,-1
103,296,299,-1
103,302,296,-1
122,298,297,-1
122,297,299,-1
296,338,299,-1
295,300,190,-1
101,301,300,-1
101,303,301,-1
300,336,190,-1
300,301,337,-1
296,302,304,-1
303,339,301,-1
300,337,336,-1
301,340,337,-1
297,298,303,-1
296,304,338,-1
303,298,339,-1
301,339,340,-1
104,106,302,-1
106,105,308,-1
106,308,307,-1
106,307,302,-1
105,309,308,-1
105,108,309,-1
108,305,310,-1
108,310,309,-1
305,132,306,-1
305,306,310,-1
302,307,304,-1
307,308,342,-1
308,309,343,-1
309,310,344,-1
307,338,304,-1
307,341,338,-1
307,342,341,-1
308,343,342,-1
309,345,343,-1
309,344,345,-1
306,344,310,-1
95,367,96,-1
97,383,384,-1
97,384,385,-1
97,385,386,-1
97,386,387,-1
99,387,388,-1
99,388,389,-1
109,389,390,-1
190,336,224,-1
109,394,110,-1
110,400,111,-1
311,312,323,-1
311,323,321,-1
312,473,478,-1
312,478,323,-1
115,116,315,-1
115,315,313,-1
116,117,316,-1
115,313,314,-1
116,316,315,-1
117,317,316,-1
117,118,317,-1
118,120,318,-1
118,318,317,-1
120,319,318,-1
313,346,314,-1
313,315,320,-1
315,316,320,-1
316,317,348,-1
317,318,349,-1
318,319,350,-1
313,320,346,-1
316,346,320,-1
316,347,346,-1
316,348,347,-1
317,349,348,-1
319,326,350,-1
318,351,349,-1
318,350,351,-1
119,321,322,-1
120,322,325,-1
120,325,324,-1
120,324,319,-1
322,327,325,-1
321,323,322,-1
322,323,328,-1
324,146,326,-1
324,325,146,-1
322,328,327,-1
323,329,328,-1
327,328,330,-1
328,329,330,-1
323,331,329,-1
323,332,331,-1
324,326,319,-1
325,327,357,-1
327,330,357,-1
329,357,330,-1
329,358,357,-1
329,359,358,-1
109,390,391,-1
109,391,392,-1
329,331,359,-1
331,332,360,-1
332,333,361,-1
331,360,359,-1
332,362,360,-1
332,361,362,-1
334,337,121,-1
121,337,122,-1
122,340,298,-1
124,341,130,-1
299,338,124,-1
124,338,341,-1
334,336,337,-1
334,224,336,-1
122,337,340,-1
298,340,339,-1
130,343,129,-1
130,341,342,-1
130,342,343,-1
129,345,132,-1
306,132,345,-1
129,343,345,-1
306,345,344,-1
128,134,422,-1
134,133,415,-1
133,135,426,-1
135,141,429,-1
133,424,418,-1
133,425,424,-1
133,426,425,-1
135,427,426,-1
135,429,427,-1
141,430,429,-1
141,431,430,-1
141,432,431,-1
314,346,137,-1
137,347,138,-1
137,346,347,-1
138,347,348,-1
138,348,139,-1
139,351,140,-1
139,348,349,-1
139,349,351,-1
326,351,350,-1
141,142,433,-1
142,143,440,-1
140,351,146,-1
146,353,352,-1
325,353,146,-1
146,351,326,-1
325,357,353,-1
352,353,354,-1
352,354,356,-1
354,509,511,-1
353,360,354,-1
352,356,355,-1
354,511,356,-1
353,357,358,-1
353,358,359,-1
354,362,509,-1
353,359,360,-1
354,360,362,-1
141,433,432,-1
96,382,380,-1
96,363,382,-1
96,364,363,-1
95,369,368,-1
95,370,369,-1
95,371,370,-1
95,365,367,-1
96,366,364,-1
96,367,366,-1
95,368,365,-1
294,1002,94,-1
94,1003,95,-1
95,372,371,-1
95,373,372,-1
95,846,373,-1
96,379,381,-1
98,381,374,-1
98,374,376,-1
96,380,379,-1
98,375,377,-1
98,376,375,-1
98,377,378,-1
98,378,383,-1
149,150,428,-1
150,151,439,-1
149,411,148,-1
364,366,405,-1
363,364,403,-1
367,365,404,-1
367,406,366,-1
365,368,407,-1
368,369,408,-1
369,370,409,-1
371,410,370,-1
371,372,412,-1
372,373,413,-1
373,846,887,-1
148,411,892,-1
376,374,414,-1
377,375,415,-1
376,416,375,-1
377,417,378,-1
383,378,418,-1
380,382,422,-1
380,420,379,-1
381,379,419,-1
381,421,374,-1
363,402,382,-1
383,424,384,-1
384,425,385,-1
385,426,386,-1
386,427,387,-1
387,429,388,-1
388,430,389,-1
389,431,390,-1
390,432,391,-1
149,428,423,-1
150,439,428,-1
149,423,411,-1
109,392,393,-1
109,393,394,-1
110,394,395,-1
110,395,396,-1
110,396,397,-1
110,397,398,-1
110,398,399,-1
110,399,400,-1
111,400,401,-1
111,401,875,-1
111,1020,112,-1
112,1021,113,-1
113,956,311,-1
311,957,312,-1
312,1164,473,-1
151,152,444,-1
152,875,401,-1
152,401,444,-1
391,433,392,-1
392,434,393,-1
393,435,394,-1
394,436,395,-1
395,437,396,-1
396,438,397,-1
397,440,398,-1
398,441,399,-1
399,442,400,-1
400,443,401,-1
151,444,439,-1
128,422,402,-1
128,402,403,-1
128,406,404,-1
128,404,407,-1
128,403,405,-1
128,405,406,-1
128,407,408,-1
128,408,409,-1
128,409,410,-1
335,126,979,-1
126,127,1033,-1
127,128,1034,-1
128,410,412,-1
128,412,413,-1
128,413,887,-1
134,421,419,-1
134,414,421,-1
134,416,414,-1
134,420,422,-1
134,419,420,-1
134,415,416,-1
133,417,415,-1
133,418,417,-1
363,403,402,-1
364,405,403,-1
367,404,406,-1
366,406,405,-1
365,407,404,-1
368,408,407,-1
369,409,408,-1
370,410,409,-1
371,412,410,-1
372,413,412,-1
373,887,413,-1
128,887,1034,-1
374,421,414,-1
383,418,424,-1
375,416,415,-1
376,414,416,-1
377,415,417,-1
378,417,418,-1
379,420,419,-1
380,422,420,-1
381,419,421,-1
382,402,422,-1
384,424,425,-1
385,425,426,-1
386,426,427,-1
387,427,429,-1
388,429,430,-1
389,430,431,-1
390,431,432,-1
423,428,901,-1
423,892,411,-1
428,439,910,-1
142,434,433,-1
142,435,434,-1
142,436,435,-1
142,437,436,-1
142,438,437,-1
142,440,438,-1
143,441,440,-1
143,442,441,-1
143,443,442,-1
143,144,1051,-1
144,147,1052,-1
147,355,1055,-1
355,356,999,-1
356,511,1000,-1
391,432,433,-1
392,433,434,-1
393,434,435,-1
394,435,436,-1
395,436,437,-1
396,437,438,-1
397,438,440,-1
398,440,441,-1
399,441,442,-1
400,442,443,-1
401,443,445,-1
401,445,444,-1
439,444,921,-1
143,1051,443,-1
444,445,919,-1
3,457,458,-1
3,458,459,-1
151,459,152,-1
152,459,694,-1
694,459,695,-1
695,459,696,-1
464,465,463,-1
465,466,463,-1
465,467,466,-1
467,468,466,-1
467,469,468,-1
469,470,468,-1
469,472,470,-1
472,471,470,-1
472,1056,471,-1
457,1207,458,-1
473,474,479,-1
473,479,478,-1
474,475,481,-1
474,481,479,-1
475,482,481,-1
475,476,482,-1
476,477,486,-1
476,486,482,-1
477,487,486,-1
323,478,480,-1
478,479,480,-1
479,481,480,-1
323,480,332,-1
332,480,333,-1
480,484,333,-1
481,483,480,-1
481,482,483,-1
482,486,483,-1
480,483,495,-1
480,495,484,-1
493,495,483,-1
484,513,485,-1
484,495,513,-1
487,499,486,-1
487,488,499,-1
499,488,500,-1
488,489,500,-1
489,501,500,-1
489,490,501,-1
490,503,501,-1
490,491,503,-1
491,505,503,-1
493,492,494,-1
483,486,492,-1
493,483,492,-1
486,502,492,-1
484,485,333,-1
493,521,495,-1
485,361,333,-1
493,494,521,-1
492,496,494,-1
496,497,522,-1
492,502,496,-1
496,502,497,-1
497,502,498,-1
497,498,523,-1
498,537,524,-1
496,521,494,-1
496,522,521,-1
497,523,522,-1
498,524,523,-1
524,537,570,-1
507,570,537,-1
486,499,502,-1
499,500,502,-1
500,501,502,-1
502,506,537,-1
502,508,506,-1
498,502,537,-1
502,501,504,-1
501,503,504,-1
503,505,504,-1
502,504,508,-1
508,504,538,-1
506,508,531,-1
507,506,531,-1
507,537,506,-1
510,513,514,-1
509,510,512,-1
510,514,517,-1
509,512,511,-1
510,517,512,-1
509,362,510,-1
510,362,513,-1
485,513,362,-1
514,513,515,-1
513,516,515,-1
514,515,518,-1
495,516,513,-1
515,516,519,-1
515,519,520,-1
514,518,517,-1
515,520,518,-1
519,525,520,-1
485,362,361,-1
516,521,522,-1
495,521,516,-1
516,571,519,-1
516,522,523,-1
516,523,524,-1
516,524,571,-1
507,571,570,-1
524,570,571,-1
525,526,528,-1
519,571,525,-1
525,571,526,-1
526,531,527,-1
526,527,529,-1
525,528,520,-1
528,526,529,-1
527,530,529,-1
526,571,531,-1
507,531,571,-1
531,532,527,-1
531,533,532,-1
527,532,530,-1
508,533,531,-1
532,533,534,-1
532,534,535,-1
530,532,535,-1
534,536,535,-1
473,1165,474,-1
474,1162,475,-1
475,1163,476,-1
476,1166,477,-1
491,553,505,-1
477,1144,487,-1
539,538,504,-1
539,541,538,-1
539,560,540,-1
539,540,541,-1
540,542,573,-1
539,504,505,-1
539,505,560,-1
538,541,572,-1
508,538,572,-1
540,573,541,-1
542,543,574,-1
543,544,575,-1
540,560,542,-1
542,560,543,-1
543,560,544,-1
560,545,544,-1
542,574,573,-1
543,575,574,-1
575,544,576,-1
544,546,576,-1
544,545,546,-1
587,546,545,-1
487,1143,488,-1
488,1145,489,-1
489,1142,490,-1
490,1141,491,-1
547,548,550,-1
548,551,579,-1
547,549,565,-1
547,550,549,-1
548,579,550,-1
550,578,549,-1
578,568,549,-1
547,1089,548,-1
548,1089,551,-1
551,552,580,-1
551,1089,552,-1
552,1089,1066,-1
552,1066,581,-1
579,551,580,-1
552,581,580,-1
1066,1107,581,-1
553,557,505,-1
553,554,557,-1
554,558,557,-1
554,555,558,-1
555,559,558,-1
555,556,559,-1
559,556,561,-1
505,557,560,-1
557,558,560,-1
558,559,560,-1
559,565,560,-1
559,561,565,-1
560,568,545,-1
560,565,568,-1
587,545,568,-1
556,562,561,-1
562,566,561,-1
491,1100,553,-1
553,1099,554,-1
554,1098,555,-1
562,563,566,-1
563,567,566,-1
555,1097,556,-1
556,1087,562,-1
562,1088,563,-1
563,564,567,-1
564,569,567,-1
563,1086,564,-1
564,1085,569,-1
1085,1090,569,-1
547,565,566,-1
561,566,565,-1
549,568,565,-1
547,566,1089,-1
566,567,1089,-1
567,569,1089,-1
511,512,1201,-1
512,517,1202,-1
517,518,1196,-1
518,520,1197,-1
508,572,533,-1
572,573,533,-1
573,574,533,-1
541,573,572,-1
574,575,533,-1
575,577,533,-1
533,577,534,-1
534,582,536,-1
534,577,582,-1
576,546,577,-1
575,576,577,-1
582,577,583,-1
583,577,587,-1
587,577,546,-1
550,579,578,-1
578,591,568,-1
578,579,591,-1
579,580,591,-1
580,581,591,-1
520,528,1204,-1
528,529,1191,-1
529,530,1190,-1
530,535,1192,-1
535,536,1185,-1
536,584,1184,-1
581,1108,591,-1
581,1107,1108,-1
582,583,584,-1
536,582,584,-1
584,583,585,-1
583,587,586,-1
583,586,585,-1
587,568,591,-1
586,587,588,-1
587,591,588,-1
586,588,589,-1
586,589,585,-1
589,588,590,-1
588,591,592,-1
588,592,590,-1
1108,592,591,-1
592,593,594,-1
590,592,594,-1
584,585,1140,-1
593,595,594,-1
1108,593,592,-1
1108,1121,593,-1
593,596,595,-1
593,1123,596,-1
593,1121,1123,-1
596,1122,597,-1
585,589,1139,-1
589,590,1135,-1
590,594,1134,-1
594,595,1129,-1
595,596,597,-1
597,1122,1125,-1
595,597,1130,-1
3,602,690,-1
3,1001,602,-1
602,1001,690,-1
3,690,660,-1
75,613,612,-1
75,659,613,-1
75,660,659,-1
659,660,661,-1
660,663,661,-1
660,689,663,-1
660,690,689,-1
661,663,664,-1
661,664,665,-1
665,664,667,-1
665,667,666,-1
666,667,669,-1
666,669,668,-1
668,672,670,-1
668,669,672,-1
1063,674,1064,-1
670,672,671,-1
671,672,673,-1
671,673,675,-1
671,675,674,-1
674,675,1064,-1
690,1206,689,-1
1206,1205,689,-1
148,691,1001,-1
691,692,1001,-1
692,693,1001,-1
693,696,1001,-1
694,695,876,-1
696,459,1001,-1
246,697,698,-1
246,698,699,-1
697,701,703,-1
697,703,698,-1
245,699,700,-1
244,700,711,-1
233,711,712,-1
698,703,706,-1
698,706,699,-1
232,712,713,-1
231,713,714,-1
699,706,707,-1
699,707,700,-1
700,715,711,-1
700,707,715,-1
230,714,769,-1
155,769,770,-1
154,770,771,-1
153,771,777,-1
250,703,701,-1
702,704,722,-1
702,706,703,-1
702,707,706,-1
702,722,723,-1
702,723,724,-1
702,724,725,-1
702,725,726,-1
704,737,705,-1
704,705,722,-1
705,755,722,-1
702,726,707,-1
707,708,715,-1
707,726,708,-1
708,709,710,-1
708,726,709,-1
726,727,709,-1
710,709,760,-1
727,760,709,-1
711,716,712,-1
711,715,716,-1
712,720,713,-1
712,716,720,-1
713,721,714,-1
713,720,721,-1
714,772,769,-1
714,721,772,-1
708,716,715,-1
708,717,716,-1
708,710,717,-1
710,718,717,-1
716,717,720,-1
728,729,717,-1
728,717,718,-1
717,729,730,-1
710,748,718,-1
728,718,719,-1
718,748,719,-1
717,721,720,-1
717,772,721,-1
717,733,772,-1
733,773,772,-1
179,777,778,-1
722,757,723,-1
723,758,724,-1
722,755,757,-1
723,757,758,-1
724,758,759,-1
724,759,725,-1
725,727,726,-1
725,759,727,-1
178,778,794,-1
162,794,795,-1
160,795,796,-1
161,796,797,-1
163,797,798,-1
164,798,799,-1
165,799,932,-1
728,763,729,-1
717,730,731,-1
729,764,730,-1
728,719,761,-1
728,761,763,-1
729,763,764,-1
730,764,765,-1
717,731,733,-1
730,765,731,-1
733,732,773,-1
733,735,732,-1
731,735,733,-1
731,765,735,-1
732,766,780,-1
732,735,766,-1
280,736,738,-1
280,741,737,-1
280,738,741,-1
737,741,756,-1
736,740,738,-1
756,741,742,-1
738,744,741,-1
705,737,756,-1
705,756,755,-1
756,743,757,-1
736,739,740,-1
281,740,739,-1
278,744,740,-1
277,745,744,-1
738,740,744,-1
274,749,745,-1
273,750,749,-1
269,753,750,-1
756,742,743,-1
741,745,742,-1
742,746,743,-1
742,749,746,-1
757,743,758,-1
743,759,758,-1
710,760,743,-1
743,760,759,-1
741,744,745,-1
268,754,753,-1
742,745,749,-1
202,815,754,-1
201,816,815,-1
197,818,816,-1
743,746,748,-1
746,747,748,-1
710,743,748,-1
746,750,747,-1
747,751,748,-1
747,753,751,-1
762,719,748,-1
762,748,751,-1
762,751,752,-1
746,749,750,-1
747,750,753,-1
751,754,752,-1
762,752,811,-1
762,811,812,-1
752,815,811,-1
751,753,754,-1
752,754,815,-1
755,756,757,-1
727,759,760,-1
221,822,818,-1
220,823,822,-1
209,836,823,-1
761,719,762,-1
761,762,763,-1
207,837,836,-1
208,838,837,-1
762,812,763,-1
763,812,764,-1
764,812,765,-1
765,812,766,-1
766,812,780,-1
735,765,766,-1
214,843,838,-1
215,844,843,-1
216,845,844,-1
335,979,845,-1
769,774,770,-1
769,772,774,-1
770,774,776,-1
770,776,771,-1
771,776,783,-1
772,773,774,-1
732,780,773,-1
773,780,775,-1
773,776,774,-1
773,775,776,-1
775,783,776,-1
771,783,777,-1
777,784,778,-1
777,783,784,-1
778,784,800,-1
780,782,775,-1
782,734,775,-1
775,734,779,-1
734,819,779,-1
775,779,786,-1
775,786,787,-1
775,787,788,-1
779,824,786,-1
782,781,734,-1
780,814,782,-1
782,814,781,-1
781,767,734,-1
734,767,819,-1
779,819,824,-1
775,784,783,-1
775,800,784,-1
775,788,800,-1
788,789,801,-1
800,788,801,-1
787,793,788,-1
786,825,787,-1
787,826,793,-1
786,824,825,-1
787,825,826,-1
788,793,789,-1
790,827,791,-1
791,829,792,-1
793,826,789,-1
826,785,789,-1
806,790,805,-1
806,827,790,-1
791,827,828,-1
791,828,829,-1
792,829,830,-1
778,800,794,-1
794,800,795,-1
795,800,802,-1
795,802,796,-1
796,802,804,-1
796,804,797,-1
804,807,797,-1
797,807,798,-1
798,807,808,-1
798,808,799,-1
799,808,809,-1
799,809,932,-1
932,809,939,-1
800,801,802,-1
789,785,801,-1
785,803,801,-1
801,804,802,-1
801,803,804,-1
803,790,791,-1
785,805,803,-1
803,805,790,-1
803,791,809,-1
791,792,809,-1
792,933,809,-1
785,834,805,-1
806,805,834,-1
803,807,804,-1
803,808,807,-1
803,809,808,-1
934,810,809,-1
809,810,939,-1
811,813,812,-1
780,812,814,-1
811,816,813,-1
812,813,814,-1
813,817,814,-1
813,818,817,-1
811,815,816,-1
813,816,818,-1
814,817,820,-1
817,818,822,-1
781,814,768,-1
814,820,768,-1
781,768,767,-1
767,768,819,-1
768,832,819,-1
820,821,768,-1
817,822,820,-1
820,823,821,-1
821,831,768,-1
819,832,824,-1
824,832,825,-1
831,832,768,-1
826,832,785,-1
820,822,823,-1
821,823,836,-1
825,832,826,-1
806,828,827,-1
821,836,831,-1
831,833,832,-1
785,832,834,-1
831,836,833,-1
832,833,834,-1
833,835,834,-1
833,837,835,-1
836,837,833,-1
835,837,838,-1
806,834,828,-1
834,839,828,-1
828,839,840,-1
828,841,829,-1
829,842,830,-1
828,840,841,-1
834,835,839,-1
835,838,839,-1
839,843,840,-1
829,841,842,-1
841,978,842,-1
840,844,841,-1
841,845,978,-1
838,843,839,-1
843,844,840,-1
841,844,845,-1
845,979,978,-1
95,1004,846,-1
148,892,691,-1
691,901,692,-1
692,901,693,-1
693,910,696,-1
846,847,888,-1
847,848,889,-1
848,849,890,-1
849,850,891,-1
850,851,893,-1
851,852,894,-1
852,853,895,-1
853,854,896,-1
854,855,897,-1
855,856,898,-1
856,857,899,-1
691,892,901,-1
857,858,900,-1
858,859,902,-1
859,860,903,-1
860,861,904,-1
861,862,905,-1
862,863,906,-1
863,864,907,-1
864,865,908,-1
865,866,909,-1
866,867,911,-1
867,868,912,-1
868,869,913,-1
869,870,914,-1
870,871,915,-1
871,872,916,-1
872,873,917,-1
873,874,918,-1
693,901,910,-1
696,910,921,-1
294,932,1002,-1
94,1002,1003,-1
95,1003,1004,-1
846,1004,847,-1
847,1004,848,-1
848,1004,849,-1
849,1004,850,-1
850,1004,851,-1
851,1004,852,-1
852,1004,853,-1
853,1004,854,-1
854,1004,855,-1
855,1004,856,-1
856,1004,857,-1
857,1004,858,-1
858,1005,859,-1
859,1005,860,-1
860,1005,861,-1
861,1005,862,-1
862,1005,863,-1
863,1005,864,-1
864,1006,865,-1
865,1006,866,-1
694,876,875,-1
111,875,1019,-1
695,920,876,-1
695,696,921,-1
876,919,886,-1
877,922,885,-1
886,931,878,-1
879,878,923,-1
877,879,924,-1
883,880,925,-1
882,884,929,-1
882,927,881,-1
880,881,926,-1
874,883,928,-1
885,930,884,-1
695,921,920,-1
111,1019,1020,-1
883,1017,880,-1
880,1017,881,-1
882,881,1017,-1
885,884,1017,-1
877,885,1017,-1
882,1017,884,-1
877,1019,879,-1
875,876,1019,-1
876,886,1019,-1
886,878,1019,-1
879,1019,878,-1
112,1020,1021,-1
113,1021,956,-1
312,957,1164,-1
311,956,957,-1
846,888,887,-1
847,889,888,-1
848,890,889,-1
849,891,890,-1
850,893,891,-1
851,894,893,-1
852,895,894,-1
853,896,895,-1
854,897,896,-1
855,898,897,-1
856,899,898,-1
423,901,892,-1
428,910,901,-1
439,921,910,-1
857,900,899,-1
858,902,900,-1
859,903,902,-1
860,904,903,-1
861,905,904,-1
862,906,905,-1
863,907,906,-1
864,908,907,-1
865,909,908,-1
866,911,909,-1
867,912,911,-1
868,913,912,-1
869,914,913,-1
870,915,914,-1
871,916,915,-1
872,917,916,-1
873,918,917,-1
874,928,918,-1
126,1033,979,-1
127,1034,1033,-1
887,888,1034,-1
888,889,1034,-1
889,890,1034,-1
890,891,1034,-1
891,893,1034,-1
893,894,1034,-1
894,895,1034,-1
895,896,1034,-1
896,897,1035,-1
897,898,1035,-1
898,899,1035,-1
899,900,1035,-1
900,902,1035,-1
902,903,1035,-1
903,904,1035,-1
904,905,1041,-1
905,906,1041,-1
906,907,1041,-1
907,908,1041,-1
908,909,1041,-1
909,911,1041,-1
876,920,919,-1
444,920,921,-1
444,919,920,-1
878,931,923,-1
879,923,924,-1
877,924,922,-1
880,926,925,-1
881,927,926,-1
882,929,927,-1
883,925,928,-1
884,930,929,-1
885,922,930,-1
886,919,931,-1
443,1051,445,-1
445,1051,919,-1
144,1052,1051,-1
925,926,1050,-1
927,1050,926,-1
924,923,1049,-1
931,1049,923,-1
930,1049,929,-1
922,1049,930,-1
927,929,1049,-1
922,924,1049,-1
919,1051,931,-1
147,1055,1052,-1
355,999,1055,-1
356,1000,999,-1
511,1201,1000,-1
866,1006,867,-1
867,1006,868,-1
868,1006,869,-1
869,1007,870,-1
870,1007,871,-1
871,1018,872,-1
872,1018,873,-1
873,1018,874,-1
792,830,933,-1
858,1004,1005,-1
864,1005,1006,-1
869,1006,1007,-1
871,1007,1018,-1
933,938,934,-1
934,938,935,-1
933,934,809,-1
934,935,810,-1
936,975,937,-1
937,977,943,-1
933,974,938,-1
938,974,935,-1
933,830,973,-1
933,973,974,-1
935,974,940,-1
937,975,976,-1
937,976,977,-1
936,941,942,-1
936,942,975,-1
943,977,980,-1
935,940,810,-1
1008,941,936,-1
810,1009,939,-1
940,1008,810,-1
940,941,1008,-1
1008,936,937,-1
937,943,1010,-1
1008,937,1010,-1
943,1011,1010,-1
940,1029,941,-1
1029,942,941,-1
943,980,944,-1
944,947,945,-1
945,947,948,-1
946,983,958,-1
944,982,947,-1
947,982,948,-1
944,980,981,-1
944,981,982,-1
958,983,984,-1
958,984,989,-1
946,950,983,-1
943,944,1011,-1
944,945,1012,-1
944,1012,1011,-1
945,948,1013,-1
945,1013,1012,-1
948,949,1013,-1
946,958,1015,-1
958,1023,1015,-1
946,1015,951,-1
982,949,948,-1
946,951,950,-1
950,951,1039,-1
874,1018,883,-1
954,953,955,-1
953,988,955,-1
953,996,987,-1
953,987,988,-1
883,1018,1017,-1
877,1017,1019,-1
957,956,969,-1
957,969,970,-1
957,970,1164,-1
970,1173,1164,-1
958,989,959,-1
959,990,960,-1
960,963,962,-1
962,963,964,-1
989,990,959,-1
960,990,991,-1
960,994,963,-1
963,994,964,-1
960,991,994,-1
961,972,992,-1
958,959,1023,-1
960,962,1022,-1
959,960,1022,-1
959,1022,1023,-1
962,964,1025,-1
962,1024,1022,-1
962,1025,1024,-1
964,965,1025,-1
994,965,964,-1
967,966,995,-1
961,992,966,-1
967,996,953,-1
961,966,1027,-1
967,953,969,-1
967,1027,966,-1
954,955,968,-1
954,969,953,-1
954,968,1175,-1
954,1175,1173,-1
966,992,993,-1
966,993,995,-1
967,995,996,-1
961,971,972,-1
955,988,968,-1
988,1172,968,-1
967,1028,1027,-1
967,969,1028,-1
961,1027,971,-1
965,971,1027,-1
954,970,969,-1
954,1173,970,-1
965,1053,971,-1
972,971,1053,-1
896,1035,1034,-1
911,912,1042,-1
912,913,1042,-1
913,914,1042,-1
914,915,1042,-1
915,916,1043,-1
916,917,1043,-1
917,918,1050,-1
830,842,973,-1
973,842,974,-1
975,942,976,-1
974,842,940,-1
1029,976,942,-1
940,842,1029,-1
842,978,1029,-1
976,1032,977,-1
977,1032,980,-1
1029,1031,976,-1
976,1031,1032,-1
983,950,984,-1
904,1041,1035,-1
911,1042,1041,-1
915,1043,1042,-1
917,1050,1043,-1
980,1036,981,-1
981,1037,982,-1
980,1032,1036,-1
982,1037,949,-1
981,1036,1037,-1
984,1045,989,-1
984,950,1039,-1
984,1039,1045,-1
918,928,1050,-1
928,925,1050,-1
992,972,993,-1
927,1049,1050,-1
931,1051,1049,-1
989,1044,990,-1
990,1044,991,-1
989,1045,1044,-1
991,1047,994,-1
994,1047,965,-1
991,1044,1047,-1
993,1053,995,-1
996,997,987,-1
996,995,997,-1
988,987,1200,-1
988,1200,1172,-1
993,972,1053,-1
995,1053,1054,-1
995,1054,997,-1
987,997,1200,-1
998,1200,997,-1
998,997,999,-1
998,1000,1198,-1
998,999,1000,-1
1000,1201,1198,-1
932,939,1002,-1
1002,939,1009,-1
1002,1009,1003,-1
1009,1010,1003,-1
1003,1010,1004,-1
1004,1011,1005,-1
1004,1010,1011,-1
1005,1011,1012,-1
1005,1012,1006,-1
1006,1012,1014,-1
1006,1014,1007,-1
1007,1014,1016,-1
1007,1016,1018,-1
1018,1016,1023,-1
810,1008,1009,-1
1008,1010,1009,-1
1012,1013,1014,-1
1015,949,951,-1
1013,949,1015,-1
1013,1016,1014,-1
1013,1015,1016,-1
1015,1023,1016,-1
949,1039,951,-1
1017,1022,1019,-1
1017,1023,1022,-1
1018,1023,1017,-1
1019,1022,1024,-1
1019,1024,1020,-1
1020,1024,1026,-1
1020,1026,1021,-1
1021,1026,1028,-1
1021,1028,956,-1
956,1028,969,-1
1024,1025,1026,-1
965,1027,1025,-1
1025,1028,1026,-1
1025,1027,1028,-1
978,1030,1029,-1
1029,1030,1031,-1
978,979,1030,-1
1030,1033,1031,-1
1031,1034,1032,-1
1032,1035,1036,-1
1030,979,1033,-1
1033,1034,1031,-1
1032,1034,1035,-1
1036,1041,1038,-1
1036,1038,1037,-1
949,1037,1039,-1
1037,1038,1039,-1
1038,1040,1039,-1
1039,1040,1045,-1
1038,1042,1040,-1
1040,1043,1045,-1
1036,1035,1041,-1
1041,1042,1038,-1
1040,1042,1043,-1
1045,1043,1050,-1
1044,1049,1046,-1
1045,1050,1044,-1
1044,1046,1047,-1
965,1047,1053,-1
1046,1048,1047,-1
1046,1051,1048,-1
1050,1049,1044,-1
1046,1049,1051,-1
1048,1051,1052,-1
1047,1048,1053,-1
1048,1054,1053,-1
1048,1052,1054,-1
1054,1055,997,-1
1052,1055,1054,-1
997,1055,999,-1
1001,459,1209,-1
1056,1057,471,-1
1058,1059,1057,-1
1056,1058,1057,-1
1058,1060,1059,-1
1061,1060,1058,-1
1061,1062,1060,-1
1207,1208,458,-1
1062,1063,1065,-1
1063,1064,1065,-1
1062,1065,1060,-1
477,1166,1144,-1
487,1144,1143,-1
491,1141,1100,-1
490,1142,1141,-1
488,1143,1145,-1
489,1145,1142,-1
1068,1072,1110,-1
1067,1069,1092,-1
1067,1068,1071,-1
1067,1071,1069,-1
1066,1093,1070,-1
1066,1070,1107,-1
1071,1109,1069,-1
1071,1068,1110,-1
1109,1094,1069,-1
1072,1073,1111,-1
1073,1076,1112,-1
1067,1102,1068,-1
1072,1102,1073,-1
1068,1102,1072,-1
1072,1111,1110,-1
1073,1112,1111,-1
1076,1116,1112,-1
473,1164,1165,-1
474,1165,1162,-1
475,1162,1163,-1
476,1163,1166,-1
1106,1141,1152,-1
1074,1075,1113,-1
1074,1113,1120,-1
1113,1075,1114,-1
1077,1078,1080,-1
1078,1083,1119,-1
1077,1080,1079,-1
1073,1102,1076,-1
1076,1102,1081,-1
1077,1079,1105,-1
1076,1082,1116,-1
1078,1119,1080,-1
1079,1080,1118,-1
1076,1081,1082,-1
1081,1132,1082,-1
1079,1118,1084,-1
1083,1074,1120,-1
1083,1153,1074,-1
1077,1153,1078,-1
1078,1153,1083,-1
1077,1105,1106,-1
1077,1106,1152,-1
1079,1084,1105,-1
1077,1152,1154,-1
1083,1120,1119,-1
562,1087,1088,-1
554,1099,1098,-1
555,1098,1097,-1
556,1097,1087,-1
564,1086,1085,-1
563,1088,1086,-1
1085,1086,1090,-1
1086,1091,1090,-1
1086,1088,1091,-1
1091,1088,1096,-1
553,1100,1099,-1
1088,1087,1096,-1
1087,1095,1096,-1
1087,1097,1095,-1
1097,1101,1095,-1
1066,1089,1093,-1
1089,1094,1093,-1
1089,1092,1094,-1
1067,1092,1096,-1
1069,1094,1092,-1
569,1092,1089,-1
569,1090,1091,-1
569,1091,1092,-1
1091,1096,1092,-1
1093,1121,1070,-1
1093,1094,1121,-1
1067,1096,1095,-1
1067,1095,1101,-1
1067,1101,1103,-1
1067,1103,1102,-1
1097,1098,1101,-1
1098,1103,1101,-1
1099,1104,1103,-1
1098,1099,1103,-1
1100,1104,1099,-1
1100,1106,1104,-1
1100,1141,1106,-1
1102,1103,1105,-1
1102,1084,1081,-1
1102,1105,1084,-1
1081,1084,1132,-1
1103,1104,1105,-1
1106,1105,1104,-1
1107,1070,1108,-1
1108,1070,1121,-1
1071,1110,1109,-1
1109,1110,1124,-1
1124,1110,1111,-1
1112,1116,1117,-1
1124,1111,1112,-1
1124,1112,1117,-1
529,1190,1191,-1
535,1185,1192,-1
530,1192,1190,-1
536,1184,1185,-1
512,1202,1201,-1
517,1196,1202,-1
518,1197,1196,-1
520,1204,1197,-1
1113,1114,1115,-1
1116,1082,1117,-1
1080,1119,1118,-1
1117,1082,1132,-1
1118,1119,1137,-1
528,1191,1204,-1
1119,1120,1137,-1
1120,1113,1137,-1
1113,1115,1137,-1
1118,1137,1084,-1
1137,1183,1181,-1
1140,1181,1184,-1
1094,1124,1121,-1
1109,1124,1094,-1
596,1123,1122,-1
1121,1124,1123,-1
1122,1123,1125,-1
1123,1124,1128,-1
1123,1128,1126,-1
595,1130,1129,-1
594,1129,1134,-1
590,1134,1135,-1
597,1125,1126,-1
1123,1126,1125,-1
597,1126,1130,-1
1126,1128,1130,-1
1124,1127,1128,-1
1124,1131,1127,-1
1128,1127,1130,-1
1124,1117,1132,-1
1124,1132,1133,-1
1124,1133,1131,-1
1127,1131,1129,-1
585,1139,1140,-1
584,1140,1184,-1
589,1135,1139,-1
1130,1127,1129,-1
1131,1134,1129,-1
1131,1133,1134,-1
1084,1137,1132,-1
1132,1136,1133,-1
1133,1136,1135,-1
1134,1133,1135,-1
1135,1136,1139,-1
1132,1137,1136,-1
1138,1136,1137,-1
1138,1139,1136,-1
1138,1137,1181,-1
1138,1181,1140,-1
1138,1140,1139,-1
1141,1142,1152,-1
1142,1154,1152,-1
1145,1154,1142,-1
1145,1160,1154,-1
1144,1166,1158,-1
1143,1144,1157,-1
1144,1158,1157,-1
1145,1143,1160,-1
1143,1157,1160,-1
1148,1146,1179,-1
1147,1149,1159,-1
1148,1150,1147,-1
1147,1150,1149,-1
1146,1177,1179,-1
1075,1155,1114,-1
1148,1179,1150,-1
1150,1178,1149,-1
1149,1178,1161,-1
1148,1167,1146,-1
1146,1151,1180,-1
1151,952,985,-1
1151,1167,952,-1
1146,1167,1151,-1
1148,1147,1167,-1
1147,1169,1168,-1
1147,1158,1176,-1
1147,1176,1169,-1
1151,985,986,-1
1151,986,1180,-1
1146,1180,1177,-1
952,1170,1171,-1
952,1171,985,-1
1074,1153,1075,-1
1077,1160,1153,-1
1075,1153,1156,-1
1156,1153,1161,-1
1077,1154,1160,-1
1075,1156,1155,-1
1155,1156,1182,-1
1156,1161,1182,-1
1147,1159,1158,-1
1160,1157,1159,-1
1149,1161,1159,-1
1153,1159,1161,-1
1157,1158,1159,-1
1153,1160,1159,-1
1163,1169,1166,-1
1166,1169,1176,-1
1163,1168,1169,-1
1162,1168,1163,-1
1165,1164,1173,-1
1165,1173,1174,-1
1162,1165,1174,-1
1162,1174,1168,-1
1166,1176,1158,-1
952,1167,1170,-1
968,1172,1175,-1
1167,1172,1170,-1
1167,1175,1172,-1
1147,1168,1167,-1
1171,1170,1193,-1
1170,1172,1193,-1
1175,1174,1173,-1
1167,1168,1175,-1
1168,1174,1175,-1
1155,1115,1114,-1
1150,1179,1178,-1
1179,1188,1178,-1
1179,1177,1193,-1
1171,986,985,-1
1180,986,1193,-1
1177,1180,1193,-1
1179,1194,1188,-1
1155,1182,1115,-1
1137,1115,1182,-1
1137,1189,1183,-1
1137,1182,1189,-1
1181,1183,1184,-1
1189,1185,1183,-1
1183,1185,1184,-1
1189,1192,1185,-1
1161,1178,1188,-1
1161,1188,1182,-1
1182,1188,1186,-1
1188,1203,1187,-1
1186,1188,1187,-1
1187,1203,1191,-1
1186,1187,1190,-1
1182,1186,1189,-1
1189,1186,1192,-1
1187,1191,1190,-1
1192,1186,1190,-1
1171,1193,986,-1
1172,1200,1193,-1
1179,1193,1194,-1
1194,1195,1188,-1
1195,1197,1203,-1
1194,1196,1195,-1
1203,1197,1204,-1
1196,1197,1195,-1
998,1198,1200,-1
1200,1198,1199,-1
1193,1200,1199,-1
1193,1199,1194,-1
1199,1198,1201,-1
1194,1199,1202,-1
1199,1201,1202,-1
1194,1202,1196,-1
1188,1195,1203,-1
1191,1203,1204,-1
1001,1206,690,-1
1001,1207,1206,-1
1001,1208,1207,-1
1001,1209,1208,-1
77,1394,76,-1
77,78,1385,-1
78,79,1386,-1
79,80,1387,-1
82,1388,84,-1
84,1393,89,-1
86,1394,82,-1
86,76,1394,-1
89,1402,90,-1
90,1403,92,-1
92,1404,464,-1
77,1383,1394,-1
77,1385,1383,-1
78,1386,1385,-1
79,1387,1386,-1
80,1618,1387,-1
82,1394,1388,-1
84,1388,1393,-1
89,1393,1402,-1
90,1402,1403,-1
1403,1404,92,-1
464,1404,1454,-1
1388,1403,1393,-1
1394,1404,1388,-1
1383,1454,1394,-1
1383,1385,1456,-1
1393,1403,1402,-1
1388,1404,1403,-1
1394,1454,1404,-1
1383,1456,1454,-1
1385,1386,1458,-1
1386,1387,1459,-1
1387,1618,1462,-1
1385,1458,1456,-1
1458,1386,1459,-1
1387,1462,1459,-1
464,1454,465,-1
465,1456,467,-1
467,1458,469,-1
469,1459,472,-1
472,1462,1056,-1
465,1454,1456,-1
467,1456,1458,-1
1458,1459,469,-1
472,1459,1462,-1
80,611,1618,-1
611,612,1619,-1
612,613,1620,-1
613,659,1621,-1
659,661,1621,-1
661,665,1623,-1
665,666,1625,-1
666,668,1627,-1
668,670,1629,-1
1063,1646,674,-1
670,671,1630,-1
671,674,1633,-1
611,1619,1618,-1
612,1620,1619,-1
613,1621,1620,-1
661,1623,1621,-1
665,1625,1623,-1
666,1627,1625,-1
668,1629,1627,-1
670,1630,1629,-1
671,1633,1630,-1
674,1646,1633,-1
1618,1619,1639,-1
1619,1620,1641,-1
1620,1621,1644,-1
1618,1639,1462,-1
1619,1641,1639,-1
1620,1644,1641,-1
1621,1623,1645,-1
1623,1625,1646,-1
1625,1627,1633,-1
1621,1645,1644,-1
1623,1646,1645,-1
1627,1629,1630,-1
1625,1633,1646,-1
1627,1630,1633,-1
1056,1639,1058,-1
1061,1644,1062,-1
1061,1058,1641,-1
1062,1645,1063,-1
1056,1462,1639,-1
1058,1639,1641,-1
1061,1641,1644,-1
1062,1644,1645,-1
1063,1645,1646,-1
1406,1407,1412,-1
1406,1416,1407,-1
1416,1408,1407,-1
1416,1409,1408,-1
1416,1410,1409,-1
1406,1419,1416,-1
1409,1410,1415,-1
1406,1412,1411,-1
1406,1411,1419,-1
1411,1412,1419,-1
1419,1412,1413,-1
1419,1413,1414,-1
1419,1414,1415,-1
1414,1409,1415,-1
1419,1415,1420,-1
1416,1417,1410,-1
1417,1418,1410,-1
1416,1419,1433,-1
1416,1433,1417,-1
1417,1433,1418,-1
1419,1420,1434,-1
1421,1431,1422,-1
1431,1423,1422,-1
1421,1422,1426,-1
1421,1426,1425,-1
1421,1425,1432,-1
1425,1426,1432,-1
1432,1426,1427,-1
1431,1424,1423,-1
1431,1429,1424,-1
1432,1427,1428,-1
1432,1428,1430,-1
1421,1432,1431,-1
1428,1424,1430,-1
1424,1429,1430,-1
1431,1434,1429,-1
1419,1434,1431,-1
1419,1431,1433,-1
1433,1435,1418,-1
1431,1432,1433,-1
1432,1435,1433,-1
1432,1430,1435,-1
7,1245,8,-1
7,1248,1250,-1
7,1247,1251,-1
7,1250,1247,-1
7,1251,1252,-1
7,29,28,-1
7,1255,1249,-1
7,1249,1248,-1
7,28,1255,-1
7,30,29,-1
7,31,30,-1
7,36,31,-1
1269,14,15,-1
1268,15,16,-1
13,11,12,-1
15,14,12,-1
13,17,11,-1
16,12,9,-1
15,12,16,-1
12,1222,9,-1
11,1238,12,-1
12,1238,1222,-1
11,17,1238,-1
7,24,22,-1
7,8,26,-1
7,26,24,-1
7,22,608,-1
7,37,36,-1
7,38,37,-1
7,39,38,-1
7,40,39,-1
7,1287,40,-1
7,1288,1287,-1
22,24,1371,-1
1255,28,32,-1
28,29,33,-1
30,34,29,-1
30,31,35,-1
31,36,41,-1
28,33,32,-1
34,33,29,-1
30,35,34,-1
31,41,35,-1
1269,15,1268,-1
1275,32,52,-1
1269,1275,10,-1
32,33,46,-1
34,47,33,-1
34,35,51,-1
35,41,54,-1
36,37,42,-1
37,38,43,-1
38,39,44,-1
39,40,45,-1
36,42,41,-1
37,43,42,-1
38,44,43,-1
39,45,44,-1
40,1308,45,-1
41,42,54,-1
42,43,55,-1
43,44,59,-1
44,45,60,-1
45,1308,61,-1
1308,1309,63,-1
1309,1310,68,-1
46,49,52,-1
46,47,49,-1
48,49,50,-1
48,50,53,-1
50,51,56,-1
50,56,53,-1
1275,52,10,-1
32,46,52,-1
1269,12,14,-1
1269,13,12,-1
1269,10,13,-1
10,52,49,-1
13,10,49,-1
13,49,17,-1
48,17,49,-1
34,49,47,-1
34,50,49,-1
34,51,50,-1
33,47,46,-1
51,35,54,-1
48,53,17,-1
51,54,55,-1
51,55,56,-1
56,57,53,-1
56,58,57,-1
57,58,62,-1
42,55,54,-1
43,56,55,-1
43,58,56,-1
43,59,58,-1
44,60,59,-1
45,61,60,-1
1308,63,61,-1
1309,64,63,-1
58,59,64,-1
58,64,62,-1
59,60,64,-1
60,61,64,-1
64,65,62,-1
57,62,53,-1
65,71,62,-1
1309,66,64,-1
1309,67,66,-1
1309,68,67,-1
1310,69,68,-1
61,63,64,-1
64,66,65,-1
65,66,71,-1
66,67,1347,-1
67,68,1347,-1
66,1347,71,-1
68,69,1347,-1
69,70,1347,-1
1347,1348,71,-1
1348,1363,71,-1
24,26,1375,-1
7,608,676,-1
7,676,627,-1
610,606,677,-1
608,610,676,-1
7,1490,1487,-1
7,1489,1490,-1
7,1491,1489,-1
7,623,1491,-1
7,1487,1488,-1
7,1488,1492,-1
7,1492,1493,-1
7,1493,1494,-1
7,1494,1495,-1
7,1495,1496,-1
7,1496,1497,-1
7,624,623,-1
7,625,624,-1
7,626,625,-1
7,627,626,-1
22,1590,608,-1
610,1592,606,-1
608,1592,610,-1
1465,614,619,-1
1465,619,1480,-1
1510,619,616,-1
1510,620,619,-1
1510,616,621,-1
1511,621,615,-1
616,619,621,-1
620,618,619,-1
620,622,618,-1
619,615,621,-1
614,615,619,-1
618,1480,619,-1
618,622,1480,-1
1491,623,628,-1
623,624,629,-1
625,630,624,-1
625,626,631,-1
626,627,632,-1
623,629,628,-1
630,629,624,-1
625,631,630,-1
626,632,631,-1
1510,621,1511,-1
1510,1512,617,-1
1512,628,648,-1
628,629,641,-1
630,642,629,-1
630,631,646,-1
631,632,647,-1
627,633,637,-1
633,634,638,-1
634,635,639,-1
635,636,640,-1
627,637,632,-1
633,638,637,-1
634,639,638,-1
635,640,639,-1
636,1549,640,-1
632,637,647,-1
637,638,650,-1
638,639,654,-1
639,640,655,-1
640,1549,656,-1
1549,1550,678,-1
1550,1551,683,-1
648,641,643,-1
641,642,643,-1
643,645,644,-1
644,645,649,-1
646,647,650,-1
645,646,651,-1
645,651,649,-1
1512,648,617,-1
628,641,648,-1
629,642,641,-1
1510,617,620,-1
620,617,643,-1
617,648,643,-1
620,643,622,-1
643,644,622,-1
630,643,642,-1
630,645,643,-1
630,646,645,-1
631,647,646,-1
644,649,622,-1
646,650,651,-1
651,652,649,-1
651,653,652,-1
652,653,657,-1
647,637,650,-1
638,651,650,-1
638,653,651,-1
638,654,653,-1
639,655,654,-1
640,656,655,-1
1549,678,656,-1
1550,679,678,-1
1550,681,679,-1
1550,682,681,-1
653,654,679,-1
654,655,679,-1
653,679,657,-1
655,656,679,-1
679,680,657,-1
652,657,649,-1
680,686,657,-1
610,677,676,-1
676,633,627,-1
676,634,633,-1
676,635,634,-1
676,636,635,-1
676,1529,636,-1
676,1530,1529,-1
676,1531,1530,-1
676,1532,1531,-1
676,1533,1532,-1
676,1534,1533,-1
676,1535,1534,-1
676,677,1617,-1
1550,683,682,-1
1551,684,683,-1
656,678,679,-1
679,681,680,-1
680,681,686,-1
681,682,1593,-1
682,683,1593,-1
683,684,1593,-1
681,1593,686,-1
1593,1594,686,-1
684,685,1593,-1
1594,1609,686,-1
7,1252,1245,-1
1270,9,1267,-1
1267,1225,1271,-1
1226,1272,1271,-1
1227,1273,1272,-1
1228,1274,1273,-1
1228,1276,1274,-1
1232,1277,1276,-1
1277,1233,1278,-1
1278,1234,1279,-1
1222,1223,1224,-1
1226,1225,1224,-1
1226,1224,1227,-1
1222,1238,1223,-1
1223,1239,1224,-1
1227,1224,1228,-1
1228,1224,1229,-1
1229,1224,1239,-1
1270,16,9,-1
1267,9,1222,-1
1267,1222,1224,-1
1226,1271,1225,-1
1267,1224,1225,-1
1226,1227,1272,-1
1227,1228,1273,-1
1229,1230,1231,-1
1229,1239,1230,-1
1231,1233,1232,-1
1231,1234,1233,-1
1230,1240,1231,-1
1231,1235,1234,-1
1231,1236,1235,-1
1231,1240,1236,-1
1228,1229,1276,-1
1229,1231,1276,-1
1231,1232,1276,-1
1232,1233,1277,-1
1278,1233,1234,-1
1279,1234,1235,-1
1280,1235,1236,-1
1280,1236,1241,-1
1280,1241,1242,-1
1236,1237,1241,-1
1236,1240,1237,-1
1223,1238,1239,-1
1230,1239,1240,-1
1281,1242,1243,-1
1241,1243,1242,-1
1241,1244,1243,-1
1241,1329,1244,-1
1241,1330,1329,-1
1237,1336,1241,-1
1241,1336,1330,-1
1237,1240,1336,-1
1245,1246,8,-1
1252,1253,1245,-1
1253,1254,1245,-1
1254,1256,1245,-1
1256,1257,1245,-1
1257,1258,1245,-1
1258,1259,1245,-1
1259,1260,1245,-1
1260,1261,1245,-1
1261,1262,1245,-1
1262,1263,1245,-1
1263,1264,1245,-1
1264,1265,1245,-1
1265,1266,1245,-1
1266,1296,1245,-1
1247,1267,1251,-1
1250,1248,1268,-1
1249,1255,1275,-1
1249,1269,1248,-1
1250,1270,1247,-1
1251,1271,1252,-1
1252,1272,1253,-1
1253,1273,1254,-1
1254,1274,1256,-1
1247,1270,1267,-1
1248,1269,1268,-1
1249,1275,1269,-1
1250,1268,1270,-1
1251,1267,1271,-1
1252,1271,1272,-1
1253,1272,1273,-1
1254,1273,1274,-1
1256,1274,1276,-1
1255,32,1275,-1
1256,1276,1257,-1
1257,1277,1258,-1
1258,1278,1259,-1
1259,1279,1260,-1
1260,1280,1261,-1
1261,1281,1262,-1
1257,1276,1277,-1
1258,1277,1278,-1
1259,1278,1279,-1
1260,1279,1280,-1
1261,1280,1281,-1
1262,1281,1282,-1
1262,1282,1263,-1
1263,1283,1264,-1
1264,1284,1265,-1
1265,1285,1266,-1
1266,1286,1296,-1
1282,1283,1263,-1
1264,1283,1284,-1
1265,1284,1285,-1
1285,1286,1266,-1
1296,1286,1317,-1
1270,1268,16,-1
1279,1235,1280,-1
1280,1242,1281,-1
1281,1244,1282,-1
40,1287,1308,-1
1287,1288,1309,-1
1288,1289,1310,-1
1289,1290,1311,-1
1290,1291,1312,-1
1291,1292,1313,-1
1292,1293,1314,-1
1293,1294,1315,-1
1294,1295,1316,-1
1295,1302,1323,-1
1287,1309,1308,-1
1288,1310,1309,-1
1289,1311,1310,-1
1290,1312,1311,-1
1291,1313,1312,-1
1292,1314,1313,-1
1293,1315,1314,-1
1294,1316,1315,-1
1295,1323,1316,-1
1296,1317,1297,-1
1297,1318,1299,-1
1306,1298,1319,-1
1299,1320,1300,-1
1300,1321,1298,-1
1297,1317,1318,-1
1299,1318,1320,-1
1300,1320,1321,-1
1298,1321,1319,-1
1305,1301,1322,-1
1303,1304,1325,-1
1302,1303,1324,-1
1305,1326,1304,-1
1306,1327,1307,-1
1301,1307,1328,-1
1303,1325,1324,-1
1302,1324,1323,-1
1304,1326,1325,-1
1305,1322,1326,-1
1327,1328,1307,-1
1306,1319,1327,-1
1301,1328,1322,-1
1322,1328,1368,-1
1327,1366,1328,-1
1282,1329,1283,-1
1283,1333,1284,-1
1284,1334,1285,-1
1285,1335,1286,-1
1286,1337,1317,-1
1317,1337,1318,-1
1318,1338,1320,-1
1320,1339,1321,-1
1321,1340,1319,-1
1327,1319,1344,-1
1281,1243,1244,-1
1282,1244,1329,-1
1283,1329,1330,-1
1283,1330,1332,-1
1283,1332,1333,-1
1330,1331,1332,-1
1330,1336,1331,-1
1332,1334,1333,-1
1331,1345,1332,-1
1284,1333,1334,-1
1285,1334,1335,-1
1335,1337,1286,-1
1332,1335,1334,-1
1332,1337,1335,-1
1332,1345,1337,-1
1331,1336,1345,-1
1320,1338,1339,-1
1318,1337,1338,-1
1337,1339,1338,-1
1337,1340,1339,-1
1321,1339,1340,-1
1319,1340,1341,-1
1319,1341,1342,-1
1319,1342,1344,-1
1328,1366,1369,-1
1327,1344,1366,-1
1337,1341,1340,-1
1337,1346,1341,-1
1341,1343,1342,-1
1366,1344,1342,-1
1341,1346,1343,-1
1337,1345,1346,-1
1310,1311,69,-1
1311,1312,70,-1
1312,1313,1350,-1
1313,1314,1351,-1
1314,1315,1352,-1
1315,1316,1352,-1
1316,1323,1353,-1
1323,1324,1358,-1
1326,1359,1325,-1
1324,1325,1354,-1
1326,1322,1360,-1
1311,70,69,-1
1312,1347,70,-1
1312,1349,1347,-1
1312,1350,1349,-1
1313,1351,1350,-1
1314,1352,1351,-1
1316,1353,1352,-1
1347,1349,1348,-1
1348,1349,1363,-1
1349,1356,1363,-1
1349,1350,1356,-1
1350,1351,1356,-1
1351,1352,1356,-1
1352,1353,1356,-1
1356,1357,1363,-1
1324,1354,1358,-1
1325,1359,1354,-1
1322,1367,1361,-1
1322,1368,1367,-1
1326,1360,1359,-1
1322,1361,1360,-1
1323,1356,1353,-1
1323,1355,1356,-1
1323,1358,1355,-1
1355,1358,1361,-1
1355,1361,1364,-1
1356,1355,1357,-1
1357,1355,1364,-1
1358,1354,1361,-1
1354,1359,1361,-1
1361,1359,1360,-1
1367,1362,1361,-1
1361,1362,1364,-1
1367,1365,1362,-1
1357,1364,1363,-1
1362,1365,1364,-1
1328,1369,1368,-1
1366,1342,1369,-1
1368,1369,1342,-1
1342,1343,1365,-1
1368,1342,1367,-1
1342,1365,1367,-1
1343,1346,1365,-1
1300,1298,1245,-1
1306,1245,1298,-1
1306,1307,1245,-1
1296,1297,1245,-1
1297,1299,1245,-1
1299,1300,1245,-1
24,1373,1371,-1
7,1616,1288,-1
24,1375,1373,-1
22,1371,1590,-1
1288,1616,1289,-1
1289,1616,1290,-1
1290,1616,1291,-1
1291,1616,1292,-1
1292,1616,1293,-1
1293,1616,1294,-1
1294,1616,1295,-1
1295,1616,1302,-1
1301,1616,1307,-1
1305,1616,1301,-1
1302,1616,1303,-1
1303,1616,1304,-1
1305,1304,1616,-1
1307,1616,1245,-1
1245,1616,1246,-1
1371,1373,1588,-1
1373,1375,1588,-1
7,1497,1616,-1
1592,1588,606,-1
1511,615,1508,-1
614,1509,1508,-1
1468,1513,1509,-1
1464,1514,1513,-1
1469,1515,1514,-1
1470,1516,1515,-1
1470,1517,1516,-1
1474,1518,1517,-1
1475,1519,1518,-1
1519,1476,1520,-1
1520,1477,1521,-1
1464,1469,1514,-1
1469,1470,1515,-1
1467,1469,1464,-1
1465,1466,1467,-1
1468,1467,1464,-1
1465,1480,1466,-1
1466,1481,1467,-1
1467,1470,1469,-1
1467,1471,1470,-1
1467,1481,1471,-1
1465,1509,614,-1
1465,1467,1509,-1
614,1508,615,-1
1468,1509,1467,-1
1468,1464,1513,-1
1470,1471,1517,-1
1471,1473,1517,-1
1473,1474,1517,-1
1471,1472,1473,-1
1473,1475,1474,-1
1471,1481,1472,-1
1473,1476,1475,-1
1472,1482,1473,-1
1473,1477,1476,-1
1473,1478,1477,-1
1478,1479,1483,-1
1473,1482,1478,-1
1478,1482,1479,-1
1474,1475,1518,-1
1475,1476,1519,-1
1520,1476,1477,-1
1521,1477,1478,-1
1521,1478,1483,-1
1521,1483,1484,-1
1466,1480,1481,-1
1472,1481,1482,-1
1522,1484,1485,-1
1483,1485,1484,-1
1483,1486,1485,-1
1479,1577,1483,-1
1483,1569,1486,-1
1483,1570,1569,-1
1483,1577,1570,-1
1479,1482,1577,-1
1488,1487,1508,-1
1488,1509,1492,-1
1490,1511,1487,-1
1489,1510,1490,-1
1489,1491,1512,-1
1492,1513,1493,-1
1493,1514,1494,-1
1494,1515,1495,-1
1495,1516,1496,-1
1487,1511,1508,-1
1488,1508,1509,-1
1490,1510,1511,-1
1489,1512,1510,-1
1491,628,1512,-1
1493,1513,1514,-1
1494,1514,1515,-1
1492,1509,1513,-1
1495,1515,1516,-1
1496,1516,1517,-1
1496,1517,1497,-1
1497,1518,1498,-1
1498,1519,1499,-1
1499,1520,1500,-1
1500,1521,1501,-1
1501,1522,1502,-1
1502,1523,1503,-1
1497,1517,1518,-1
1498,1518,1519,-1
1519,1520,1499,-1
1500,1520,1521,-1
1501,1521,1522,-1
1502,1522,1523,-1
1503,1524,1504,-1
1504,1525,1505,-1
1505,1526,1506,-1
1506,1527,1507,-1
1523,1524,1503,-1
1504,1524,1525,-1
1505,1525,1526,-1
1506,1526,1527,-1
1507,1527,1528,-1
1521,1484,1522,-1
1522,1486,1523,-1
636,1529,1549,-1
1529,1530,1550,-1
1530,1531,1551,-1
1531,1532,1552,-1
1532,1533,1553,-1
1533,1534,1554,-1
1534,1535,1555,-1
1535,1536,1556,-1
1536,1537,1557,-1
1537,1545,1565,-1
1529,1550,1549,-1
1530,1551,1550,-1
1531,1552,1551,-1
1532,1553,1552,-1
1533,1554,1553,-1
1534,1555,1554,-1
1535,1556,1555,-1
1536,1557,1556,-1
1537,1565,1557,-1
1507,1528,1538,-1
1538,1558,1539,-1
1539,1559,1542,-1
1541,1540,1560,-1
1542,1562,1540,-1
1528,1558,1538,-1
1539,1558,1559,-1
1541,1560,1561,-1
1542,1559,1562,-1
1540,1562,1560,-1
1544,1564,1547,-1
1544,1543,1563,-1
1545,1546,1566,-1
1546,1547,1567,-1
1543,1548,1568,-1
1541,1561,1548,-1
1544,1563,1564,-1
1545,1566,1565,-1
1546,1567,1566,-1
1564,1567,1547,-1
1548,1561,1568,-1
1543,1568,1563,-1
1551,1552,684,-1
1561,1612,1568,-1
1563,1568,1614,-1
1564,1563,1600,-1
1523,1569,1524,-1
1524,1573,1525,-1
1525,1574,1526,-1
1526,1575,1527,-1
1527,1576,1528,-1
1528,1576,1558,-1
1558,1579,1559,-1
1559,1580,1562,-1
1562,1581,1560,-1
1561,1560,1582,-1
1522,1485,1486,-1
1523,1486,1569,-1
1524,1569,1570,-1
1524,1570,1572,-1
1524,1572,1573,-1
1525,1573,1574,-1
1570,1571,1572,-1
1570,1577,1571,-1
1572,1574,1573,-1
1572,1575,1574,-1
1571,1578,1572,-1
1526,1574,1575,-1
1527,1575,1576,-1
1572,1576,1575,-1
1572,1578,1576,-1
1571,1577,1578,-1
1559,1579,1580,-1
1562,1580,1581,-1
1576,1579,1558,-1
1576,1580,1579,-1
1576,1583,1581,-1
1576,1581,1580,-1
1560,1581,1583,-1
1560,1585,1582,-1
1560,1583,1585,-1
1568,1612,1613,-1
1561,1582,1612,-1
1576,1586,1583,-1
1583,1584,1585,-1
1612,1582,1585,-1
1583,1586,1584,-1
1576,1578,1586,-1
608,1590,1592,-1
1497,1498,1616,-1
1498,1499,1616,-1
1499,1500,1616,-1
1500,1501,1616,-1
1501,1502,1616,-1
1502,1503,1616,-1
1503,1504,1616,-1
1504,1505,1616,-1
1505,1506,1616,-1
1506,1507,1616,-1
1371,1592,1590,-1
1371,1588,1592,-1
1616,1617,1246,-1
1552,1553,685,-1
1553,1554,1596,-1
1554,1555,1597,-1
1555,1556,1598,-1
1556,1557,1598,-1
1557,1565,1599,-1
1565,1566,1603,-1
1566,1567,1604,-1
1564,1608,1567,-1
676,1616,1535,-1
1552,685,684,-1
1553,1593,685,-1
1553,1595,1593,-1
1553,1596,1595,-1
1554,1597,1596,-1
1555,1598,1597,-1
1557,1599,1598,-1
1593,1595,1594,-1
1595,1596,1605,-1
1594,1595,1609,-1
1595,1605,1609,-1
1596,1597,1605,-1
1605,1607,1609,-1
1597,1598,1605,-1
1598,1599,1605,-1
1565,1605,1599,-1
1565,1606,1605,-1
1565,1603,1606,-1
1567,1608,1604,-1
1566,1604,1603,-1
1563,1615,1602,-1
1563,1602,1600,-1
1563,1614,1615,-1
1564,1600,1608,-1
1601,1602,1615,-1
1601,1615,1610,-1
1603,1602,1606,-1
1606,1602,1611,-1
1605,1606,1607,-1
1606,1611,1607,-1
1604,1608,1602,-1
1603,1604,1602,-1
1600,1602,1608,-1
1601,1611,1602,-1
1607,1611,1609,-1
1601,1610,1611,-1
1568,1613,1614,-1
1614,1613,1585,-1
1612,1585,1613,-1
1615,1614,1585,-1
1615,1585,1610,-1
1584,1610,1585,-1
1584,1586,1610,-1
1535,1616,1536,-1
1536,1616,1537,-1
1537,1616,1545,-1
1542,1540,1616,-1
1541,1616,1540,-1
1543,1616,1548,-1
1541,1548,1616,-1
1507,1538,1616,-1
1538,1539,1616,-1
1539,1542,1616,-1
1545,1616,1546,-1
1546,1616,1547,-1
1544,1547,1616,-1
1544,1616,1543,-1
676,1617,1616,-1
1,2,5,-1
0,26,8,-1
1,18,2,-1
2,20,4,-1
2,6,5,-1
2,4,6,-1
0,1,604,-1
1,5,598,-1
0,603,27,-1
1,598,600,-1
0,27,26,-1
4,73,6,-1
5,6,72,-1
5,72,598,-1
0,1377,1,-1
2,18,20,-1
0,8,1376,-1
1,1377,18,-1
1238,17,53,-1
4,20,73,-1
6,73,72,-1
23,25,605,-1
25,27,605,-1
23,1370,25,-1
20,21,73,-1
73,21,74,-1
25,1372,27,-1
27,1375,26,-1
72,1384,598,-1
446,447,448,-1
446,450,447,-1
446,460,451,-1
446,451,450,-1
447,450,449,-1
449,450,452,-1
449,452,454,-1
451,460,461,-1
451,461,453,-1
447,455,448,-1
447,449,457,-1
447,457,455,-1
448,455,456,-1
1,600,604,-1
0,604,603,-1
598,601,600,-1
598,599,601,-1
27,603,605,-1
598,662,599,-1
599,688,601,-1
603,677,605,-1
600,601,687,-1
600,687,604,-1
23,609,607,-1
23,605,609,-1
605,677,606,-1
598,658,662,-1
599,662,688,-1
23,607,1589,-1
605,1587,609,-1
605,606,1587,-1
598,1384,658,-1
607,609,1591,-1
662,663,688,-1
688,663,689,-1
601,688,687,-1
603,1617,677,-1
603,604,1636,-1
604,687,1637,-1
1212,1206,1207,-1
1210,1206,1212,-1
1210,1212,1217,-1
1212,1214,1215,-1
1212,1215,1217,-1
1210,1220,1211,-1
1210,1217,1220,-1
1216,1219,1218,-1
1217,1218,1220,-1
1218,1219,1220,-1
1211,1220,1213,-1
1238,53,1239,-1
1239,53,1240,-1
0,1376,1377,-1
1376,8,1246,-1
18,1450,20,-1
20,1450,21,-1
1450,456,21,-1
53,1336,1240,-1
53,1345,1336,-1
53,62,1345,-1
62,71,1346,-1
1345,62,1346,-1
1346,71,1363,-1
1346,1363,1364,-1
1346,1364,1365,-1
25,1370,1372,-1
27,1372,1374,-1
27,1374,1375,-1
23,1589,1370,-1
72,73,1384,-1
73,74,1384,-1
1384,74,85,-1
1370,1374,1372,-1
1370,1591,1374,-1
1374,1588,1375,-1
1389,85,81,-1
1400,83,87,-1
1390,81,83,-1
1401,87,88,-1
1405,88,91,-1
1405,91,463,-1
18,1378,1379,-1
18,1379,1380,-1
18,1377,1378,-1
1378,1381,1379,-1
18,1380,1450,-1
1380,1382,1450,-1
1384,85,1395,-1
1376,1636,1377,-1
1378,1384,1381,-1
1381,1384,1398,-1
1384,1395,1398,-1
1376,1246,1636,-1
1377,1637,1378,-1
1396,85,1389,-1
1389,81,1391,-1
1390,1391,81,-1
1390,83,1400,-1
1395,85,1396,-1
1400,87,1401,-1
1401,88,1405,-1
1405,463,1455,-1
1379,1391,1380,-1
1379,1389,1391,-1
1379,1395,1396,-1
1379,1396,1389,-1
1380,1391,1392,-1
1390,1392,1391,-1
1390,1397,1392,-1
1390,1401,1397,-1
1379,1381,1398,-1
1379,1398,1395,-1
1380,1392,1382,-1
1382,1392,1397,-1
1382,1397,1399,-1
1390,1400,1401,-1
1397,1401,1405,-1
1397,1405,1455,-1
1382,1399,1450,-1
1399,1457,1450,-1
1397,1455,1399,-1
1399,1455,1457,-1
446,448,1436,-1
446,1407,460,-1
446,1412,1407,-1
446,1422,1412,-1
448,456,1436,-1
446,1426,1422,-1
449,454,1444,-1
450,1445,452,-1
450,451,1446,-1
451,453,1448,-1
446,1451,1426,-1
449,1444,457,-1
460,1407,1408,-1
460,1408,1409,-1
460,1409,461,-1
461,1409,1414,-1
1412,1422,1413,-1
1414,1413,1423,-1
461,1414,1424,-1
1422,1423,1413,-1
1414,1423,1424,-1
461,1424,1428,-1
461,1428,1451,-1
1457,463,466,-1
1444,1207,457,-1
1460,466,468,-1
1460,468,470,-1
1463,470,471,-1
446,1436,1437,-1
446,1437,1451,-1
454,1449,1444,-1
450,1446,1445,-1
452,1445,1447,-1
451,1448,1446,-1
1436,456,1439,-1
1439,456,1450,-1
1436,1438,1437,-1
1436,1439,1438,-1
1438,1441,1440,-1
1438,1439,1441,-1
1439,1443,1441,-1
1442,1443,1444,-1
1437,1438,1451,-1
1438,1440,1445,-1
1438,1445,1451,-1
1440,1441,1445,-1
1441,1443,1445,-1
1442,1445,1443,-1
1442,1444,1449,-1
1442,1447,1445,-1
1442,1449,1447,-1
1445,1446,1451,-1
1446,1452,1451,-1
1446,1448,1452,-1
461,1451,1452,-1
1451,1427,1426,-1
1451,1428,1427,-1
1455,463,1457,-1
1457,466,1460,-1
1460,470,1461,-1
1461,470,1463,-1
1463,471,1640,-1
1439,1652,1443,-1
1443,1652,1444,-1
1460,1461,1643,-1
1461,1463,1643,-1
1439,1450,1652,-1
1457,1460,1643,-1
1450,1457,1652,-1
1587,606,1588,-1
609,1587,1591,-1
1481,1480,622,-1
1481,622,1482,-1
622,1577,1482,-1
649,1577,622,-1
649,1578,1577,-1
649,657,1586,-1
657,686,1586,-1
649,1586,1578,-1
607,1591,1589,-1
1370,1589,1591,-1
1374,1587,1588,-1
1374,1591,1587,-1
658,1622,662,-1
662,1622,663,-1
1622,664,663,-1
1626,667,664,-1
1626,669,667,-1
1628,672,669,-1
1631,673,672,-1
1632,675,673,-1
1634,1064,675,-1
686,1609,1586,-1
1609,1611,1586,-1
1611,1610,1586,-1
603,1636,1617,-1
687,688,1635,-1
688,689,1635,-1
604,1637,1636,-1
1635,689,1205,-1
658,1384,1622,-1
1636,1246,1617,-1
1622,1624,664,-1
1378,1637,1384,-1
1384,1637,1622,-1
1377,1636,1637,-1
1624,1626,664,-1
1626,1628,669,-1
1628,1631,672,-1
1631,1632,673,-1
1632,1634,675,-1
1647,1064,1634,-1
1624,1634,1626,-1
1626,1634,1628,-1
1622,1648,1624,-1
1622,1635,1648,-1
1624,1647,1634,-1
1628,1634,1632,-1
1628,1632,1631,-1
1624,1648,1647,-1
1635,1649,1648,-1
687,1635,1637,-1
1622,1637,1635,-1
1635,1205,1649,-1
1640,471,1057,-1
1642,1057,1059,-1
1642,1059,1060,-1
1212,1207,1444,-1
1647,1065,1064,-1
1648,1060,1065,-1
1210,1211,1638,-1
1211,1213,1638,-1
1649,1205,1206,-1
1210,1649,1206,-1
1210,1638,1649,-1
1213,1653,1638,-1
1212,1654,1214,-1
1215,1655,1217,-1
1217,1658,1218,-1
1216,1218,1659,-1
1213,1220,1653,-1
1219,1661,1220,-1
1640,1057,1642,-1
1642,1060,1643,-1
1643,1060,1648,-1
1647,1648,1065,-1
1212,1444,1652,-1
1463,1640,1643,-1
1640,1642,1643,-1
1457,1643,1648,-1
1457,1648,1652,-1
1638,1650,1649,-1
1638,1651,1650,-1
1638,1653,1651,-1
1212,1652,1654,-1
1217,1655,1658,-1
1216,1659,1656,-1
1218,1658,1659,-1
1220,1662,1653,-1
1648,1649,1652,-1
1649,1650,1652,-1
1650,1651,1658,-1
1651,1653,1658,-1
1650,1658,1652,-1
1652,1655,1654,-1
1652,1658,1655,-1
1653,1659,1658,-1
1656,1659,1657,-1
1657,1659,1662,-1
1653,1662,1659,-1
1220,1661,1662,-1
1657,1661,1660,-1
1657,1662,1661,-1
452,459,454,-1
454,459,458,-1
452,453,1221,-1
453,461,1221,-1
461,462,1221,-1
452,1221,459,-1
1221,1209,459,-1
1216,1208,1209,-1
1214,1208,1216,-1
1216,1209,1219,-1
1214,1216,1215,-1
1219,1209,1221,-1
452,1448,453,-1
454,458,1449,-1
461,1415,1410,-1
461,1410,462,-1
461,1429,1415,-1
1415,1429,1420,-1
462,1410,1418,-1
461,1430,1429,-1
1434,1420,1429,-1
461,1452,1430,-1
462,1418,1453,-1
1449,458,1208,-1
462,1453,1221,-1
452,1447,1448,-1
1447,1449,1448,-1
1452,1435,1430,-1
1453,1418,1435,-1
1452,1453,1435,-1
1449,1654,1448,-1
1448,1654,1452,-1
1452,1654,1453,-1
1214,1449,1208,-1
1215,1216,1655,-1
1219,1221,1661,-1
1214,1654,1449,-1
1221,1453,1663,-1
1453,1654,1655,-1
1453,1655,1656,-1
1453,1656,1657,-1
1453,1657,1660,-1
1453,1660,1663,-1
1216,1656,1655,-1
1221,1663,1661,-1
1660,1661,1663,-1
]

colorPerVertex FALSE

color Color { color [
 0.501961 0.501961 0.501961,
 1 0.647059 0,
 0.992157 0.960784 0.901961,
 0.647059 0.164706 0.164706,
 0 0.501961 0,
 0.976471 0.843137 0.172549, # default colour
] }

colorIndex [
0 0 0 0 0 0 0 0 0 0 0 0 0 0 0 0 0 0 0 0 0 0 0 0 0 0 0 0 0 0 0 0 0 0 0 0 0 0 0 0 0 0 0 0 0 0 0 0 0 0 0 0 0 0 0 0 0 0 0 0 0 0 0 0 0 0 0 0 0 0 0 0 0 0 0 0 0 0 0 0 0 0 0 0 0 0 0 0 0 0 0 0 0 0 0 0 0 0 0 0 0 0 0 0 0 0 0 0 0 0 0 0 0 0 0 0 0 0 0 0 0 0 0 0 0 0 0 0 0 0 0 0 0 0 0 0 0 0 0 0 0 0 0 0 0 0 0 0 0 0 0 0 0 0 0 0 0 0 0 0 0 0 0 0 0 0 0 0 0 0 0 0 0 0 0 0 0 0 0 0 0 0 0 0 0 0 0 0 0 0 0 0 0 0 0 0 0 0 0 0 0 0 0 0 0 0 0 0 0 0 0 0 0 0 0 0 0 0 0 0 0 0 0 0 0 0 0 0 0 0 0 0 0 0 0 0 0 0 0 0 0 0 0 0 0 0 0 0 0 0 0 0 0 0 0 0 0 0 0 0 0 0 0 0 0 0 0 0 0 0 0 0 0 0 0 0 0 0 0 0 0 0 0 0 0 0 0 0 0 0 0 0 0 0 0 0 0 0 0 0 0 0 0 0 0 0 0 0 0 0 0 0 0 0 0 0 0 0 0 0 0 0 0 0 0 0 0 0 0 0 0 0 0 0 0 0 0 0 0 0 0 0 0 0 0 0 0 0 0 0 0 0 0 0 0 0 0 0 0 0 0 0 0 0 0 0 0 0 0 0 0 0 0 0 0 0 0 0 0 0 0 0 0 0 0 0 0 0 0 0 0 0 0 0 0 0 0 0 0 0 0 0 0 0 0 0 0 0 0 0 0 0 0 0 0 0 0 0 0 0 0 0 0 0 0 0 0 0 0 0 0 0 0 0 0 0 0 0 0 0 0 0 0 0 0 0 0 0 0 0 0 0 0 0 0 0 0 0 0 0 0 0 0 0 0 0 0 0 0 0 0 0 0 0 0 0 0 0 0 0 0 0 0 0 0 0 0 0 0 0 0 0 0 0 0 0 0 0 0 0 0 0 0 0 0 0 0 0 0 0 0 0 0 0 0 0 0 0 0 0 0 0 0 0 0 0 0 0 0 0 0 0 0 0 0 0 0 0 0 0 0 0 0 0 0 0 0 0 0 0 0 0 0 0 0 0 0 0 0 0 0 0 0 0 0 0 0 0 0 0 0 0 0 0 0 0 0 0 0 0 0 0 0 0 0 0 0 0 0 0 0 0 0 0 0 0 0 0 0 0 0 0 0 0 0 0 0 0 0 0 0 0 0 0 0 0 0 0 0 0 0 0 0 0 0 0 0 0 0 0 0 0 0 0 0 0 0 0 0 0 0 0 0 0 0 0 0 0 0 0 0 0 0 0 0 0 0 0 0 0 0 0 0 0 0 0 0 0 0 0 0 0 0 0 0 0 0 0 0 0 0 0 0 0 0 0 0 0 0 0 0 0 0 0 0 0 0 0 0 0 0 0 0 0 0 0 0 0 0 0 0 0 0 0 0 0 0 0 0 0 0 0 0 0 0 0 0 0 0 0 0 0 0 0 0 0 0 0 0 0 0 0 0 0 0 0 0 0 0 0 0 0 0 0 0 0 0 0 0 0 0 0 0 0 0 0 0 0 0 0 0 0 0 0 0 0 0 0 0 0 0 0 0 0 0 0 0 0 0 0 0 0 0 0 0 0 0 0 0 0 0 0 0 0 0 0 0 0 0 0 0 0 0 0 0 0 0 0 0 0 0 0 0 0 0 0 0 0 0 0 0 0 0 0 0 0 0 0 0 0 0 0 0 0 0 0 0 0 0 0 0 0 0 0 0 0 0 0 0 0 0 0 0 0 0 0 0 0 0 0 0 0 0 0 0 0 0 0 0 0 0 0 0 0 0 0 0 0 0 0 0 0 0 0 0 0 0 0 0 0 0 0 0 0 0 0 0 0 0 0 0 0 0 0 0 0 0 0 0 0 0 0 0 0 0 0 0 0 0 0 0 0 0 0 0 0 0 0 0 0 0 0 0 0 0 0 0 0 0 0 0 0 0 0 0 0 0 0 0 0 0 0 0 0 0 0 0 0 0 0 0 0 0 0 0 0 0 0 0 0 0 0 0 0 0 0 0 0 0 0 0 0 0 0 0 0 0 0 0 0 0 0 0 0 0 0 0 0 0 0 0 0 0 0 0 0 0 0 0 0 0 0 0 0 0 0 0 0 0 0 0 0 0 0 0 0 0 0 0 0 0 0 0 0 0 0 0 0 0 0 0 0 0 0 0 0 0 0 0 0 0 0 0 0 0 0 0 0 0 0 0 0 0 0 0 0 0 0 0 0 0 0 0 0 0 0 0 0 0 0 0 0 0 0 0 0 0 0 0 0 0 0 0 0 0 0 0 0 0 0 0 0 0 0 0 0 0 0 0 0 0 0 0 0 0 0 0 0 0 0 0 0 0 0 0 0 0 0 0 0 0 0 0 0 0 0 0 0 0 0 0 0 0 0 0 0 0 0 0 0 0 0 0 0 0 0 0 0 0 0 0 0 0 0 0 0 0 0 0 0 0 0 0 0 0 0 0 0 0 0 0 0 0 0 0 0 0 0 0 0 0 0 0 0 0 0 0 0 0 0 0 0 0 0 0 0 0 0 0 0 0 0 0 0 0 0 0 0 0 0 0 0 0 0 0 0 0 0 0 0 0 0 0 0 0 0 0 0 0 0 0 0 0 0 0 0 0 0 0 0 0 0 0 0 0 0 0 0 0 0 0 0 0 0 0 0 0 0 0 0 0 0 0 0 0 0 0 0 0 0 0 0 0 0 0 0 0 0 0 0 0 0 0 0 0 0 0 0 0 0 0 0 0 0 0 0 0 0 0 0 0 0 0 0 0 0 0 0 0 0 0 0 0 0 0 0 0 0 0 0 0 0 0 0 0 0 0 0 0 0 0 0 0 0 0 0 0 0 0 0 0 0 0 0 0 0 0 0 0 0 0 0 0 0 0 0 0 0 0 0 0 0 0 0 0 0 0 0 0 0 0 0 0 0 0 0 0 0 0 0 0 0 0 0 0 0 0 0 0 0 0 0 0 0 0 0 0 0 0 0 0 0 0 0 0 0 0 0 0 0 0 0 0 0 0 0 0 0 0 0 0 0 0 0 0 0 0 0 0 0 0 0 0 0 0 0 0 0 0 0 0 0 0 0 0 0 0 0 0 0 0 0 0 0 0 0 0 0 0 0 0 0 0 0 0 0 0 0 0 0 0 0 0 0 0 0 0 0 0 0 0 0 0 0 0 0 0 0 0 0 0 0 0 0 0 0 0 0 0 0 0 0 0 0 0 0 0 0 0 0 0 0 0 0 0 0 0 0 0 0 0 0 0 0 0 0 0 0 0 0 0 0 0 0 0 0 0 0 0 0 0 0 0 0 0 0 0 0 0 0 0 0 0 0 0 0 0 0 0 0 0 0 0 0 0 0 0 0 0 0 0 0 0 0 0 0 0 0 0 0 0 0 0 0 0 0 0 0 0 0 0 0 0 0 0 0 0 0 0 0 0 0 0 0 0 0 0 0 0 0 0 0 0 0 0 0 0 0 0 0 0 0 0 0 0 0 0 0 0 0 0 0 0 0 0 0 0 0 0 0 0 0 0 0 0 0 0 0 0 0 0 0 0 0 0 0 0 0 0 0 0 0 0 0 0 0 0 0 0 0 0 0 0 0 0 0 0 0 0 0 0 0 0 0 0 0 0 0 0 0 0 0 0 0 0 0 0 0 0 0 0 0 0 0 0 0 0 0 0 0 0 0 0 0 0 0 0 0 0 0 0 0 0 0 0 0 0 0 0 0 0 0 0 0 0 0 0 0 0 0 0 0 0 0 0 0 0 0 0 0 0 0 0 0 0 0 0 0 0 0 0 0 0 0 0 0 0 0 0 0 0 0 0 0 0 0 0 0 0 0 0 0 0 0 0 0 0 0 0 0 0 0 0 0 0 0 0 0 0 0 0 0 0 0 0 0 0 0 0 0 0 0 0 0 0 0 0 0 0 0 0 0 0 0 0 0 0 0 0 0 0 0 0 0 0 0 0 0 0 0 0 0 0 0 0 0 0 0 0 0 0 0 0 0 0 0 0 0 0 0 0 0 0 0 0 0 0 0 0 0 0 0 0 0 0 0 0 0 0 0 0 0 0 0 0 0 0 0 0 0 0 0 0 0 0 0 0 0 0 0 0 0 0 0 0 0 0 0 0 0 0 0 0 0 0 0 0 0 0 0 0 0 0 0 0 0 0 0 0 0 0 0 0 0 0 0 0 0 0 0 0 0 0 0 0 0 0 0 0 0 0 0 0 0 0 0 0 0 0 0 0 0 0 0 0 0 0 0 0 0 0 0 0 0 0 0 0 0 0 0 0 0 0 0 0 0 0 0 0 0 0 0 0 0 0 0 0 0 0 0 0 0 0 0 0 0 0 0 0 0 0 0 0 0 0 0 0 0 0 0 0 0 0 0 0 0 0 0 0 0 0 0 0 0 0 0 0 0 0 0 0 0 0 0 0 0 0 0 0 0 0 0 0 0 0 0 0 0 0 0 0 0 0 0 0 0 0 0 0 0 0 0 0 0 0 0 0 0 0 0 0 0 0 0 0 0 0 0 0 0 0 0 0 0 0 0 0 0 0 0 0 0 0 0 0 0 0 0 0 0 0 0 0 0 0 0 0 0 0 0 1 1 1 1 1 1 1 1 1 1 1 1 1 1 1 1 1 1 1 1 1 1 1 1 1 1 1 1 1 1 1 1 1 1 1 1 1 1 1 1 1 1 2 2 2 2 2 2 2 2 2 2 2 2 2 2 2 2 2 2 2 2 2 2 2 2 2 2 2 2 2 2 2 2 2 2 2 2 2 2 2 2 2 2 2 2 2 2 2 2 2 2 2 2 2 2 2 2 2 2 2 2 2 2 2 2 2 2 2 2 2 2 2 2 2 2 2 2 2 2 2 2 2 2 2 2 2 2 2 2 2 2 2 2 2 2 2 2 2 2 2 2 2 2 2 2 2 2 2 2 2 2 2 2 2 2 2 2 2 2 2 2 2 2 2 2 2 2 2 2 2 2 2 2 2 2 2 2 2 2 2 2 2 2 2 2 2 2 2 2 2 2 2 2 2 2 2 2 2 2 2 2 2 2 2 2 2 2 2 2 2 2 2 2 2 2 2 2 2 2 2 2 2 2 2 2 2 2 2 2 2 2 2 2 2 2 2 2 2 2 2 2 2 2 2 2 2 2 2 2 2 2 2 2 2 2 2 2 2 2 2 2 2 2 2 2 2 2 2 2 2 2 2 2 2 2 2 2 2 2 2 2 2 2 2 2 2 2 2 2 2 2 2 2 2 2 2 2 2 2 2 2 2 2 2 2 2 2 2 2 2 2 2 2 2 2 2 2 2 2 2 2 2 2 2 2 2 2 2 2 2 2 2 2 2 2 2 2 2 2 2 2 2 2 2 2 2 2 2 2 2 2 2 2 2 2 2 2 2 2 2 2 2 2 2 2 2 2 2 2 2 2 2 2 2 2 2 2 2 2 2 2 2 2 2 2 2 2 2 2 2 2 2 2 2 2 2 2 2 2 2 2 2 2 2 2 2 2 2 2 2 2 2 2 2 2 2 2 2 2 2 2 2 2 2 2 2 2 2 2 2 2 2 2 2 2 2 2 2 2 2 2 2 2 2 2 2 2 2 2 2 2 2 2 2 2 2 2 2 2 2 2 2 2 2 2 2 2 2 2 2 2 2 2 2 2 2 2 2 2 2 2 2 2 2 2 2 2 2 2 2 2 2 2 2 2 2 2 2 2 2 2 2 2 2 2 2 2 2 2 2 2 2 2 2 2 2 2 2 2 2 2 2 2 2 2 2 2 2 2 2 2 2 2 2 2 2 2 2 2 2 2 2 2 2 2 2 2 2 2 2 2 2 2 2 2 2 2 2 2 2 2 2 2 2 2 2 2 2 2 2 2 2 2 2 2 2 2 2 2 2 2 2 2 2 2 2 2 2 2 2 2 2 2 2 2 2 2 2 2 2 2 2 2 2 2 2 2 2 2 2 2 2 2 2 2 2 2 2 2 2 2 2 2 2 2 2 2 2 2 2 2 2 2 2 2 2 2 2 2 2 2 2 2 2 2 2 2 2 2 2 2 2 2 2 2 2 2 2 2 2 2 2 2 2 2 2 2 2 2 2 2 2 2 2 2 2 2 2 2 2 2 2 2 2 2 2 2 2 2 2 2 2 2 2 2 2 2 2 2 2 2 2 2 2 2 2 2 2 2 2 2 2 2 2 2 2 2 2 2 2 2 2 2 2 2 2 2 2 2 2 2 2 2 2 2 2 2 2 2 2 2 2 2 2 2 2 2 2 2 2 2 2 2 2 2 2 2 2 2 2 2 2 2 2 2 2 2 2 2 2 2 2 2 2 2 2 2 2 2 2 2 2 2 2 2 2 2 2 2 2 2 2 2 2 2 2 2 2 2 2 2 2 2 2 2 2 2 2 2 2 2 2 2 2 2 2 2 2 2 2 2 2 2 2 2 2 2 2 2 2 2 2 2 2 2 2 2 2 2 2 2 2 2 2 2 3 3 3 3 3 3 3 3 3 3 3 3 3 3 3 3 3 3 3 3 3 3 3 3 3 3 3 3 3 3 3 3 3 3 3 3 3 3 3 3 3 3 3 3 3 3 3 3 3 3 3 3 3 3 3 3 3 3 3 3 3 3 3 3 3 3 3 3 3 3 3 3 3 3 3 3 3 3 3 3 3 3 3 3 3 3 3 3 3 3 3 3 3 3 3 3 3 3 3 3 3 3 3 3 3 3 3 3 3 3 3 3 3 3 3 3 3 3 3 3 3 3 3 3 3 3 3 3 3 3 3 3 3 3 3 3 3 3 3 3 3 3 3 3 3 3 3 3 3 3 3 3 3 3 3 3 3 3 3 3 3 3 3 3 3 3 3 3 3 3 3 3 3 3 3 3 3 3 3 3 3 3 3 3 3 3 3 3 3 3 3 3 3 3 3 3 3 3 3 3 3 3 3 3 3 3 3 3 3 3 3 3 3 3 3 3 3 3 3 3 3 3 3 3 3 3 3 3 3 3 3 3 3 3 3 3 3 3 3 3 3 3 3 3 3 3 3 3 3 3 3 3 3 3 3 3 3 3 3 3 3 3 3 3 3 3 3 3 3 3 3 3 3 3 3 3 3 3 3 3 3 3 3 3 3 3 3 3 3 3 3 3 3 3 3 3 3 3 3 3 3 3 3 3 3 3 3 3 3 3 3 3 3 3 3 3 3 3 3 3 3 3 3 3 4 4 4 4 4 4 4 4 4 4 4 4 4 4 4 4 4 4 4 4 4 4 4 4 4 4 4 4 4 4 4 4 4 4 4 4 4 4 4 4 4 4 4 4 4 4 ]

}

}
